G04 (Genere par PCBnew (20080825)) le 8/6/2009-03:58:39*
G01*
G70*
G90*
%MOIN*%
G04 Gerber Fmt 3.4, Leading zero omitted, Abs format*
%FSLAX34Y34*%
G04 APERTURE LIST*
%ADD10C,0.015000*%
%ADD11R,0.055000X0.055000*%
%ADD12C,0.055000*%
%ADD13R,0.060000X0.060000*%
%ADD14C,0.060000*%
%ADD15R,0.065000X0.065000*%
%ADD16C,0.065000*%
%ADD17C,0.160000*%
%ADD18C,0.045000*%
%ADD19C,0.014000*%
%ADD20C,0.028000*%
%ADD21R,0.086600X0.023600*%
%ADD22R,0.078700X0.017700*%
%ADD23R,0.017700X0.078700*%
%ADD24C,0.017400*%
G04 APERTURE END LIST*
G54D10*
X41700Y-21900D02*
X66450Y-21900D01*
X41700Y-46650D02*
X41700Y-21900D01*
X66450Y-46650D02*
X41700Y-46650D01*
X66450Y-21900D02*
X66450Y-46650D01*
G54D11*
X58700Y-44800D03*
G54D12*
X57700Y-44800D03*
X56700Y-44800D03*
X55700Y-44800D03*
X54700Y-44800D03*
X53700Y-44800D03*
X52700Y-44800D03*
X51700Y-44800D03*
X50700Y-44800D03*
X49700Y-44800D03*
G54D11*
X58700Y-23800D03*
G54D12*
X57700Y-23800D03*
X56700Y-23800D03*
X55700Y-23800D03*
X54700Y-23800D03*
X53700Y-23800D03*
X52700Y-23800D03*
X51700Y-23800D03*
X50700Y-23800D03*
X49700Y-23800D03*
X55365Y-38600D03*
X53435Y-38600D03*
G54D11*
X56700Y-29800D03*
G54D12*
X55700Y-29800D03*
X54700Y-29800D03*
X53700Y-29800D03*
X52700Y-29800D03*
X51700Y-29800D03*
G54D13*
X47400Y-26200D03*
G54D14*
X47400Y-27200D03*
X48400Y-26200D03*
X48400Y-27200D03*
X49400Y-26200D03*
X49400Y-27200D03*
G54D13*
X58800Y-26200D03*
G54D14*
X58800Y-27200D03*
X59800Y-26200D03*
X59800Y-27200D03*
X60800Y-26200D03*
X60800Y-27200D03*
G54D11*
X54950Y-28550D03*
G54D12*
X55950Y-28550D03*
X53450Y-28550D03*
X52450Y-28550D03*
X56500Y-36550D03*
X57500Y-36550D03*
X50972Y-36542D03*
X51972Y-36542D03*
G54D15*
X50986Y-41609D03*
G54D16*
X50986Y-43109D03*
G54D12*
X47800Y-42000D03*
X48800Y-42000D03*
G54D11*
X42600Y-26800D03*
G54D12*
X43600Y-26800D03*
X64400Y-34800D03*
X65400Y-34800D03*
X64400Y-35800D03*
X65400Y-35800D03*
X64400Y-36800D03*
X65400Y-36800D03*
X64450Y-37800D03*
X65450Y-37800D03*
X64400Y-38800D03*
X65400Y-38800D03*
X64400Y-39800D03*
X65400Y-39800D03*
X64400Y-40800D03*
X65400Y-40800D03*
X64400Y-41800D03*
X65400Y-41800D03*
X43700Y-30800D03*
X42700Y-30800D03*
X43700Y-31800D03*
X42700Y-31800D03*
X43700Y-32800D03*
X42700Y-32800D03*
X43700Y-33800D03*
X42700Y-33800D03*
X43700Y-34800D03*
X42700Y-34800D03*
X43700Y-35800D03*
X42700Y-35800D03*
X43700Y-36800D03*
X42700Y-36800D03*
X43700Y-37800D03*
X42700Y-37800D03*
X64400Y-26800D03*
X65400Y-26800D03*
X64400Y-27800D03*
X65400Y-27800D03*
X64400Y-28800D03*
X65400Y-28800D03*
X64400Y-29800D03*
X65400Y-29800D03*
X64400Y-30800D03*
X65400Y-30800D03*
X64400Y-31800D03*
X65400Y-31800D03*
X64400Y-32800D03*
X65400Y-32800D03*
X64400Y-33800D03*
X65400Y-33800D03*
X42600Y-28900D03*
X43600Y-28900D03*
X58650Y-41700D03*
X59650Y-41700D03*
G54D17*
X43924Y-24186D03*
X43924Y-44658D03*
X64397Y-24186D03*
X64397Y-44658D03*
G54D12*
X58650Y-43100D03*
X59650Y-43100D03*
G54D14*
X45080Y-26784D03*
X45080Y-27784D03*
X45080Y-28784D03*
X45080Y-29784D03*
X45080Y-30784D03*
X45080Y-31784D03*
X45080Y-32784D03*
X45080Y-34784D03*
X45080Y-35784D03*
X45080Y-36784D03*
X45080Y-37784D03*
X45080Y-38784D03*
X45080Y-39784D03*
X45080Y-40784D03*
X45080Y-41784D03*
X63100Y-26780D03*
X63100Y-27780D03*
X63100Y-28780D03*
X63100Y-29780D03*
X63100Y-30780D03*
X63100Y-31780D03*
X63100Y-32780D03*
X63100Y-33780D03*
X63100Y-34780D03*
X63100Y-35780D03*
X63100Y-36780D03*
X63100Y-37780D03*
X63100Y-38780D03*
X63100Y-39780D03*
X63100Y-40780D03*
G54D13*
X63100Y-41780D03*
G54D12*
X45080Y-33784D03*
G54D21*
X60823Y-32150D03*
X60823Y-31650D03*
X60823Y-31150D03*
X60823Y-30650D03*
X60823Y-30150D03*
X60823Y-29650D03*
X60823Y-29150D03*
X60823Y-28650D03*
X58777Y-28650D03*
X58777Y-29150D03*
X58777Y-29650D03*
X58777Y-30150D03*
X58777Y-30650D03*
X58777Y-31150D03*
X58777Y-31650D03*
X58777Y-32150D03*
X60823Y-40350D03*
X60823Y-39850D03*
X60823Y-39350D03*
X60823Y-38850D03*
X60823Y-38350D03*
X60823Y-37850D03*
X60823Y-37350D03*
X60823Y-36850D03*
X58777Y-36850D03*
X58777Y-37350D03*
X58777Y-37850D03*
X58777Y-38350D03*
X58777Y-38850D03*
X58777Y-39350D03*
X58777Y-39850D03*
X58777Y-40350D03*
X47327Y-28600D03*
X47327Y-29100D03*
X47327Y-29600D03*
X47327Y-30100D03*
X47327Y-30600D03*
X47327Y-31100D03*
X47327Y-31600D03*
X47327Y-32100D03*
X49373Y-32100D03*
X49373Y-31600D03*
X49373Y-31100D03*
X49373Y-30600D03*
X49373Y-30100D03*
X49373Y-29600D03*
X49373Y-29100D03*
X49373Y-28600D03*
X49373Y-40350D03*
X49373Y-39850D03*
X49373Y-39350D03*
X49373Y-38850D03*
X49373Y-38350D03*
X49373Y-37850D03*
X49373Y-37350D03*
X49373Y-36850D03*
X47327Y-36850D03*
X47327Y-37350D03*
X47327Y-37850D03*
X47327Y-38350D03*
X47327Y-38850D03*
X47327Y-39350D03*
X47327Y-39850D03*
X47327Y-40350D03*
G54D22*
X52304Y-35293D03*
X52304Y-34978D03*
X52304Y-34663D03*
X52304Y-34348D03*
X52304Y-34033D03*
X52304Y-33718D03*
X52304Y-33403D03*
X52304Y-33088D03*
X56070Y-33090D03*
X56070Y-35300D03*
X56070Y-34980D03*
X56070Y-34660D03*
X56070Y-34350D03*
X56070Y-34030D03*
X56070Y-33720D03*
X56070Y-33400D03*
G54D23*
X53088Y-32300D03*
X53402Y-32300D03*
X53718Y-32300D03*
X54032Y-32300D03*
X54348Y-32300D03*
X54662Y-32300D03*
X54978Y-32300D03*
X55292Y-32300D03*
X53090Y-36080D03*
X53400Y-36080D03*
X53720Y-36080D03*
X54030Y-36080D03*
X54340Y-36080D03*
X54660Y-36080D03*
X54980Y-36080D03*
X55300Y-36080D03*
G54D14*
X53550Y-25775D03*
X51000Y-25775D03*
X53550Y-27525D03*
X51000Y-27525D03*
X57400Y-25775D03*
X54850Y-25775D03*
X57400Y-27525D03*
X54850Y-27525D03*
G54D18*
X62006Y-35364D03*
X53990Y-33898D03*
X53427Y-33886D03*
X53061Y-33490D03*
X52953Y-38182D03*
X53063Y-36800D03*
X52754Y-37252D03*
X57690Y-41410D03*
X50748Y-29513D03*
X46402Y-37350D03*
X50242Y-28063D03*
X48397Y-32095D03*
X57000Y-34071D03*
X59423Y-36070D03*
X62004Y-33750D03*
X58415Y-33142D03*
X60671Y-27986D03*
X55382Y-31510D03*
X57635Y-26488D03*
X54459Y-30642D03*
X54366Y-31253D03*
X61983Y-34826D03*
X61995Y-34288D03*
X53327Y-26657D03*
X54856Y-35143D03*
X55943Y-30791D03*
X55706Y-35716D03*
X56621Y-35672D03*
X56061Y-36989D03*
X57903Y-29655D03*
X51878Y-31214D03*
X48578Y-37145D03*
X48599Y-37751D03*
X48588Y-38350D03*
X48274Y-38941D03*
X51284Y-39277D03*
X43195Y-40582D03*
X48555Y-30263D03*
X59525Y-30782D03*
X46195Y-34251D03*
X46164Y-34789D03*
X49796Y-25073D03*
X48307Y-39586D03*
X50938Y-34639D03*
X52301Y-35702D03*
X57609Y-38350D03*
X57894Y-30268D03*
X48594Y-31122D03*
X48335Y-29723D03*
X57812Y-35285D03*
X50176Y-38100D03*
X50065Y-35941D03*
X51579Y-32887D03*
X53828Y-37067D03*
G54D19*
X53718Y-32850D02*
X55498Y-32850D01*
X55498Y-32850D02*
X55588Y-32760D01*
X55588Y-32760D02*
X59865Y-32760D01*
X59865Y-32760D02*
X60046Y-32941D01*
X60046Y-32941D02*
X61897Y-32941D01*
X61897Y-32941D02*
X62386Y-33430D01*
X62386Y-33430D02*
X62386Y-34984D01*
X62386Y-34984D02*
X62006Y-35364D01*
X53700Y-29800D02*
X53718Y-29818D01*
X53718Y-29818D02*
X53718Y-32300D01*
X53718Y-32300D02*
X53718Y-32850D01*
X53402Y-31749D02*
X53402Y-30502D01*
X53402Y-30502D02*
X52700Y-29800D01*
X53402Y-32081D02*
X53402Y-32300D01*
X53402Y-32081D02*
X53402Y-31749D01*
X53088Y-32850D02*
X53363Y-32850D01*
X53363Y-32850D02*
X53989Y-33476D01*
X53989Y-33476D02*
X53989Y-33898D01*
X53989Y-33898D02*
X53990Y-33898D01*
X53088Y-32300D02*
X53088Y-32850D01*
X52304Y-33088D02*
X53278Y-33088D01*
X53278Y-33088D02*
X53452Y-33262D01*
X53452Y-33262D02*
X53452Y-33861D01*
X53452Y-33861D02*
X53427Y-33886D01*
X52855Y-33403D02*
X52942Y-33490D01*
X52942Y-33490D02*
X53061Y-33490D01*
X52304Y-33403D02*
X52855Y-33403D01*
X53090Y-36080D02*
X52372Y-36798D01*
X52372Y-36798D02*
X52372Y-37601D01*
X52372Y-37601D02*
X52953Y-38182D01*
X53400Y-36630D02*
X53230Y-36800D01*
X53230Y-36800D02*
X53063Y-36800D01*
X53400Y-36080D02*
X53400Y-36630D01*
X53720Y-36630D02*
X53720Y-36635D01*
X53720Y-36635D02*
X53446Y-36909D01*
X53446Y-36909D02*
X53446Y-37213D01*
X53446Y-37213D02*
X53407Y-37252D01*
X53407Y-37252D02*
X52754Y-37252D01*
X53720Y-36080D02*
X53720Y-36630D01*
G54D20*
X50033Y-31600D02*
X50033Y-32969D01*
X50033Y-32969D02*
X46667Y-36335D01*
X46667Y-36335D02*
X46667Y-37350D01*
X50033Y-28600D02*
X50242Y-28391D01*
X50242Y-28391D02*
X50242Y-28063D01*
X50033Y-31600D02*
X50748Y-30885D01*
X50748Y-30885D02*
X50748Y-29513D01*
X52872Y-34033D02*
X52927Y-34088D01*
X52927Y-34088D02*
X52927Y-34662D01*
X55450Y-34980D02*
X55132Y-34662D01*
X55132Y-34662D02*
X52927Y-34662D01*
G54D24*
X52304Y-34663D02*
X52872Y-34663D01*
X52927Y-34662D02*
X52872Y-34662D01*
X52872Y-34662D02*
X52872Y-34663D01*
G54D20*
X57690Y-41410D02*
X51737Y-41410D01*
X51737Y-41410D02*
X51538Y-41609D01*
X58117Y-40350D02*
X57690Y-40777D01*
X57690Y-40777D02*
X57690Y-41410D01*
X46667Y-37350D02*
X46402Y-37350D01*
G54D24*
X52304Y-34033D02*
X52872Y-34033D01*
G54D20*
X50986Y-41609D02*
X51538Y-41609D01*
X59650Y-41700D02*
X60147Y-41203D01*
X60147Y-41203D02*
X60147Y-38060D01*
X60147Y-38060D02*
X59437Y-37350D01*
X58777Y-32150D02*
X56662Y-32150D01*
X56662Y-32150D02*
X54701Y-30189D01*
X54701Y-30189D02*
X54700Y-30189D01*
X54700Y-30189D02*
X54700Y-29800D01*
X50700Y-23800D02*
X51594Y-24694D01*
X51594Y-24694D02*
X55141Y-24694D01*
X55141Y-24694D02*
X57387Y-26940D01*
X57387Y-26940D02*
X58540Y-26940D01*
X58540Y-26940D02*
X58800Y-27200D01*
X47327Y-40350D02*
X47987Y-40350D01*
X47800Y-42000D02*
X47800Y-40801D01*
X47800Y-40801D02*
X47987Y-40614D01*
X47987Y-40614D02*
X47987Y-40350D01*
X56070Y-34980D02*
X55450Y-34980D01*
X58777Y-29150D02*
X59437Y-29150D01*
X58800Y-27200D02*
X59437Y-27837D01*
X59437Y-27837D02*
X59437Y-29150D01*
X58777Y-37350D02*
X58117Y-37350D01*
X58777Y-37350D02*
X59437Y-37350D01*
X58777Y-40350D02*
X58117Y-40350D01*
X49373Y-31600D02*
X50033Y-31600D01*
X47327Y-37350D02*
X46667Y-37350D01*
X58117Y-37350D02*
X58117Y-36245D01*
X58117Y-36245D02*
X56852Y-34980D01*
X56852Y-34980D02*
X56070Y-34980D01*
X49373Y-28600D02*
X50033Y-28600D01*
X50972Y-36542D02*
X50972Y-35245D01*
X50972Y-35245D02*
X51390Y-34827D01*
X51390Y-34827D02*
X51390Y-34643D01*
X51390Y-34643D02*
X51685Y-34348D01*
X50033Y-36850D02*
X50664Y-36850D01*
X50664Y-36850D02*
X50972Y-36542D01*
X47987Y-32100D02*
X48392Y-32100D01*
X48392Y-32100D02*
X48397Y-32095D01*
X47327Y-32100D02*
X47987Y-32100D01*
X50986Y-43109D02*
X49909Y-43109D01*
X49909Y-43109D02*
X48800Y-42000D01*
G54D24*
X52304Y-34348D02*
X51685Y-34348D01*
X52304Y-33718D02*
X51737Y-33718D01*
G54D20*
X60163Y-36850D02*
X60163Y-36810D01*
X60163Y-36810D02*
X59423Y-36070D01*
X53550Y-27525D02*
X51000Y-27525D01*
X49373Y-36850D02*
X50033Y-36850D01*
X54850Y-25775D02*
X56700Y-27625D01*
X56700Y-27625D02*
X56700Y-29800D01*
X60800Y-27200D02*
X60163Y-27837D01*
X60163Y-27837D02*
X60163Y-28650D01*
X60823Y-28650D02*
X60163Y-28650D01*
X57000Y-34071D02*
X56964Y-34035D01*
X56964Y-34035D02*
X56693Y-34035D01*
G54D24*
X56693Y-34035D02*
X56643Y-34035D01*
X56643Y-34035D02*
X56638Y-34030D01*
X56070Y-34030D02*
X56638Y-34030D01*
G54D20*
X60823Y-36850D02*
X60163Y-36850D01*
X42600Y-28900D02*
X42600Y-28515D01*
X42600Y-28515D02*
X47315Y-23800D01*
X47315Y-23800D02*
X49700Y-23800D01*
G54D24*
X51683Y-33718D02*
X51737Y-33718D01*
G54D20*
X51683Y-33718D02*
X51683Y-34346D01*
X51683Y-34346D02*
X51685Y-34348D01*
G54D19*
X56070Y-33400D02*
X57193Y-33400D01*
X57193Y-33400D02*
X57543Y-33750D01*
X57543Y-33750D02*
X62004Y-33750D01*
X57700Y-23800D02*
X59642Y-25742D01*
X59642Y-25742D02*
X61242Y-25742D01*
X61242Y-25742D02*
X61282Y-25782D01*
X61282Y-25782D02*
X61282Y-27375D01*
X61282Y-27375D02*
X60671Y-27986D01*
X56621Y-33090D02*
X56673Y-33142D01*
X56673Y-33142D02*
X58415Y-33142D01*
X56070Y-33090D02*
X56621Y-33090D01*
X56700Y-23800D02*
X57132Y-23368D01*
X57132Y-23368D02*
X60911Y-23368D01*
X60911Y-23368D02*
X63604Y-26061D01*
X63604Y-26061D02*
X65284Y-26061D01*
X65284Y-26061D02*
X65841Y-26618D01*
X65841Y-26618D02*
X65841Y-34212D01*
X65841Y-34212D02*
X65803Y-34250D01*
X65803Y-34250D02*
X62921Y-34250D01*
X62921Y-34250D02*
X62613Y-33942D01*
X62613Y-33942D02*
X62613Y-33336D01*
X62613Y-33336D02*
X61991Y-32714D01*
X61991Y-32714D02*
X60140Y-32714D01*
X60140Y-32714D02*
X59959Y-32533D01*
X59959Y-32533D02*
X55525Y-32533D01*
X55525Y-32533D02*
X55292Y-32300D01*
X54978Y-31749D02*
X55143Y-31749D01*
X55143Y-31749D02*
X55382Y-31510D01*
X55700Y-23800D02*
X56561Y-24661D01*
X56561Y-24661D02*
X56949Y-24661D01*
X56949Y-24661D02*
X57858Y-25570D01*
X57858Y-25570D02*
X57858Y-26265D01*
X57858Y-26265D02*
X57635Y-26488D01*
X54978Y-32300D02*
X54978Y-31749D01*
X54459Y-30642D02*
X54749Y-30932D01*
X54749Y-30932D02*
X54749Y-31626D01*
X54749Y-31626D02*
X54662Y-31713D01*
X54662Y-31713D02*
X54662Y-32300D01*
X54348Y-31749D02*
X54348Y-31271D01*
X54348Y-31271D02*
X54366Y-31253D01*
X54348Y-32300D02*
X54348Y-31749D01*
X56621Y-34660D02*
X61817Y-34660D01*
X61817Y-34660D02*
X61983Y-34826D01*
X56070Y-34660D02*
X56621Y-34660D01*
X56621Y-33720D02*
X56652Y-33689D01*
X56652Y-33689D02*
X57159Y-33689D01*
X57159Y-33689D02*
X57758Y-34288D01*
X57758Y-34288D02*
X61995Y-34288D01*
X56070Y-33720D02*
X56621Y-33720D01*
X55365Y-38600D02*
X54856Y-39109D01*
X54856Y-39109D02*
X53019Y-39109D01*
X53019Y-39109D02*
X51527Y-37617D01*
X51527Y-37617D02*
X51527Y-35198D01*
X51527Y-35198D02*
X51747Y-34978D01*
X51747Y-34978D02*
X52304Y-34978D01*
X52304Y-35293D02*
X51754Y-35293D01*
X51754Y-35293D02*
X51754Y-36324D01*
X51754Y-36324D02*
X51972Y-36542D01*
X51972Y-36542D02*
X51972Y-37741D01*
X51972Y-37741D02*
X52831Y-38600D01*
X52831Y-38600D02*
X53435Y-38600D01*
X52450Y-28550D02*
X51700Y-29300D01*
X51700Y-29300D02*
X51700Y-29800D01*
X54980Y-36080D02*
X54980Y-35267D01*
X54980Y-35267D02*
X54856Y-35143D01*
X47857Y-26200D02*
X47857Y-26617D01*
X47857Y-26617D02*
X47897Y-26657D01*
X47897Y-26657D02*
X53327Y-26657D01*
X47400Y-26200D02*
X47857Y-26200D01*
X58187Y-31150D02*
X56302Y-31150D01*
X56302Y-31150D02*
X55943Y-30791D01*
X58777Y-31150D02*
X58187Y-31150D01*
X55300Y-35529D02*
X55519Y-35529D01*
X55519Y-35529D02*
X55706Y-35716D01*
X55300Y-36080D02*
X55300Y-35529D01*
X58800Y-26200D02*
X58800Y-25743D01*
X58800Y-25743D02*
X57410Y-24353D01*
X57410Y-24353D02*
X56641Y-24353D01*
X56641Y-24353D02*
X56136Y-23848D01*
X56136Y-23848D02*
X56136Y-23435D01*
X56136Y-23435D02*
X56034Y-23333D01*
X56034Y-23333D02*
X50314Y-23333D01*
X50314Y-23333D02*
X50240Y-23407D01*
X50240Y-23407D02*
X50240Y-24073D01*
X50240Y-24073D02*
X48400Y-25913D01*
X48400Y-25913D02*
X48400Y-26200D01*
X56070Y-35300D02*
X56621Y-35300D01*
X56621Y-35300D02*
X56621Y-35672D01*
X47917Y-37850D02*
X47917Y-36917D01*
X47917Y-36917D02*
X48511Y-36323D01*
X48511Y-36323D02*
X50224Y-36323D01*
X50224Y-36323D02*
X50447Y-36100D01*
X50447Y-36100D02*
X50447Y-32645D01*
X50447Y-32645D02*
X51878Y-31214D01*
X49963Y-31100D02*
X49963Y-29103D01*
X49963Y-29103D02*
X50890Y-28176D01*
X50890Y-28176D02*
X50890Y-28120D01*
X50890Y-28120D02*
X49970Y-27200D01*
X49970Y-27200D02*
X49400Y-27200D01*
X58777Y-37850D02*
X56922Y-37850D01*
X56922Y-37850D02*
X56061Y-36989D01*
X57903Y-29655D02*
X58182Y-29655D01*
X58182Y-29655D02*
X58187Y-29650D01*
X58777Y-29650D02*
X58187Y-29650D01*
X47327Y-37850D02*
X47917Y-37850D01*
X49373Y-31100D02*
X49963Y-31100D01*
X55950Y-28550D02*
X55214Y-29286D01*
X55214Y-29286D02*
X54385Y-29286D01*
X54385Y-29286D02*
X54168Y-29503D01*
X54168Y-29503D02*
X54168Y-30081D01*
X54168Y-30081D02*
X53984Y-30265D01*
X53984Y-30265D02*
X53984Y-31701D01*
X53984Y-31701D02*
X54032Y-31749D01*
X54032Y-32300D02*
X54032Y-31749D01*
X51000Y-25775D02*
X53550Y-25775D01*
X53550Y-25775D02*
X53750Y-25775D01*
X53750Y-25775D02*
X55950Y-27975D01*
X55950Y-27975D02*
X55950Y-28550D01*
X54950Y-28550D02*
X54518Y-28550D01*
X53450Y-28550D02*
X54518Y-28550D01*
X63100Y-34780D02*
X64380Y-34780D01*
X64380Y-34780D02*
X64400Y-34800D01*
X61413Y-37350D02*
X61413Y-36819D01*
X61413Y-36819D02*
X62932Y-35300D01*
X62932Y-35300D02*
X64900Y-35300D01*
X64900Y-35300D02*
X65400Y-34800D01*
X60823Y-37350D02*
X61413Y-37350D01*
X63100Y-35780D02*
X64380Y-35780D01*
X64380Y-35780D02*
X64400Y-35800D01*
X60823Y-37850D02*
X61413Y-37850D01*
X61413Y-37850D02*
X61413Y-37819D01*
X61413Y-37819D02*
X62932Y-36300D01*
X62932Y-36300D02*
X64900Y-36300D01*
X64900Y-36300D02*
X65400Y-35800D01*
X63100Y-36780D02*
X64380Y-36780D01*
X64380Y-36780D02*
X64400Y-36800D01*
X60823Y-38350D02*
X61413Y-38350D01*
X65400Y-36800D02*
X64877Y-37323D01*
X64877Y-37323D02*
X62440Y-37323D01*
X62440Y-37323D02*
X61413Y-38350D01*
X63100Y-37780D02*
X64430Y-37780D01*
X64430Y-37780D02*
X64450Y-37800D01*
X60823Y-38850D02*
X61694Y-38850D01*
X61694Y-38850D02*
X62221Y-38323D01*
X62221Y-38323D02*
X64927Y-38323D01*
X64927Y-38323D02*
X65450Y-37800D01*
X60823Y-39350D02*
X61413Y-39350D01*
X61413Y-39350D02*
X61463Y-39300D01*
X61463Y-39300D02*
X64900Y-39300D01*
X64900Y-39300D02*
X65400Y-38800D01*
X60823Y-39850D02*
X61413Y-39850D01*
X61413Y-39850D02*
X61863Y-40300D01*
X61863Y-40300D02*
X64900Y-40300D01*
X64900Y-40300D02*
X65400Y-39800D01*
X63100Y-40780D02*
X64380Y-40780D01*
X64380Y-40780D02*
X64400Y-40800D01*
X61413Y-40350D02*
X62363Y-41300D01*
X62363Y-41300D02*
X64900Y-41300D01*
X64900Y-41300D02*
X65400Y-40800D01*
X60823Y-40350D02*
X61413Y-40350D01*
X63100Y-41780D02*
X64380Y-41780D01*
X64380Y-41780D02*
X64400Y-41800D01*
X65400Y-41800D02*
X64601Y-42599D01*
X64601Y-42599D02*
X61788Y-42599D01*
X61788Y-42599D02*
X60817Y-43570D01*
X60817Y-43570D02*
X58267Y-43570D01*
X58267Y-43570D02*
X58216Y-43519D01*
X58216Y-43519D02*
X58216Y-41514D01*
X58216Y-41514D02*
X59093Y-40637D01*
X59093Y-40637D02*
X59327Y-40637D01*
X59327Y-40637D02*
X59367Y-40597D01*
X59367Y-40597D02*
X59367Y-39850D01*
X58777Y-39850D02*
X59367Y-39850D01*
X45080Y-30784D02*
X43716Y-30784D01*
X43716Y-30784D02*
X43700Y-30800D01*
X48783Y-37350D02*
X48578Y-37145D01*
X49373Y-37350D02*
X48783Y-37350D01*
X45080Y-31784D02*
X43716Y-31784D01*
X43716Y-31784D02*
X43700Y-31800D01*
X49373Y-37850D02*
X48698Y-37850D01*
X48698Y-37850D02*
X48599Y-37751D01*
X45080Y-32784D02*
X43716Y-32784D01*
X43716Y-32784D02*
X43700Y-32800D01*
X49373Y-38350D02*
X48588Y-38350D01*
X45080Y-33784D02*
X43716Y-33784D01*
X43716Y-33784D02*
X43700Y-33800D01*
X49373Y-38850D02*
X48783Y-38850D01*
X48783Y-38850D02*
X48692Y-38941D01*
X48692Y-38941D02*
X48274Y-38941D01*
X45080Y-34784D02*
X43716Y-34784D01*
X43716Y-34784D02*
X43700Y-34800D01*
X49373Y-39350D02*
X51211Y-39350D01*
X51211Y-39350D02*
X51284Y-39277D01*
X45080Y-35784D02*
X43716Y-35784D01*
X43716Y-35784D02*
X43700Y-35800D01*
X49963Y-39850D02*
X49963Y-41708D01*
X49963Y-41708D02*
X50856Y-42601D01*
X50856Y-42601D02*
X51366Y-42601D01*
X51366Y-42601D02*
X51478Y-42713D01*
X51478Y-42713D02*
X51478Y-43409D01*
X51478Y-43409D02*
X51288Y-43599D01*
X51288Y-43599D02*
X46212Y-43599D01*
X46212Y-43599D02*
X43195Y-40582D01*
X49373Y-39850D02*
X49963Y-39850D01*
X45080Y-36784D02*
X43716Y-36784D01*
X43716Y-36784D02*
X43700Y-36800D01*
X48783Y-40350D02*
X48232Y-40901D01*
X48232Y-40901D02*
X48232Y-42207D01*
X48232Y-42207D02*
X47996Y-42443D01*
X47996Y-42443D02*
X46905Y-42443D01*
X46905Y-42443D02*
X45746Y-41284D01*
X45746Y-41284D02*
X44925Y-41284D01*
X44925Y-41284D02*
X42261Y-38620D01*
X42261Y-38620D02*
X42261Y-37239D01*
X42261Y-37239D02*
X42700Y-36800D01*
X49373Y-40350D02*
X48783Y-40350D01*
X45080Y-37784D02*
X43716Y-37784D01*
X43716Y-37784D02*
X43700Y-37800D01*
X47327Y-39850D02*
X45700Y-39850D01*
X45700Y-39850D02*
X45306Y-40244D01*
X45306Y-40244D02*
X44755Y-40244D01*
X44755Y-40244D02*
X42700Y-38189D01*
X42700Y-38189D02*
X42700Y-37800D01*
X63100Y-26780D02*
X63120Y-26800D01*
X63120Y-26800D02*
X64400Y-26800D01*
X60823Y-29150D02*
X61411Y-29150D01*
X61411Y-29150D02*
X61506Y-29055D01*
X61506Y-29055D02*
X61506Y-27596D01*
X61506Y-27596D02*
X62785Y-26317D01*
X62785Y-26317D02*
X64917Y-26317D01*
X64917Y-26317D02*
X65400Y-26800D01*
X63100Y-27780D02*
X64380Y-27780D01*
X64380Y-27780D02*
X64400Y-27800D01*
X61413Y-29650D02*
X61789Y-29274D01*
X61789Y-29274D02*
X61789Y-28350D01*
X61789Y-28350D02*
X62816Y-27323D01*
X62816Y-27323D02*
X64923Y-27323D01*
X64923Y-27323D02*
X65400Y-27800D01*
X60823Y-29650D02*
X61413Y-29650D01*
X63100Y-28780D02*
X63120Y-28800D01*
X63120Y-28800D02*
X64400Y-28800D01*
X61413Y-30150D02*
X62152Y-29411D01*
X62152Y-29411D02*
X62152Y-29076D01*
X62152Y-29076D02*
X62945Y-28283D01*
X62945Y-28283D02*
X64883Y-28283D01*
X64883Y-28283D02*
X65400Y-28800D01*
X60823Y-30150D02*
X61413Y-30150D01*
X63100Y-29780D02*
X63120Y-29800D01*
X63120Y-29800D02*
X64400Y-29800D01*
X60823Y-30650D02*
X61413Y-30650D01*
X65400Y-29800D02*
X64923Y-29323D01*
X64923Y-29323D02*
X62740Y-29323D01*
X62740Y-29323D02*
X61413Y-30650D01*
X63100Y-30780D02*
X63120Y-30800D01*
X63120Y-30800D02*
X64400Y-30800D01*
X60823Y-31150D02*
X61413Y-31150D01*
X65400Y-30800D02*
X64923Y-30323D01*
X64923Y-30323D02*
X62240Y-30323D01*
X62240Y-30323D02*
X61413Y-31150D01*
X63100Y-31780D02*
X64380Y-31780D01*
X64380Y-31780D02*
X64400Y-31800D01*
X60823Y-31650D02*
X62398Y-31650D01*
X62398Y-31650D02*
X62725Y-31323D01*
X62725Y-31323D02*
X64923Y-31323D01*
X64923Y-31323D02*
X65400Y-31800D01*
X63100Y-32780D02*
X64380Y-32780D01*
X64380Y-32780D02*
X64400Y-32800D01*
X65400Y-32800D02*
X64860Y-32260D01*
X64860Y-32260D02*
X61523Y-32260D01*
X61523Y-32260D02*
X61413Y-32150D01*
X60823Y-32150D02*
X61413Y-32150D01*
X63100Y-33780D02*
X64380Y-33780D01*
X64380Y-33780D02*
X64400Y-33800D01*
X65400Y-33800D02*
X64843Y-33243D01*
X64843Y-33243D02*
X62841Y-33243D01*
X62841Y-33243D02*
X62085Y-32487D01*
X62085Y-32487D02*
X60234Y-32487D01*
X60234Y-32487D02*
X59397Y-31650D01*
X59397Y-31650D02*
X59367Y-31650D01*
X58777Y-31650D02*
X59367Y-31650D01*
X47327Y-38850D02*
X46388Y-38850D01*
X46388Y-38850D02*
X46020Y-38482D01*
X46020Y-38482D02*
X46020Y-36114D01*
X46020Y-36114D02*
X48779Y-33355D01*
X48779Y-33355D02*
X48779Y-31864D01*
X48779Y-31864D02*
X48203Y-31288D01*
X48203Y-31288D02*
X48203Y-30615D01*
X48203Y-30615D02*
X48555Y-30263D01*
X54340Y-36630D02*
X54340Y-36689D01*
X54340Y-36689D02*
X56501Y-38850D01*
X56501Y-38850D02*
X58187Y-38850D01*
X59650Y-43100D02*
X59205Y-42655D01*
X59205Y-42655D02*
X59205Y-41533D01*
X59205Y-41533D02*
X59842Y-40896D01*
X59842Y-40896D02*
X59842Y-39325D01*
X59842Y-39325D02*
X59367Y-38850D01*
X58777Y-38850D02*
X59367Y-38850D01*
X54340Y-36080D02*
X54340Y-36630D01*
X58777Y-38850D02*
X58187Y-38850D01*
X49373Y-30100D02*
X48718Y-30100D01*
X48718Y-30100D02*
X48555Y-30263D01*
X59525Y-30782D02*
X59499Y-30782D01*
X59499Y-30782D02*
X59367Y-30650D01*
X58777Y-30650D02*
X59367Y-30650D01*
X49373Y-29100D02*
X48783Y-29100D01*
X48783Y-29100D02*
X47561Y-27878D01*
X47561Y-27878D02*
X46174Y-27878D01*
X46174Y-27878D02*
X45080Y-26784D01*
X45080Y-27784D02*
X45896Y-28600D01*
X45896Y-28600D02*
X46737Y-28600D01*
X47327Y-28600D02*
X46737Y-28600D01*
X47327Y-29100D02*
X45396Y-29100D01*
X45396Y-29100D02*
X45080Y-28784D01*
X46737Y-29600D02*
X46553Y-29784D01*
X46553Y-29784D02*
X45080Y-29784D01*
X47327Y-29600D02*
X46737Y-29600D01*
X46737Y-30100D02*
X45548Y-31289D01*
X45548Y-31289D02*
X45548Y-38316D01*
X45548Y-38316D02*
X45080Y-38784D01*
X47327Y-30100D02*
X46737Y-30100D01*
X46737Y-30600D02*
X45782Y-31555D01*
X45782Y-31555D02*
X45782Y-39082D01*
X45782Y-39082D02*
X45080Y-39784D01*
X47327Y-30600D02*
X46737Y-30600D01*
X46737Y-31100D02*
X46195Y-31642D01*
X46195Y-31642D02*
X46195Y-34251D01*
X47327Y-31100D02*
X46737Y-31100D01*
X46737Y-31600D02*
X46737Y-34284D01*
X46737Y-34284D02*
X46232Y-34789D01*
X46232Y-34789D02*
X46164Y-34789D01*
X47327Y-31600D02*
X46737Y-31600D01*
X58777Y-28650D02*
X58060Y-28650D01*
X58060Y-28650D02*
X57385Y-29325D01*
X57385Y-29325D02*
X57385Y-29914D01*
X57385Y-29914D02*
X56723Y-30576D01*
X56723Y-30576D02*
X56667Y-30576D01*
X56667Y-30576D02*
X56267Y-30176D01*
X56267Y-30176D02*
X56267Y-29437D01*
X56267Y-29437D02*
X56383Y-29321D01*
X56383Y-29321D02*
X56383Y-27954D01*
X56383Y-27954D02*
X53502Y-25073D01*
X53502Y-25073D02*
X49796Y-25073D01*
X47327Y-39350D02*
X48071Y-39350D01*
X48071Y-39350D02*
X48307Y-39586D01*
X47917Y-38350D02*
X48145Y-38122D01*
X48145Y-38122D02*
X48145Y-37027D01*
X48145Y-37027D02*
X48622Y-36550D01*
X48622Y-36550D02*
X50318Y-36550D01*
X50318Y-36550D02*
X50674Y-36194D01*
X50674Y-36194D02*
X50674Y-34903D01*
X50674Y-34903D02*
X50938Y-34639D01*
X54660Y-36080D02*
X54660Y-36688D01*
X54660Y-36688D02*
X56322Y-38350D01*
X56322Y-38350D02*
X57609Y-38350D01*
X54660Y-35529D02*
X52824Y-35529D01*
X52824Y-35529D02*
X52651Y-35702D01*
X52651Y-35702D02*
X52301Y-35702D01*
X58187Y-30150D02*
X58012Y-30150D01*
X58012Y-30150D02*
X57894Y-30268D01*
X57609Y-38350D02*
X58187Y-38350D01*
X58777Y-38350D02*
X58187Y-38350D01*
X47327Y-38350D02*
X47917Y-38350D01*
X54660Y-35804D02*
X54660Y-35529D01*
X54660Y-35804D02*
X54660Y-36080D01*
X58777Y-30150D02*
X58187Y-30150D01*
X48594Y-31122D02*
X48594Y-30789D01*
X48594Y-30789D02*
X48783Y-30600D01*
X49373Y-30600D02*
X48783Y-30600D01*
X49373Y-29600D02*
X48458Y-29600D01*
X48458Y-29600D02*
X48335Y-29723D01*
X58777Y-36850D02*
X58777Y-36250D01*
X58777Y-36250D02*
X57812Y-35285D01*
X47327Y-36850D02*
X48236Y-35941D01*
X48236Y-35941D02*
X50065Y-35941D01*
X50176Y-38100D02*
X50913Y-38100D01*
X50913Y-38100D02*
X52163Y-39350D01*
X52163Y-39350D02*
X58777Y-39350D01*
X54030Y-36630D02*
X54030Y-36865D01*
X54030Y-36865D02*
X53828Y-37067D01*
X54850Y-27525D02*
X54288Y-28087D01*
X54288Y-28087D02*
X53030Y-28087D01*
X53030Y-28087D02*
X52990Y-28127D01*
X52990Y-28127D02*
X52990Y-28828D01*
X52990Y-28828D02*
X52261Y-29557D01*
X52261Y-29557D02*
X52261Y-32205D01*
X52261Y-32205D02*
X51579Y-32887D01*
X54030Y-36080D02*
X54030Y-36630D01*
M02*
