G04 (Genere par PCBnew (20080825)) le 8/6/2009-03:58:39*
G01*
G70*
G90*
%MOIN*%
G04 Gerber Fmt 3.4, Leading zero omitted, Abs format*
%FSLAX34Y34*%
G04 APERTURE LIST*
%ADD10C,0.015000*%
%ADD11R,0.055000X0.055000*%
%ADD12C,0.055000*%
%ADD13R,0.060000X0.060000*%
%ADD14C,0.060000*%
%ADD15R,0.065000X0.065000*%
%ADD16C,0.065000*%
%ADD17C,0.160000*%
%ADD18C,0.045000*%
%ADD19C,0.014000*%
%ADD20C,0.028000*%
G04 APERTURE END LIST*
G54D10*
X41700Y-21900D02*
X66450Y-21900D01*
X41700Y-46650D02*
X41700Y-21900D01*
X66450Y-46650D02*
X41700Y-46650D01*
X66450Y-21900D02*
X66450Y-46650D01*
G54D11*
X58700Y-44800D03*
G54D12*
X57700Y-44800D03*
X56700Y-44800D03*
X55700Y-44800D03*
X54700Y-44800D03*
X53700Y-44800D03*
X52700Y-44800D03*
X51700Y-44800D03*
X50700Y-44800D03*
X49700Y-44800D03*
G54D11*
X58700Y-23800D03*
G54D12*
X57700Y-23800D03*
X56700Y-23800D03*
X55700Y-23800D03*
X54700Y-23800D03*
X53700Y-23800D03*
X52700Y-23800D03*
X51700Y-23800D03*
X50700Y-23800D03*
X49700Y-23800D03*
X55365Y-38600D03*
X53435Y-38600D03*
G54D11*
X56700Y-29800D03*
G54D12*
X55700Y-29800D03*
X54700Y-29800D03*
X53700Y-29800D03*
X52700Y-29800D03*
X51700Y-29800D03*
G54D13*
X47400Y-26200D03*
G54D14*
X47400Y-27200D03*
X48400Y-26200D03*
X48400Y-27200D03*
X49400Y-26200D03*
X49400Y-27200D03*
G54D13*
X58800Y-26200D03*
G54D14*
X58800Y-27200D03*
X59800Y-26200D03*
X59800Y-27200D03*
X60800Y-26200D03*
X60800Y-27200D03*
G54D11*
X54950Y-28550D03*
G54D12*
X55950Y-28550D03*
X53450Y-28550D03*
X52450Y-28550D03*
X56500Y-36550D03*
X57500Y-36550D03*
X50972Y-36542D03*
X51972Y-36542D03*
G54D15*
X50986Y-41609D03*
G54D16*
X50986Y-43109D03*
G54D12*
X47800Y-42000D03*
X48800Y-42000D03*
G54D11*
X42600Y-26800D03*
G54D12*
X43600Y-26800D03*
X64400Y-34800D03*
X65400Y-34800D03*
X64400Y-35800D03*
X65400Y-35800D03*
X64400Y-36800D03*
X65400Y-36800D03*
X64450Y-37800D03*
X65450Y-37800D03*
X64400Y-38800D03*
X65400Y-38800D03*
X64400Y-39800D03*
X65400Y-39800D03*
X64400Y-40800D03*
X65400Y-40800D03*
X64400Y-41800D03*
X65400Y-41800D03*
X43700Y-30800D03*
X42700Y-30800D03*
X43700Y-31800D03*
X42700Y-31800D03*
X43700Y-32800D03*
X42700Y-32800D03*
X43700Y-33800D03*
X42700Y-33800D03*
X43700Y-34800D03*
X42700Y-34800D03*
X43700Y-35800D03*
X42700Y-35800D03*
X43700Y-36800D03*
X42700Y-36800D03*
X43700Y-37800D03*
X42700Y-37800D03*
X64400Y-26800D03*
X65400Y-26800D03*
X64400Y-27800D03*
X65400Y-27800D03*
X64400Y-28800D03*
X65400Y-28800D03*
X64400Y-29800D03*
X65400Y-29800D03*
X64400Y-30800D03*
X65400Y-30800D03*
X64400Y-31800D03*
X65400Y-31800D03*
X64400Y-32800D03*
X65400Y-32800D03*
X64400Y-33800D03*
X65400Y-33800D03*
X42600Y-28900D03*
X43600Y-28900D03*
X58650Y-41700D03*
X59650Y-41700D03*
G54D17*
X43924Y-24186D03*
X43924Y-44658D03*
X64397Y-24186D03*
X64397Y-44658D03*
G54D12*
X58650Y-43100D03*
X59650Y-43100D03*
G54D14*
X45080Y-26784D03*
X45080Y-27784D03*
X45080Y-28784D03*
X45080Y-29784D03*
X45080Y-30784D03*
X45080Y-31784D03*
X45080Y-32784D03*
X45080Y-34784D03*
X45080Y-35784D03*
X45080Y-36784D03*
X45080Y-37784D03*
X45080Y-38784D03*
X45080Y-39784D03*
X45080Y-40784D03*
X45080Y-41784D03*
X63100Y-26780D03*
X63100Y-27780D03*
X63100Y-28780D03*
X63100Y-29780D03*
X63100Y-30780D03*
X63100Y-31780D03*
X63100Y-32780D03*
X63100Y-33780D03*
X63100Y-34780D03*
X63100Y-35780D03*
X63100Y-36780D03*
X63100Y-37780D03*
X63100Y-38780D03*
X63100Y-39780D03*
X63100Y-40780D03*
G54D13*
X63100Y-41780D03*
G54D12*
X45080Y-33784D03*
G54D14*
X53550Y-25775D03*
X51000Y-25775D03*
X53550Y-27525D03*
X51000Y-27525D03*
X57400Y-25775D03*
X54850Y-25775D03*
X57400Y-27525D03*
X54850Y-27525D03*
G54D18*
X62006Y-35364D03*
X53990Y-33898D03*
X53427Y-33886D03*
X53061Y-33490D03*
X52953Y-38182D03*
X53063Y-36800D03*
X52754Y-37252D03*
X57690Y-41410D03*
X50748Y-29513D03*
X46402Y-37350D03*
X50242Y-28063D03*
X48397Y-32095D03*
X57000Y-34071D03*
X59423Y-36070D03*
X62004Y-33750D03*
X58415Y-33142D03*
X60671Y-27986D03*
X55382Y-31510D03*
X57635Y-26488D03*
X54459Y-30642D03*
X54366Y-31253D03*
X61983Y-34826D03*
X61995Y-34288D03*
X53327Y-26657D03*
X54856Y-35143D03*
X55943Y-30791D03*
X55706Y-35716D03*
X56621Y-35672D03*
X56061Y-36989D03*
X57903Y-29655D03*
X51878Y-31214D03*
X48578Y-37145D03*
X48599Y-37751D03*
X48588Y-38350D03*
X48274Y-38941D03*
X51284Y-39277D03*
X43195Y-40582D03*
X48555Y-30263D03*
X59525Y-30782D03*
X46195Y-34251D03*
X46164Y-34789D03*
X49796Y-25073D03*
X48307Y-39586D03*
X50938Y-34639D03*
X52301Y-35702D03*
X57609Y-38350D03*
X57894Y-30268D03*
X48594Y-31122D03*
X48335Y-29723D03*
X57812Y-35285D03*
X50176Y-38100D03*
X50065Y-35941D03*
X51579Y-32887D03*
X53828Y-37067D03*
G54D19*
X58700Y-44800D02*
X59605Y-44800D01*
X59605Y-44800D02*
X62006Y-42399D01*
X62006Y-42399D02*
X62006Y-35364D01*
X52700Y-29800D02*
X52001Y-29101D01*
X52001Y-29101D02*
X52001Y-28308D01*
X52001Y-28308D02*
X52255Y-28054D01*
X52255Y-28054D02*
X52255Y-25196D01*
X52255Y-25196D02*
X53200Y-24251D01*
X53200Y-24251D02*
X53200Y-23623D01*
X53200Y-23623D02*
X53485Y-23338D01*
X53485Y-23338D02*
X55093Y-23338D01*
X55093Y-23338D02*
X55133Y-23378D01*
X55133Y-23378D02*
X55133Y-24053D01*
X55133Y-24053D02*
X55702Y-24622D01*
X55702Y-24622D02*
X59892Y-24622D01*
X59892Y-24622D02*
X61493Y-26223D01*
X61493Y-26223D02*
X61493Y-32049D01*
X61493Y-32049D02*
X60547Y-32995D01*
X60547Y-32995D02*
X60547Y-43534D01*
X60547Y-43534D02*
X59715Y-44366D01*
X59715Y-44366D02*
X58133Y-44366D01*
X58133Y-44366D02*
X58133Y-44367D01*
X58133Y-44367D02*
X57700Y-44800D01*
X56700Y-44800D02*
X54475Y-42575D01*
X54475Y-42575D02*
X54475Y-37808D01*
X54475Y-37808D02*
X54665Y-37618D01*
X54665Y-37618D02*
X54665Y-36300D01*
X54665Y-36300D02*
X53854Y-35489D01*
X53854Y-35489D02*
X53854Y-34034D01*
X53854Y-34034D02*
X53990Y-33898D01*
X55700Y-44800D02*
X54248Y-43348D01*
X54248Y-43348D02*
X54248Y-37714D01*
X54248Y-37714D02*
X54438Y-37524D01*
X54438Y-37524D02*
X54438Y-36493D01*
X54438Y-36493D02*
X53427Y-35482D01*
X53427Y-35482D02*
X53427Y-33886D01*
X53061Y-33490D02*
X53045Y-33506D01*
X53045Y-33506D02*
X53045Y-35422D01*
X53045Y-35422D02*
X54211Y-36588D01*
X54211Y-36588D02*
X54211Y-37430D01*
X54211Y-37430D02*
X54021Y-37620D01*
X54021Y-37620D02*
X54021Y-44121D01*
X54021Y-44121D02*
X54700Y-44800D01*
X42600Y-26800D02*
X43032Y-26800D01*
X43032Y-26800D02*
X43032Y-26408D01*
X43032Y-26408D02*
X43072Y-26368D01*
X43072Y-26368D02*
X43813Y-26368D01*
X43813Y-26368D02*
X44396Y-26951D01*
X44396Y-26951D02*
X44396Y-27746D01*
X44396Y-27746D02*
X44891Y-28241D01*
X44891Y-28241D02*
X45814Y-28241D01*
X45814Y-28241D02*
X48218Y-30645D01*
X48218Y-30645D02*
X48682Y-30645D01*
X48682Y-30645D02*
X50541Y-32504D01*
X50541Y-32504D02*
X52075Y-32504D01*
X52075Y-32504D02*
X53061Y-33490D01*
X52953Y-38182D02*
X52953Y-44053D01*
X52953Y-44053D02*
X53700Y-44800D01*
X52700Y-44800D02*
X52571Y-44671D01*
X52571Y-44671D02*
X52571Y-38024D01*
X52571Y-38024D02*
X53193Y-37402D01*
X53193Y-37402D02*
X53193Y-36930D01*
X53193Y-36930D02*
X53063Y-36800D01*
X51700Y-44800D02*
X52344Y-44156D01*
X52344Y-44156D02*
X52344Y-37662D01*
X52344Y-37662D02*
X52754Y-37252D01*
G54D20*
X50787Y-28607D02*
X51894Y-27500D01*
X51894Y-27500D02*
X51894Y-24994D01*
X51894Y-24994D02*
X50700Y-23800D01*
X50748Y-29513D02*
X50748Y-28646D01*
X50748Y-28646D02*
X50787Y-28607D01*
X50787Y-28607D02*
X50242Y-28063D01*
X50748Y-29513D02*
X50748Y-29558D01*
X50748Y-29558D02*
X51492Y-30302D01*
X51492Y-30302D02*
X52776Y-30302D01*
X52776Y-30302D02*
X54179Y-31705D01*
X54179Y-31705D02*
X54642Y-31705D01*
X54642Y-31705D02*
X54929Y-31418D01*
X54929Y-31418D02*
X54929Y-30029D01*
X54929Y-30029D02*
X54700Y-29800D01*
X59650Y-41700D02*
X59128Y-41178D01*
X59128Y-41178D02*
X57922Y-41178D01*
X57922Y-41178D02*
X57690Y-41410D01*
X48324Y-41476D02*
X46402Y-39554D01*
X46402Y-39554D02*
X46402Y-37350D01*
X58650Y-43100D02*
X59387Y-43837D01*
X59387Y-43837D02*
X59820Y-43837D01*
X59820Y-43837D02*
X60187Y-43470D01*
X60187Y-43470D02*
X60187Y-42237D01*
X60187Y-42237D02*
X59650Y-41700D01*
X50434Y-41609D02*
X50301Y-41476D01*
X50301Y-41476D02*
X48324Y-41476D01*
X48324Y-41476D02*
X47800Y-42000D01*
X50986Y-41609D02*
X50526Y-41609D01*
X50526Y-41609D02*
X50434Y-41609D01*
X50434Y-41609D02*
X50434Y-44534D01*
X50434Y-44534D02*
X50700Y-44800D01*
X50972Y-36542D02*
X50972Y-36208D01*
X50972Y-36208D02*
X48397Y-33633D01*
X48397Y-33633D02*
X48397Y-32095D01*
X50986Y-43109D02*
X51736Y-42359D01*
X51736Y-42359D02*
X51736Y-37306D01*
X51736Y-37306D02*
X50972Y-36542D01*
X42600Y-28900D02*
X42197Y-29303D01*
X42197Y-29303D02*
X42197Y-40223D01*
X42197Y-40223D02*
X44507Y-42533D01*
X44507Y-42533D02*
X48641Y-42533D01*
X51000Y-27525D02*
X50392Y-26917D01*
X50392Y-26917D02*
X50392Y-24492D01*
X50392Y-24492D02*
X49700Y-23800D01*
X59579Y-29009D02*
X59979Y-29409D01*
X59979Y-29409D02*
X59979Y-31006D01*
X59979Y-31006D02*
X58295Y-32690D01*
X58295Y-32690D02*
X58228Y-32690D01*
X58228Y-32690D02*
X57963Y-32955D01*
X57963Y-32955D02*
X57963Y-33329D01*
X57963Y-33329D02*
X59423Y-34789D01*
X59423Y-34789D02*
X59423Y-36070D01*
X57046Y-29800D02*
X56915Y-29931D01*
X56915Y-29931D02*
X56915Y-33986D01*
X56915Y-33986D02*
X57000Y-34071D01*
X56500Y-36550D02*
X56500Y-36473D01*
X56500Y-36473D02*
X57074Y-35899D01*
X57074Y-35899D02*
X57074Y-34145D01*
X57074Y-34145D02*
X57000Y-34071D01*
X57046Y-29800D02*
X57837Y-29009D01*
X57837Y-29009D02*
X59579Y-29009D01*
X48800Y-42000D02*
X48641Y-42159D01*
X48641Y-42159D02*
X48641Y-42533D01*
X48641Y-42533D02*
X48641Y-43741D01*
X48641Y-43741D02*
X49700Y-44800D01*
X56700Y-29800D02*
X57046Y-29800D01*
X54850Y-25775D02*
X57400Y-25775D01*
X54850Y-25775D02*
X54850Y-26225D01*
X54850Y-26225D02*
X53550Y-27525D01*
X60800Y-27200D02*
X59579Y-28421D01*
X59579Y-28421D02*
X59579Y-29009D01*
G54D19*
X58700Y-23800D02*
X59875Y-23800D01*
X59875Y-23800D02*
X62004Y-25929D01*
X62004Y-25929D02*
X62004Y-33750D01*
X58415Y-33142D02*
X60671Y-30886D01*
X60671Y-30886D02*
X60671Y-27986D01*
X57635Y-26488D02*
X57858Y-26711D01*
X57858Y-26711D02*
X57858Y-27753D01*
X57858Y-27753D02*
X57619Y-27992D01*
X57619Y-27992D02*
X57134Y-27992D01*
X57134Y-27992D02*
X55759Y-29367D01*
X55759Y-29367D02*
X55295Y-29367D01*
X55295Y-29367D02*
X55255Y-29407D01*
X55255Y-29407D02*
X55255Y-31383D01*
X55255Y-31383D02*
X55382Y-31510D01*
X54700Y-23800D02*
X52936Y-25564D01*
X52936Y-25564D02*
X52936Y-27582D01*
X52936Y-27582D02*
X53471Y-28117D01*
X53471Y-28117D02*
X53628Y-28117D01*
X53628Y-28117D02*
X54200Y-28689D01*
X54200Y-28689D02*
X54200Y-30383D01*
X54200Y-30383D02*
X54459Y-30642D01*
X53700Y-23800D02*
X53700Y-24182D01*
X53700Y-24182D02*
X52708Y-25174D01*
X52708Y-25174D02*
X52708Y-27704D01*
X52708Y-27704D02*
X52955Y-27951D01*
X52955Y-27951D02*
X52955Y-29051D01*
X52955Y-29051D02*
X53200Y-29296D01*
X53200Y-29296D02*
X53200Y-30087D01*
X53200Y-30087D02*
X54366Y-31253D01*
X52700Y-23800D02*
X53390Y-23110D01*
X53390Y-23110D02*
X56086Y-23110D01*
X56086Y-23110D02*
X56240Y-23264D01*
X56240Y-23264D02*
X56240Y-24193D01*
X56240Y-24193D02*
X56441Y-24394D01*
X56441Y-24394D02*
X59988Y-24394D01*
X59988Y-24394D02*
X61722Y-26128D01*
X61722Y-26128D02*
X61722Y-32457D01*
X61722Y-32457D02*
X61433Y-32746D01*
X61433Y-32746D02*
X61433Y-34276D01*
X61433Y-34276D02*
X61983Y-34826D01*
X51700Y-23800D02*
X52618Y-22882D01*
X52618Y-22882D02*
X59280Y-22882D01*
X59280Y-22882D02*
X62386Y-25988D01*
X62386Y-25988D02*
X62386Y-33915D01*
X62386Y-33915D02*
X62013Y-34288D01*
X62013Y-34288D02*
X61995Y-34288D01*
X55365Y-38600D02*
X55450Y-38600D01*
X55450Y-38600D02*
X57500Y-36550D01*
X47400Y-26657D02*
X47817Y-26657D01*
X47817Y-26657D02*
X47857Y-26697D01*
X47857Y-26697D02*
X47857Y-28693D01*
X47857Y-28693D02*
X50987Y-31823D01*
X50987Y-31823D02*
X52593Y-31823D01*
X52593Y-31823D02*
X53680Y-32910D01*
X53680Y-32910D02*
X54249Y-32910D01*
X54249Y-32910D02*
X54856Y-33517D01*
X54856Y-33517D02*
X54856Y-35143D01*
X47400Y-26200D02*
X47400Y-26657D01*
X53327Y-26657D02*
X53327Y-26651D01*
X53327Y-26651D02*
X54676Y-25302D01*
X54676Y-25302D02*
X59609Y-25302D01*
X59609Y-25302D02*
X60300Y-25993D01*
X60300Y-25993D02*
X60300Y-26700D01*
X60300Y-26700D02*
X59800Y-27200D01*
X47400Y-27200D02*
X46942Y-26742D01*
X46942Y-26742D02*
X46942Y-25793D01*
X46942Y-25793D02*
X46993Y-25742D01*
X46993Y-25742D02*
X49598Y-25742D01*
X49598Y-25742D02*
X50093Y-26237D01*
X50093Y-26237D02*
X50093Y-27593D01*
X50093Y-27593D02*
X49860Y-27826D01*
X49860Y-27826D02*
X49860Y-29171D01*
X49860Y-29171D02*
X51294Y-30605D01*
X51294Y-30605D02*
X52659Y-30605D01*
X52659Y-30605D02*
X54056Y-32002D01*
X54056Y-32002D02*
X55679Y-32002D01*
X55679Y-32002D02*
X55943Y-31738D01*
X55943Y-31738D02*
X55943Y-30791D01*
X55706Y-35716D02*
X55706Y-34046D01*
X55706Y-34046D02*
X54343Y-32683D01*
X54343Y-32683D02*
X53774Y-32683D01*
X53774Y-32683D02*
X52687Y-31596D01*
X52687Y-31596D02*
X51081Y-31596D01*
X51081Y-31596D02*
X48942Y-29457D01*
X48942Y-29457D02*
X48942Y-26742D01*
X48942Y-26742D02*
X48400Y-26200D01*
X49400Y-26200D02*
X49865Y-26665D01*
X49865Y-26665D02*
X49865Y-27500D01*
X49865Y-27500D02*
X49633Y-27732D01*
X49633Y-27732D02*
X49633Y-29304D01*
X49633Y-29304D02*
X51161Y-30832D01*
X51161Y-30832D02*
X52565Y-30832D01*
X52565Y-30832D02*
X53962Y-32229D01*
X53962Y-32229D02*
X55389Y-32229D01*
X55389Y-32229D02*
X55582Y-32422D01*
X55582Y-32422D02*
X56330Y-31674D01*
X56330Y-31674D02*
X56330Y-30636D01*
X56330Y-30636D02*
X56224Y-30530D01*
X56224Y-30530D02*
X56224Y-29445D01*
X56224Y-29445D02*
X57449Y-28220D01*
X57449Y-28220D02*
X58523Y-28220D01*
X58523Y-28220D02*
X59315Y-27428D01*
X59315Y-27428D02*
X59315Y-26685D01*
X59315Y-26685D02*
X59800Y-26200D01*
X55582Y-32422D02*
X56618Y-33458D01*
X56618Y-33458D02*
X56618Y-35669D01*
X56618Y-35669D02*
X56621Y-35672D01*
X56061Y-36985D02*
X56061Y-36989D01*
X51878Y-31214D02*
X52626Y-31214D01*
X52626Y-31214D02*
X53868Y-32456D01*
X53868Y-32456D02*
X54437Y-32456D01*
X54437Y-32456D02*
X56099Y-34118D01*
X56099Y-34118D02*
X56099Y-36331D01*
X56099Y-36331D02*
X56061Y-36369D01*
X56061Y-36369D02*
X56061Y-36985D01*
X57903Y-29655D02*
X57212Y-30346D01*
X57212Y-30346D02*
X57212Y-33640D01*
X57212Y-33640D02*
X57382Y-33810D01*
X57382Y-33810D02*
X57382Y-36027D01*
X57382Y-36027D02*
X57001Y-36408D01*
X57001Y-36408D02*
X57001Y-36667D01*
X57001Y-36667D02*
X56683Y-36985D01*
X56683Y-36985D02*
X56061Y-36985D01*
X49400Y-27200D02*
X49400Y-29425D01*
X49400Y-29425D02*
X51189Y-31214D01*
X51189Y-31214D02*
X51878Y-31214D01*
X60800Y-26200D02*
X61266Y-26666D01*
X61266Y-26666D02*
X61266Y-31955D01*
X61266Y-31955D02*
X60244Y-32977D01*
X60244Y-32977D02*
X60244Y-38149D01*
X60244Y-38149D02*
X57308Y-41085D01*
X57308Y-41085D02*
X57308Y-41568D01*
X57308Y-41568D02*
X57532Y-41792D01*
X57532Y-41792D02*
X58558Y-41792D01*
X58558Y-41792D02*
X58650Y-41700D01*
X60800Y-26200D02*
X60800Y-26170D01*
X60800Y-26170D02*
X59591Y-24961D01*
X59591Y-24961D02*
X54364Y-24961D01*
X54364Y-24961D02*
X53550Y-25775D01*
X43600Y-26800D02*
X43600Y-28900D01*
X63100Y-38780D02*
X64380Y-38780D01*
X64380Y-38780D02*
X64400Y-38800D01*
X63100Y-39780D02*
X64380Y-39780D01*
X64380Y-39780D02*
X64400Y-39800D01*
X42700Y-30800D02*
X43200Y-31300D01*
X43200Y-31300D02*
X45289Y-31300D01*
X45289Y-31300D02*
X47605Y-33616D01*
X47605Y-33616D02*
X47605Y-36172D01*
X47605Y-36172D02*
X48578Y-37145D01*
X42700Y-31800D02*
X43200Y-32300D01*
X43200Y-32300D02*
X45748Y-32300D01*
X45748Y-32300D02*
X47378Y-33930D01*
X47378Y-33930D02*
X47378Y-36530D01*
X47378Y-36530D02*
X48599Y-37751D01*
X42700Y-32800D02*
X43200Y-33300D01*
X43200Y-33300D02*
X46427Y-33300D01*
X46427Y-33300D02*
X47031Y-33904D01*
X47031Y-33904D02*
X47031Y-36696D01*
X47031Y-36696D02*
X47291Y-36956D01*
X47291Y-36956D02*
X47291Y-37053D01*
X47291Y-37053D02*
X48588Y-38350D01*
X42700Y-33800D02*
X43143Y-34243D01*
X43143Y-34243D02*
X45342Y-34243D01*
X45342Y-34243D02*
X45943Y-33642D01*
X45943Y-33642D02*
X46448Y-33642D01*
X46448Y-33642D02*
X46804Y-33998D01*
X46804Y-33998D02*
X46804Y-36790D01*
X46804Y-36790D02*
X47064Y-37050D01*
X47064Y-37050D02*
X47064Y-37731D01*
X47064Y-37731D02*
X48274Y-38941D01*
X42700Y-34800D02*
X43200Y-35300D01*
X43200Y-35300D02*
X43200Y-35977D01*
X43200Y-35977D02*
X43465Y-36242D01*
X43465Y-36242D02*
X45498Y-36242D01*
X45498Y-36242D02*
X45538Y-36202D01*
X45538Y-36202D02*
X45538Y-34368D01*
X45538Y-34368D02*
X46037Y-33869D01*
X46037Y-33869D02*
X46354Y-33869D01*
X46354Y-33869D02*
X46577Y-34092D01*
X46577Y-34092D02*
X46577Y-36884D01*
X46577Y-36884D02*
X46837Y-37144D01*
X46837Y-37144D02*
X46837Y-38685D01*
X46837Y-38685D02*
X48121Y-39969D01*
X48121Y-39969D02*
X50592Y-39969D01*
X50592Y-39969D02*
X51284Y-39277D01*
X42700Y-35800D02*
X42700Y-36185D01*
X42700Y-36185D02*
X43195Y-36680D01*
X43195Y-36680D02*
X43195Y-40582D01*
X57019Y-39516D02*
X55312Y-39516D01*
X55312Y-39516D02*
X54702Y-38906D01*
X54702Y-38906D02*
X54702Y-37902D01*
X54702Y-37902D02*
X54892Y-37712D01*
X54892Y-37712D02*
X54892Y-36206D01*
X54892Y-36206D02*
X54081Y-35395D01*
X54081Y-35395D02*
X54081Y-34891D01*
X54081Y-34891D02*
X54382Y-34590D01*
X54382Y-34590D02*
X54382Y-33685D01*
X54382Y-33685D02*
X54061Y-33364D01*
X54061Y-33364D02*
X53492Y-33364D01*
X53492Y-33364D02*
X52405Y-32277D01*
X52405Y-32277D02*
X50635Y-32277D01*
X50635Y-32277D02*
X48621Y-30263D01*
X48621Y-30263D02*
X48555Y-30263D01*
X57019Y-39516D02*
X57019Y-41600D01*
X57019Y-41600D02*
X57556Y-42137D01*
X57556Y-42137D02*
X58687Y-42137D01*
X58687Y-42137D02*
X59650Y-43100D01*
X59525Y-30782D02*
X57666Y-32641D01*
X57666Y-32641D02*
X57666Y-33452D01*
X57666Y-33452D02*
X58423Y-34209D01*
X58423Y-34209D02*
X58423Y-38112D01*
X58423Y-38112D02*
X57019Y-39516D01*
X46195Y-34251D02*
X46162Y-34251D01*
X46162Y-34251D02*
X45774Y-34639D01*
X45774Y-34639D02*
X45774Y-40090D01*
X45774Y-40090D02*
X45080Y-40784D01*
X45080Y-41784D02*
X46001Y-40863D01*
X46001Y-40863D02*
X46001Y-34952D01*
X46001Y-34952D02*
X46164Y-34789D01*
X49796Y-25073D02*
X47341Y-25073D01*
X47341Y-25073D02*
X45543Y-26871D01*
X45543Y-26871D02*
X45543Y-27201D01*
X45543Y-27201D02*
X45503Y-27241D01*
X45503Y-27241D02*
X44891Y-27241D01*
X44891Y-27241D02*
X44623Y-26973D01*
X44623Y-26973D02*
X44623Y-26760D01*
X44623Y-26760D02*
X43989Y-26126D01*
X43989Y-26126D02*
X42499Y-26126D01*
X42499Y-26126D02*
X42167Y-26458D01*
X42167Y-26458D02*
X42167Y-27850D01*
X42167Y-27850D02*
X43033Y-28716D01*
X43033Y-28716D02*
X43033Y-28969D01*
X43033Y-28969D02*
X44390Y-30326D01*
X44390Y-30326D02*
X45269Y-30326D01*
X45269Y-30326D02*
X48001Y-33058D01*
X48001Y-33058D02*
X48001Y-35914D01*
X48001Y-35914D02*
X49020Y-36933D01*
X49020Y-36933D02*
X49020Y-38873D01*
X49020Y-38873D02*
X48307Y-39586D01*
X52301Y-35702D02*
X51238Y-34639D01*
X51238Y-34639D02*
X50938Y-34639D01*
X48594Y-31122D02*
X50938Y-33466D01*
X50938Y-33466D02*
X50938Y-34639D01*
X57894Y-30268D02*
X57439Y-30723D01*
X57439Y-30723D02*
X57439Y-33546D01*
X57439Y-33546D02*
X58195Y-34302D01*
X58195Y-34302D02*
X58195Y-37764D01*
X58195Y-37764D02*
X57609Y-38350D01*
X57812Y-35285D02*
X57968Y-35441D01*
X57968Y-35441D02*
X57968Y-37172D01*
X57968Y-37172D02*
X56038Y-39102D01*
X56038Y-39102D02*
X55219Y-39102D01*
X55219Y-39102D02*
X54929Y-38812D01*
X54929Y-38812D02*
X54929Y-37996D01*
X54929Y-37996D02*
X55119Y-37806D01*
X55119Y-37806D02*
X55119Y-36112D01*
X55119Y-36112D02*
X54308Y-35301D01*
X54308Y-35301D02*
X54308Y-34985D01*
X54308Y-34985D02*
X54609Y-34684D01*
X54609Y-34684D02*
X54609Y-33591D01*
X54609Y-33591D02*
X54155Y-33137D01*
X54155Y-33137D02*
X53586Y-33137D01*
X53586Y-33137D02*
X52499Y-32050D01*
X52499Y-32050D02*
X50893Y-32050D01*
X50893Y-32050D02*
X48567Y-29724D01*
X48567Y-29724D02*
X48335Y-29724D01*
X48335Y-29724D02*
X48335Y-29723D01*
X50176Y-38100D02*
X50176Y-36052D01*
X50176Y-36052D02*
X50065Y-35941D01*
X51579Y-32887D02*
X51579Y-34439D01*
X51579Y-34439D02*
X53828Y-36688D01*
X53828Y-36688D02*
X53828Y-37067D01*
X54850Y-27525D02*
X57400Y-27525D01*
M02*
