G04 (Genere par PCBnew (20080825)) le 8/6/2009-03:58:39*
G01*
G70*
G90*
%MOIN*%
G04 Gerber Fmt 3.4, Leading zero omitted, Abs format*
%FSLAX34Y34*%
G04 APERTURE LIST*
%ADD10C,0.008000*%
%ADD11R,0.055000X0.055000*%
%ADD12C,0.055000*%
%ADD13R,0.060000X0.060000*%
%ADD14C,0.060000*%
%ADD15R,0.065000X0.065000*%
%ADD16C,0.065000*%
%ADD17C,0.160000*%
%ADD18C,0.045000*%
%ADD19C,0.014000*%
%ADD20C,0.028000*%
%ADD21R,0.086600X0.023600*%
%ADD22R,0.078700X0.017700*%
%ADD23R,0.017700X0.078700*%
%ADD24C,0.017400*%
%ADD25C,0.010000*%
%ADD26C,0.012000*%
%ADD27C,0.015000*%
G04 APERTURE END LIST*
G54D10*
X53063Y-34860D02*
X53326Y-34860D01*
X53326Y-34860D02*
X53326Y-34894D01*
X53326Y-34894D02*
X53176Y-34994D01*
X53176Y-34994D02*
X53288Y-34994D01*
X53288Y-34994D02*
X53326Y-35027D01*
X53326Y-35027D02*
X53326Y-35127D01*
X53326Y-35127D02*
X53288Y-35160D01*
X53288Y-35160D02*
X53101Y-35160D01*
X53101Y-35160D02*
X53063Y-35127D01*
X53739Y-35160D02*
X53476Y-35160D01*
X53476Y-35160D02*
X53476Y-35060D01*
X53476Y-35060D02*
X53514Y-35027D01*
X53514Y-35027D02*
X53701Y-35027D01*
X53701Y-35027D02*
X53739Y-34994D01*
X53739Y-34994D02*
X53739Y-34894D01*
X53739Y-34894D02*
X53701Y-34860D01*
X53701Y-34860D02*
X53514Y-34860D01*
X53514Y-34860D02*
X53476Y-34894D01*
X53927Y-35160D02*
X53889Y-35127D01*
X53889Y-35127D02*
X53889Y-35027D01*
X53889Y-35027D02*
X53927Y-34994D01*
X53927Y-34994D02*
X54114Y-34994D01*
X54114Y-34994D02*
X54152Y-34960D01*
X54152Y-34960D02*
X54152Y-34894D01*
X54152Y-34894D02*
X54114Y-34860D01*
X54114Y-34860D02*
X53927Y-34860D01*
X53927Y-34860D02*
X53889Y-34894D01*
X53889Y-34894D02*
X53889Y-34960D01*
X53889Y-34960D02*
X53927Y-34994D01*
X54114Y-34994D02*
X54152Y-35027D01*
X54152Y-35027D02*
X54152Y-35127D01*
X54152Y-35127D02*
X54114Y-35160D01*
X54114Y-35160D02*
X53927Y-35160D01*
X53063Y-34640D02*
X53063Y-34407D01*
X53063Y-34407D02*
X53138Y-34340D01*
X53138Y-34340D02*
X53251Y-34340D01*
X53251Y-34340D02*
X53326Y-34407D01*
X53326Y-34407D02*
X53326Y-34640D01*
X53063Y-34474D02*
X53326Y-34474D01*
X53476Y-34340D02*
X53776Y-34340D01*
X53626Y-34340D02*
X53626Y-34640D01*
X53889Y-34640D02*
X53889Y-34340D01*
X53889Y-34340D02*
X54039Y-34474D01*
X54039Y-34474D02*
X54189Y-34340D01*
X54189Y-34340D02*
X54189Y-34640D01*
X54302Y-34540D02*
X54565Y-34540D01*
X54565Y-34540D02*
X54565Y-34474D01*
X54565Y-34474D02*
X54527Y-34440D01*
X54527Y-34440D02*
X54340Y-34440D01*
X54340Y-34440D02*
X54302Y-34474D01*
X54302Y-34474D02*
X54302Y-34607D01*
X54302Y-34607D02*
X54340Y-34640D01*
X54340Y-34640D02*
X54527Y-34640D01*
X54527Y-34640D02*
X54565Y-34607D01*
X54715Y-34706D02*
X54753Y-34740D01*
X54753Y-34740D02*
X54940Y-34740D01*
X54940Y-34740D02*
X54978Y-34706D01*
X54978Y-34706D02*
X54978Y-34474D01*
X54978Y-34474D02*
X54940Y-34440D01*
X54940Y-34440D02*
X54753Y-34440D01*
X54753Y-34440D02*
X54715Y-34474D01*
X54715Y-34474D02*
X54715Y-34607D01*
X54715Y-34607D02*
X54753Y-34640D01*
X54753Y-34640D02*
X54940Y-34640D01*
X54940Y-34640D02*
X54978Y-34607D01*
X55128Y-34440D02*
X55353Y-34440D01*
X55353Y-34440D02*
X55391Y-34474D01*
X55391Y-34474D02*
X55391Y-34640D01*
X55391Y-34640D02*
X55166Y-34640D01*
X55166Y-34640D02*
X55128Y-34607D01*
X55128Y-34607D02*
X55128Y-34574D01*
X55128Y-34574D02*
X55166Y-34540D01*
X55166Y-34540D02*
X55391Y-34540D01*
G54D27*
X41700Y-21900D02*
X66450Y-21900D01*
X41700Y-46650D02*
X41700Y-21900D01*
X66450Y-46650D02*
X41700Y-46650D01*
X66450Y-21900D02*
X66450Y-46650D01*
G54D26*
X43262Y-39350D02*
X43262Y-38850D01*
X43262Y-38850D02*
X43637Y-38850D01*
X43637Y-38850D02*
X43700Y-38906D01*
X43700Y-38906D02*
X43700Y-39073D01*
X43700Y-39073D02*
X43637Y-39128D01*
X43637Y-39128D02*
X43262Y-39128D01*
X43450Y-39128D02*
X43700Y-39350D01*
X44062Y-39350D02*
X44312Y-39350D01*
X44187Y-39350D02*
X44187Y-38850D01*
X44187Y-38906D02*
X44062Y-39017D01*
X63962Y-43350D02*
X63962Y-42850D01*
X63962Y-42850D02*
X64337Y-42850D01*
X64337Y-42850D02*
X64400Y-42906D01*
X64400Y-42906D02*
X64400Y-43073D01*
X64400Y-43073D02*
X64337Y-43128D01*
X64337Y-43128D02*
X63962Y-43128D01*
X64150Y-43128D02*
X64400Y-43350D01*
X64762Y-43350D02*
X65012Y-43350D01*
X64887Y-43350D02*
X64887Y-42850D01*
X64887Y-42906D02*
X64762Y-43017D01*
G54D27*
X54400Y-39150D02*
X54400Y-38050D01*
X54500Y-39150D02*
X54300Y-39150D01*
X54300Y-39150D02*
X54300Y-38050D01*
X54300Y-38050D02*
X54500Y-38050D01*
X54500Y-38050D02*
X54500Y-39150D01*
X54700Y-38600D02*
X54900Y-38600D01*
X54100Y-38600D02*
X53900Y-38600D01*
X54100Y-39150D02*
X54100Y-38050D01*
X54700Y-39150D02*
X54700Y-38050D01*
X55581Y-39781D02*
X55827Y-39755D01*
X55827Y-39755D02*
X56061Y-39679D01*
X56061Y-39679D02*
X56275Y-39555D01*
X56275Y-39555D02*
X56459Y-39390D01*
X56459Y-39390D02*
X56604Y-39191D01*
X56604Y-39191D02*
X56704Y-38965D01*
X56704Y-38965D02*
X56756Y-38723D01*
X56756Y-38723D02*
X56762Y-38600D01*
X56762Y-38600D02*
X56736Y-38354D01*
X56736Y-38354D02*
X56660Y-38120D01*
X56660Y-38120D02*
X56536Y-37906D01*
X56536Y-37906D02*
X56371Y-37722D01*
X56371Y-37722D02*
X56172Y-37577D01*
X56172Y-37577D02*
X55946Y-37477D01*
X55946Y-37477D02*
X55704Y-37425D01*
X55704Y-37425D02*
X55581Y-37419D01*
X53219Y-37419D02*
X55581Y-37419D01*
X53219Y-39781D02*
X55581Y-39781D01*
X52038Y-38600D02*
X52064Y-38846D01*
X52064Y-38846D02*
X52140Y-39080D01*
X52140Y-39080D02*
X52264Y-39294D01*
X52264Y-39294D02*
X52429Y-39478D01*
X52429Y-39478D02*
X52628Y-39623D01*
X52628Y-39623D02*
X52854Y-39723D01*
X52854Y-39723D02*
X53096Y-39775D01*
X53096Y-39775D02*
X53219Y-39781D01*
X53219Y-37419D02*
X52973Y-37445D01*
X52973Y-37445D02*
X52739Y-37521D01*
X52739Y-37521D02*
X52525Y-37645D01*
X52525Y-37645D02*
X52341Y-37810D01*
X52341Y-37810D02*
X52196Y-38009D01*
X52196Y-38009D02*
X52096Y-38235D01*
X52096Y-38235D02*
X52044Y-38477D01*
X52044Y-38477D02*
X52038Y-38600D01*
X54450Y-29050D02*
X54450Y-28050D01*
X54450Y-28050D02*
X56450Y-28050D01*
X56450Y-28050D02*
X56450Y-29050D01*
X56450Y-29050D02*
X54450Y-29050D01*
X53930Y-29050D02*
X51950Y-29050D01*
X51950Y-29050D02*
X51950Y-28050D01*
X51950Y-28050D02*
X53950Y-28050D01*
X53950Y-28050D02*
X53950Y-29050D01*
X53950Y-28800D02*
X53700Y-29050D01*
X56020Y-36050D02*
X58000Y-36050D01*
X58000Y-36050D02*
X58000Y-37050D01*
X58000Y-37050D02*
X56000Y-37050D01*
X56000Y-37050D02*
X56000Y-36050D01*
X56000Y-36300D02*
X56250Y-36050D01*
X50492Y-36042D02*
X52472Y-36042D01*
X52472Y-36042D02*
X52472Y-37042D01*
X52472Y-37042D02*
X50472Y-37042D01*
X50472Y-37042D02*
X50472Y-36042D01*
X50472Y-36292D02*
X50722Y-36042D01*
X56986Y-43959D02*
X56986Y-40759D01*
X51986Y-40759D02*
X51986Y-43959D01*
X51986Y-43959D02*
X56986Y-43959D01*
X51986Y-40759D02*
X56986Y-40759D01*
X50986Y-43109D02*
X51986Y-43109D01*
X50986Y-41609D02*
X51986Y-41609D01*
X47320Y-41500D02*
X49300Y-41500D01*
X49300Y-41500D02*
X49300Y-42500D01*
X49300Y-42500D02*
X47300Y-42500D01*
X47300Y-42500D02*
X47300Y-41500D01*
X47300Y-41750D02*
X47550Y-41500D01*
X44100Y-26800D02*
X44023Y-27182D01*
X44023Y-27182D02*
X43807Y-27507D01*
X43807Y-27507D02*
X43482Y-27723D01*
X43482Y-27723D02*
X43100Y-27800D01*
X43100Y-27800D02*
X42718Y-27723D01*
X42718Y-27723D02*
X42393Y-27507D01*
X42393Y-27507D02*
X42177Y-27182D01*
X42177Y-27182D02*
X42100Y-26800D01*
X42100Y-26800D02*
X42177Y-26418D01*
X42177Y-26418D02*
X42393Y-26093D01*
X42393Y-26093D02*
X42718Y-25877D01*
X42718Y-25877D02*
X43100Y-25800D01*
X43100Y-25800D02*
X43482Y-25877D01*
X43482Y-25877D02*
X43807Y-26093D01*
X43807Y-26093D02*
X44023Y-26418D01*
X44023Y-26418D02*
X44100Y-26800D01*
X44100Y-26550D02*
X43850Y-26550D01*
X43850Y-26550D02*
X43850Y-27050D01*
X43850Y-27050D02*
X44100Y-27050D01*
X64400Y-34800D02*
X65400Y-34800D01*
X64959Y-34800D02*
X64884Y-35079D01*
X64884Y-35079D02*
X64679Y-35284D01*
X64679Y-35284D02*
X64400Y-35359D01*
X64400Y-35359D02*
X64121Y-35284D01*
X64121Y-35284D02*
X63916Y-35079D01*
X63916Y-35079D02*
X63841Y-34800D01*
X63841Y-34800D02*
X63916Y-34521D01*
X63916Y-34521D02*
X64121Y-34316D01*
X64121Y-34316D02*
X64400Y-34241D01*
X64400Y-34241D02*
X64679Y-34316D01*
X64679Y-34316D02*
X64884Y-34521D01*
X64884Y-34521D02*
X64959Y-34800D01*
X64400Y-35800D02*
X65400Y-35800D01*
X64959Y-35800D02*
X64884Y-36079D01*
X64884Y-36079D02*
X64679Y-36284D01*
X64679Y-36284D02*
X64400Y-36359D01*
X64400Y-36359D02*
X64121Y-36284D01*
X64121Y-36284D02*
X63916Y-36079D01*
X63916Y-36079D02*
X63841Y-35800D01*
X63841Y-35800D02*
X63916Y-35521D01*
X63916Y-35521D02*
X64121Y-35316D01*
X64121Y-35316D02*
X64400Y-35241D01*
X64400Y-35241D02*
X64679Y-35316D01*
X64679Y-35316D02*
X64884Y-35521D01*
X64884Y-35521D02*
X64959Y-35800D01*
X64400Y-36800D02*
X65400Y-36800D01*
X64959Y-36800D02*
X64884Y-37079D01*
X64884Y-37079D02*
X64679Y-37284D01*
X64679Y-37284D02*
X64400Y-37359D01*
X64400Y-37359D02*
X64121Y-37284D01*
X64121Y-37284D02*
X63916Y-37079D01*
X63916Y-37079D02*
X63841Y-36800D01*
X63841Y-36800D02*
X63916Y-36521D01*
X63916Y-36521D02*
X64121Y-36316D01*
X64121Y-36316D02*
X64400Y-36241D01*
X64400Y-36241D02*
X64679Y-36316D01*
X64679Y-36316D02*
X64884Y-36521D01*
X64884Y-36521D02*
X64959Y-36800D01*
X64450Y-37800D02*
X65450Y-37800D01*
X65009Y-37800D02*
X64934Y-38079D01*
X64934Y-38079D02*
X64729Y-38284D01*
X64729Y-38284D02*
X64450Y-38359D01*
X64450Y-38359D02*
X64171Y-38284D01*
X64171Y-38284D02*
X63966Y-38079D01*
X63966Y-38079D02*
X63891Y-37800D01*
X63891Y-37800D02*
X63966Y-37521D01*
X63966Y-37521D02*
X64171Y-37316D01*
X64171Y-37316D02*
X64450Y-37241D01*
X64450Y-37241D02*
X64729Y-37316D01*
X64729Y-37316D02*
X64934Y-37521D01*
X64934Y-37521D02*
X65009Y-37800D01*
X64400Y-38800D02*
X65400Y-38800D01*
X64959Y-38800D02*
X64884Y-39079D01*
X64884Y-39079D02*
X64679Y-39284D01*
X64679Y-39284D02*
X64400Y-39359D01*
X64400Y-39359D02*
X64121Y-39284D01*
X64121Y-39284D02*
X63916Y-39079D01*
X63916Y-39079D02*
X63841Y-38800D01*
X63841Y-38800D02*
X63916Y-38521D01*
X63916Y-38521D02*
X64121Y-38316D01*
X64121Y-38316D02*
X64400Y-38241D01*
X64400Y-38241D02*
X64679Y-38316D01*
X64679Y-38316D02*
X64884Y-38521D01*
X64884Y-38521D02*
X64959Y-38800D01*
X64400Y-39800D02*
X65400Y-39800D01*
X64959Y-39800D02*
X64884Y-40079D01*
X64884Y-40079D02*
X64679Y-40284D01*
X64679Y-40284D02*
X64400Y-40359D01*
X64400Y-40359D02*
X64121Y-40284D01*
X64121Y-40284D02*
X63916Y-40079D01*
X63916Y-40079D02*
X63841Y-39800D01*
X63841Y-39800D02*
X63916Y-39521D01*
X63916Y-39521D02*
X64121Y-39316D01*
X64121Y-39316D02*
X64400Y-39241D01*
X64400Y-39241D02*
X64679Y-39316D01*
X64679Y-39316D02*
X64884Y-39521D01*
X64884Y-39521D02*
X64959Y-39800D01*
X64400Y-40800D02*
X65400Y-40800D01*
X64959Y-40800D02*
X64884Y-41079D01*
X64884Y-41079D02*
X64679Y-41284D01*
X64679Y-41284D02*
X64400Y-41359D01*
X64400Y-41359D02*
X64121Y-41284D01*
X64121Y-41284D02*
X63916Y-41079D01*
X63916Y-41079D02*
X63841Y-40800D01*
X63841Y-40800D02*
X63916Y-40521D01*
X63916Y-40521D02*
X64121Y-40316D01*
X64121Y-40316D02*
X64400Y-40241D01*
X64400Y-40241D02*
X64679Y-40316D01*
X64679Y-40316D02*
X64884Y-40521D01*
X64884Y-40521D02*
X64959Y-40800D01*
X64400Y-41800D02*
X65400Y-41800D01*
X64959Y-41800D02*
X64884Y-42079D01*
X64884Y-42079D02*
X64679Y-42284D01*
X64679Y-42284D02*
X64400Y-42359D01*
X64400Y-42359D02*
X64121Y-42284D01*
X64121Y-42284D02*
X63916Y-42079D01*
X63916Y-42079D02*
X63841Y-41800D01*
X63841Y-41800D02*
X63916Y-41521D01*
X63916Y-41521D02*
X64121Y-41316D01*
X64121Y-41316D02*
X64400Y-41241D01*
X64400Y-41241D02*
X64679Y-41316D01*
X64679Y-41316D02*
X64884Y-41521D01*
X64884Y-41521D02*
X64959Y-41800D01*
X43700Y-30800D02*
X42700Y-30800D01*
X44259Y-30800D02*
X44184Y-31079D01*
X44184Y-31079D02*
X43979Y-31284D01*
X43979Y-31284D02*
X43700Y-31359D01*
X43700Y-31359D02*
X43421Y-31284D01*
X43421Y-31284D02*
X43216Y-31079D01*
X43216Y-31079D02*
X43141Y-30800D01*
X43141Y-30800D02*
X43216Y-30521D01*
X43216Y-30521D02*
X43421Y-30316D01*
X43421Y-30316D02*
X43700Y-30241D01*
X43700Y-30241D02*
X43979Y-30316D01*
X43979Y-30316D02*
X44184Y-30521D01*
X44184Y-30521D02*
X44259Y-30800D01*
X43700Y-31800D02*
X42700Y-31800D01*
X44259Y-31800D02*
X44184Y-32079D01*
X44184Y-32079D02*
X43979Y-32284D01*
X43979Y-32284D02*
X43700Y-32359D01*
X43700Y-32359D02*
X43421Y-32284D01*
X43421Y-32284D02*
X43216Y-32079D01*
X43216Y-32079D02*
X43141Y-31800D01*
X43141Y-31800D02*
X43216Y-31521D01*
X43216Y-31521D02*
X43421Y-31316D01*
X43421Y-31316D02*
X43700Y-31241D01*
X43700Y-31241D02*
X43979Y-31316D01*
X43979Y-31316D02*
X44184Y-31521D01*
X44184Y-31521D02*
X44259Y-31800D01*
X43700Y-32800D02*
X42700Y-32800D01*
X44259Y-32800D02*
X44184Y-33079D01*
X44184Y-33079D02*
X43979Y-33284D01*
X43979Y-33284D02*
X43700Y-33359D01*
X43700Y-33359D02*
X43421Y-33284D01*
X43421Y-33284D02*
X43216Y-33079D01*
X43216Y-33079D02*
X43141Y-32800D01*
X43141Y-32800D02*
X43216Y-32521D01*
X43216Y-32521D02*
X43421Y-32316D01*
X43421Y-32316D02*
X43700Y-32241D01*
X43700Y-32241D02*
X43979Y-32316D01*
X43979Y-32316D02*
X44184Y-32521D01*
X44184Y-32521D02*
X44259Y-32800D01*
X43700Y-33800D02*
X42700Y-33800D01*
X44259Y-33800D02*
X44184Y-34079D01*
X44184Y-34079D02*
X43979Y-34284D01*
X43979Y-34284D02*
X43700Y-34359D01*
X43700Y-34359D02*
X43421Y-34284D01*
X43421Y-34284D02*
X43216Y-34079D01*
X43216Y-34079D02*
X43141Y-33800D01*
X43141Y-33800D02*
X43216Y-33521D01*
X43216Y-33521D02*
X43421Y-33316D01*
X43421Y-33316D02*
X43700Y-33241D01*
X43700Y-33241D02*
X43979Y-33316D01*
X43979Y-33316D02*
X44184Y-33521D01*
X44184Y-33521D02*
X44259Y-33800D01*
X43700Y-34800D02*
X42700Y-34800D01*
X44259Y-34800D02*
X44184Y-35079D01*
X44184Y-35079D02*
X43979Y-35284D01*
X43979Y-35284D02*
X43700Y-35359D01*
X43700Y-35359D02*
X43421Y-35284D01*
X43421Y-35284D02*
X43216Y-35079D01*
X43216Y-35079D02*
X43141Y-34800D01*
X43141Y-34800D02*
X43216Y-34521D01*
X43216Y-34521D02*
X43421Y-34316D01*
X43421Y-34316D02*
X43700Y-34241D01*
X43700Y-34241D02*
X43979Y-34316D01*
X43979Y-34316D02*
X44184Y-34521D01*
X44184Y-34521D02*
X44259Y-34800D01*
X43700Y-35800D02*
X42700Y-35800D01*
X44259Y-35800D02*
X44184Y-36079D01*
X44184Y-36079D02*
X43979Y-36284D01*
X43979Y-36284D02*
X43700Y-36359D01*
X43700Y-36359D02*
X43421Y-36284D01*
X43421Y-36284D02*
X43216Y-36079D01*
X43216Y-36079D02*
X43141Y-35800D01*
X43141Y-35800D02*
X43216Y-35521D01*
X43216Y-35521D02*
X43421Y-35316D01*
X43421Y-35316D02*
X43700Y-35241D01*
X43700Y-35241D02*
X43979Y-35316D01*
X43979Y-35316D02*
X44184Y-35521D01*
X44184Y-35521D02*
X44259Y-35800D01*
X43700Y-36800D02*
X42700Y-36800D01*
X44259Y-36800D02*
X44184Y-37079D01*
X44184Y-37079D02*
X43979Y-37284D01*
X43979Y-37284D02*
X43700Y-37359D01*
X43700Y-37359D02*
X43421Y-37284D01*
X43421Y-37284D02*
X43216Y-37079D01*
X43216Y-37079D02*
X43141Y-36800D01*
X43141Y-36800D02*
X43216Y-36521D01*
X43216Y-36521D02*
X43421Y-36316D01*
X43421Y-36316D02*
X43700Y-36241D01*
X43700Y-36241D02*
X43979Y-36316D01*
X43979Y-36316D02*
X44184Y-36521D01*
X44184Y-36521D02*
X44259Y-36800D01*
X43700Y-37800D02*
X42700Y-37800D01*
X44259Y-37800D02*
X44184Y-38079D01*
X44184Y-38079D02*
X43979Y-38284D01*
X43979Y-38284D02*
X43700Y-38359D01*
X43700Y-38359D02*
X43421Y-38284D01*
X43421Y-38284D02*
X43216Y-38079D01*
X43216Y-38079D02*
X43141Y-37800D01*
X43141Y-37800D02*
X43216Y-37521D01*
X43216Y-37521D02*
X43421Y-37316D01*
X43421Y-37316D02*
X43700Y-37241D01*
X43700Y-37241D02*
X43979Y-37316D01*
X43979Y-37316D02*
X44184Y-37521D01*
X44184Y-37521D02*
X44259Y-37800D01*
X64400Y-26800D02*
X65400Y-26800D01*
X64959Y-26800D02*
X64884Y-27079D01*
X64884Y-27079D02*
X64679Y-27284D01*
X64679Y-27284D02*
X64400Y-27359D01*
X64400Y-27359D02*
X64121Y-27284D01*
X64121Y-27284D02*
X63916Y-27079D01*
X63916Y-27079D02*
X63841Y-26800D01*
X63841Y-26800D02*
X63916Y-26521D01*
X63916Y-26521D02*
X64121Y-26316D01*
X64121Y-26316D02*
X64400Y-26241D01*
X64400Y-26241D02*
X64679Y-26316D01*
X64679Y-26316D02*
X64884Y-26521D01*
X64884Y-26521D02*
X64959Y-26800D01*
X64400Y-27800D02*
X65400Y-27800D01*
X64959Y-27800D02*
X64884Y-28079D01*
X64884Y-28079D02*
X64679Y-28284D01*
X64679Y-28284D02*
X64400Y-28359D01*
X64400Y-28359D02*
X64121Y-28284D01*
X64121Y-28284D02*
X63916Y-28079D01*
X63916Y-28079D02*
X63841Y-27800D01*
X63841Y-27800D02*
X63916Y-27521D01*
X63916Y-27521D02*
X64121Y-27316D01*
X64121Y-27316D02*
X64400Y-27241D01*
X64400Y-27241D02*
X64679Y-27316D01*
X64679Y-27316D02*
X64884Y-27521D01*
X64884Y-27521D02*
X64959Y-27800D01*
X64400Y-28800D02*
X65400Y-28800D01*
X64959Y-28800D02*
X64884Y-29079D01*
X64884Y-29079D02*
X64679Y-29284D01*
X64679Y-29284D02*
X64400Y-29359D01*
X64400Y-29359D02*
X64121Y-29284D01*
X64121Y-29284D02*
X63916Y-29079D01*
X63916Y-29079D02*
X63841Y-28800D01*
X63841Y-28800D02*
X63916Y-28521D01*
X63916Y-28521D02*
X64121Y-28316D01*
X64121Y-28316D02*
X64400Y-28241D01*
X64400Y-28241D02*
X64679Y-28316D01*
X64679Y-28316D02*
X64884Y-28521D01*
X64884Y-28521D02*
X64959Y-28800D01*
X64400Y-29800D02*
X65400Y-29800D01*
X64959Y-29800D02*
X64884Y-30079D01*
X64884Y-30079D02*
X64679Y-30284D01*
X64679Y-30284D02*
X64400Y-30359D01*
X64400Y-30359D02*
X64121Y-30284D01*
X64121Y-30284D02*
X63916Y-30079D01*
X63916Y-30079D02*
X63841Y-29800D01*
X63841Y-29800D02*
X63916Y-29521D01*
X63916Y-29521D02*
X64121Y-29316D01*
X64121Y-29316D02*
X64400Y-29241D01*
X64400Y-29241D02*
X64679Y-29316D01*
X64679Y-29316D02*
X64884Y-29521D01*
X64884Y-29521D02*
X64959Y-29800D01*
X64400Y-30800D02*
X65400Y-30800D01*
X64959Y-30800D02*
X64884Y-31079D01*
X64884Y-31079D02*
X64679Y-31284D01*
X64679Y-31284D02*
X64400Y-31359D01*
X64400Y-31359D02*
X64121Y-31284D01*
X64121Y-31284D02*
X63916Y-31079D01*
X63916Y-31079D02*
X63841Y-30800D01*
X63841Y-30800D02*
X63916Y-30521D01*
X63916Y-30521D02*
X64121Y-30316D01*
X64121Y-30316D02*
X64400Y-30241D01*
X64400Y-30241D02*
X64679Y-30316D01*
X64679Y-30316D02*
X64884Y-30521D01*
X64884Y-30521D02*
X64959Y-30800D01*
X64400Y-31800D02*
X65400Y-31800D01*
X64959Y-31800D02*
X64884Y-32079D01*
X64884Y-32079D02*
X64679Y-32284D01*
X64679Y-32284D02*
X64400Y-32359D01*
X64400Y-32359D02*
X64121Y-32284D01*
X64121Y-32284D02*
X63916Y-32079D01*
X63916Y-32079D02*
X63841Y-31800D01*
X63841Y-31800D02*
X63916Y-31521D01*
X63916Y-31521D02*
X64121Y-31316D01*
X64121Y-31316D02*
X64400Y-31241D01*
X64400Y-31241D02*
X64679Y-31316D01*
X64679Y-31316D02*
X64884Y-31521D01*
X64884Y-31521D02*
X64959Y-31800D01*
X64400Y-32800D02*
X65400Y-32800D01*
X64959Y-32800D02*
X64884Y-33079D01*
X64884Y-33079D02*
X64679Y-33284D01*
X64679Y-33284D02*
X64400Y-33359D01*
X64400Y-33359D02*
X64121Y-33284D01*
X64121Y-33284D02*
X63916Y-33079D01*
X63916Y-33079D02*
X63841Y-32800D01*
X63841Y-32800D02*
X63916Y-32521D01*
X63916Y-32521D02*
X64121Y-32316D01*
X64121Y-32316D02*
X64400Y-32241D01*
X64400Y-32241D02*
X64679Y-32316D01*
X64679Y-32316D02*
X64884Y-32521D01*
X64884Y-32521D02*
X64959Y-32800D01*
X64400Y-33800D02*
X65400Y-33800D01*
X64959Y-33800D02*
X64884Y-34079D01*
X64884Y-34079D02*
X64679Y-34284D01*
X64679Y-34284D02*
X64400Y-34359D01*
X64400Y-34359D02*
X64121Y-34284D01*
X64121Y-34284D02*
X63916Y-34079D01*
X63916Y-34079D02*
X63841Y-33800D01*
X63841Y-33800D02*
X63916Y-33521D01*
X63916Y-33521D02*
X64121Y-33316D01*
X64121Y-33316D02*
X64400Y-33241D01*
X64400Y-33241D02*
X64679Y-33316D01*
X64679Y-33316D02*
X64884Y-33521D01*
X64884Y-33521D02*
X64959Y-33800D01*
X42600Y-28900D02*
X43600Y-28900D01*
X43159Y-28900D02*
X43084Y-29179D01*
X43084Y-29179D02*
X42879Y-29384D01*
X42879Y-29384D02*
X42600Y-29459D01*
X42600Y-29459D02*
X42321Y-29384D01*
X42321Y-29384D02*
X42116Y-29179D01*
X42116Y-29179D02*
X42041Y-28900D01*
X42041Y-28900D02*
X42116Y-28621D01*
X42116Y-28621D02*
X42321Y-28416D01*
X42321Y-28416D02*
X42600Y-28341D01*
X42600Y-28341D02*
X42879Y-28416D01*
X42879Y-28416D02*
X43084Y-28621D01*
X43084Y-28621D02*
X43159Y-28900D01*
X58650Y-41700D02*
X59650Y-41700D01*
X59209Y-41700D02*
X59134Y-41979D01*
X59134Y-41979D02*
X58929Y-42184D01*
X58929Y-42184D02*
X58650Y-42259D01*
X58650Y-42259D02*
X58371Y-42184D01*
X58371Y-42184D02*
X58166Y-41979D01*
X58166Y-41979D02*
X58091Y-41700D01*
X58091Y-41700D02*
X58166Y-41421D01*
X58166Y-41421D02*
X58371Y-41216D01*
X58371Y-41216D02*
X58650Y-41141D01*
X58650Y-41141D02*
X58929Y-41216D01*
X58929Y-41216D02*
X59134Y-41421D01*
X59134Y-41421D02*
X59209Y-41700D01*
X44824Y-24186D02*
X44755Y-24530D01*
X44755Y-24530D02*
X44560Y-24822D01*
X44560Y-24822D02*
X44268Y-25017D01*
X44268Y-25017D02*
X43924Y-25086D01*
X43924Y-25086D02*
X43580Y-25017D01*
X43580Y-25017D02*
X43288Y-24822D01*
X43288Y-24822D02*
X43093Y-24530D01*
X43093Y-24530D02*
X43024Y-24186D01*
X43024Y-24186D02*
X43093Y-23842D01*
X43093Y-23842D02*
X43288Y-23550D01*
X43288Y-23550D02*
X43580Y-23355D01*
X43580Y-23355D02*
X43924Y-23286D01*
X43924Y-23286D02*
X44268Y-23355D01*
X44268Y-23355D02*
X44560Y-23550D01*
X44560Y-23550D02*
X44755Y-23842D01*
X44755Y-23842D02*
X44824Y-24186D01*
X44824Y-44658D02*
X44755Y-45002D01*
X44755Y-45002D02*
X44560Y-45294D01*
X44560Y-45294D02*
X44268Y-45489D01*
X44268Y-45489D02*
X43924Y-45558D01*
X43924Y-45558D02*
X43580Y-45489D01*
X43580Y-45489D02*
X43288Y-45294D01*
X43288Y-45294D02*
X43093Y-45002D01*
X43093Y-45002D02*
X43024Y-44658D01*
X43024Y-44658D02*
X43093Y-44314D01*
X43093Y-44314D02*
X43288Y-44022D01*
X43288Y-44022D02*
X43580Y-43827D01*
X43580Y-43827D02*
X43924Y-43758D01*
X43924Y-43758D02*
X44268Y-43827D01*
X44268Y-43827D02*
X44560Y-44022D01*
X44560Y-44022D02*
X44755Y-44314D01*
X44755Y-44314D02*
X44824Y-44658D01*
X65297Y-24186D02*
X65228Y-24530D01*
X65228Y-24530D02*
X65033Y-24822D01*
X65033Y-24822D02*
X64741Y-25017D01*
X64741Y-25017D02*
X64397Y-25086D01*
X64397Y-25086D02*
X64053Y-25017D01*
X64053Y-25017D02*
X63761Y-24822D01*
X63761Y-24822D02*
X63566Y-24530D01*
X63566Y-24530D02*
X63497Y-24186D01*
X63497Y-24186D02*
X63566Y-23842D01*
X63566Y-23842D02*
X63761Y-23550D01*
X63761Y-23550D02*
X64053Y-23355D01*
X64053Y-23355D02*
X64397Y-23286D01*
X64397Y-23286D02*
X64741Y-23355D01*
X64741Y-23355D02*
X65033Y-23550D01*
X65033Y-23550D02*
X65228Y-23842D01*
X65228Y-23842D02*
X65297Y-24186D01*
X65297Y-44658D02*
X65228Y-45002D01*
X65228Y-45002D02*
X65033Y-45294D01*
X65033Y-45294D02*
X64741Y-45489D01*
X64741Y-45489D02*
X64397Y-45558D01*
X64397Y-45558D02*
X64053Y-45489D01*
X64053Y-45489D02*
X63761Y-45294D01*
X63761Y-45294D02*
X63566Y-45002D01*
X63566Y-45002D02*
X63497Y-44658D01*
X63497Y-44658D02*
X63566Y-44314D01*
X63566Y-44314D02*
X63761Y-44022D01*
X63761Y-44022D02*
X64053Y-43827D01*
X64053Y-43827D02*
X64397Y-43758D01*
X64397Y-43758D02*
X64741Y-43827D01*
X64741Y-43827D02*
X65033Y-44022D01*
X65033Y-44022D02*
X65228Y-44314D01*
X65228Y-44314D02*
X65297Y-44658D01*
X58650Y-43100D02*
X59650Y-43100D01*
X59209Y-43100D02*
X59134Y-43379D01*
X59134Y-43379D02*
X58929Y-43584D01*
X58929Y-43584D02*
X58650Y-43659D01*
X58650Y-43659D02*
X58371Y-43584D01*
X58371Y-43584D02*
X58166Y-43379D01*
X58166Y-43379D02*
X58091Y-43100D01*
X58091Y-43100D02*
X58166Y-42821D01*
X58166Y-42821D02*
X58371Y-42616D01*
X58371Y-42616D02*
X58650Y-42541D01*
X58650Y-42541D02*
X58929Y-42616D01*
X58929Y-42616D02*
X59134Y-42821D01*
X59134Y-42821D02*
X59209Y-43100D01*
X63100Y-42900D02*
X63000Y-43300D01*
X63100Y-42950D02*
X63150Y-43250D01*
X63100Y-42850D02*
X63300Y-43350D01*
X63300Y-43350D02*
X62900Y-43350D01*
X63100Y-42850D02*
X63100Y-43350D01*
X63100Y-43350D02*
X62900Y-43350D01*
X63100Y-42850D02*
X62900Y-43350D01*
X62600Y-36300D02*
X62350Y-36050D01*
X62350Y-36050D02*
X62350Y-35550D01*
X62350Y-35550D02*
X62600Y-35300D01*
X62600Y-35300D02*
X62350Y-35050D01*
X62350Y-35050D02*
X62350Y-34550D01*
X62350Y-34550D02*
X62600Y-34300D01*
X62600Y-34300D02*
X62350Y-34050D01*
X62350Y-34050D02*
X62350Y-33550D01*
X62350Y-33550D02*
X62600Y-33300D01*
X62600Y-33300D02*
X62350Y-33050D01*
X62350Y-33050D02*
X62350Y-32550D01*
X62350Y-32550D02*
X62600Y-32300D01*
X62600Y-32300D02*
X62350Y-32050D01*
X62350Y-32050D02*
X62350Y-31550D01*
X62350Y-31550D02*
X62600Y-31300D01*
X62600Y-31300D02*
X62350Y-31050D01*
X62350Y-31050D02*
X62350Y-30550D01*
X62350Y-30550D02*
X62600Y-30300D01*
X62600Y-30300D02*
X62350Y-30050D01*
X62350Y-30050D02*
X62350Y-29550D01*
X62350Y-29550D02*
X62600Y-29300D01*
X62600Y-29300D02*
X62350Y-29050D01*
X62350Y-29050D02*
X62350Y-28550D01*
X62350Y-28550D02*
X62600Y-28300D01*
X62600Y-28300D02*
X62350Y-28050D01*
X62350Y-28050D02*
X62350Y-27550D01*
X62350Y-27550D02*
X62600Y-27300D01*
X62600Y-27300D02*
X62350Y-27050D01*
X62350Y-27050D02*
X62350Y-26550D01*
X62350Y-26550D02*
X62850Y-26050D01*
X62350Y-37550D02*
X62600Y-37300D01*
X62600Y-37300D02*
X62350Y-37050D01*
X62350Y-37050D02*
X62350Y-36550D01*
X62350Y-36550D02*
X62600Y-36300D01*
X62600Y-41300D02*
X63600Y-41300D01*
X63850Y-41550D02*
X63850Y-42550D01*
X63850Y-42550D02*
X62350Y-42550D01*
X62350Y-42550D02*
X62350Y-41550D01*
X62350Y-41550D02*
X62600Y-41300D01*
X62600Y-41300D02*
X62350Y-41050D01*
X62350Y-41050D02*
X62350Y-40550D01*
X62350Y-40550D02*
X62600Y-40300D01*
X62600Y-40300D02*
X62350Y-40050D01*
X62350Y-40050D02*
X62350Y-39550D01*
X62350Y-39550D02*
X62600Y-39300D01*
X62600Y-39300D02*
X62350Y-39050D01*
X62350Y-39050D02*
X62350Y-38550D01*
X62350Y-38550D02*
X62600Y-38300D01*
X62600Y-38300D02*
X62350Y-38050D01*
X62350Y-38050D02*
X62350Y-37550D01*
X62850Y-26050D02*
X63350Y-26050D01*
X63350Y-26050D02*
X63850Y-26550D01*
X63850Y-26550D02*
X63850Y-27050D01*
X63850Y-27050D02*
X63600Y-27300D01*
X63600Y-27300D02*
X63850Y-27550D01*
X63850Y-27550D02*
X63850Y-28050D01*
X63850Y-28050D02*
X63600Y-28300D01*
X63600Y-28300D02*
X63850Y-28550D01*
X63850Y-28550D02*
X63850Y-29050D01*
X63850Y-29050D02*
X63600Y-29300D01*
X63600Y-29300D02*
X63850Y-29550D01*
X63850Y-29550D02*
X63850Y-30050D01*
X63850Y-30050D02*
X63600Y-30300D01*
X63600Y-30300D02*
X63850Y-30550D01*
X63850Y-30550D02*
X63850Y-31050D01*
X63850Y-31050D02*
X63600Y-31300D01*
X63600Y-31300D02*
X63850Y-31550D01*
X63850Y-31550D02*
X63850Y-32050D01*
X63850Y-32050D02*
X63600Y-32300D01*
X63600Y-32300D02*
X63850Y-32550D01*
X63850Y-32550D02*
X63850Y-33050D01*
X63850Y-33050D02*
X63600Y-33300D01*
X63600Y-33300D02*
X63850Y-33550D01*
X63850Y-33550D02*
X63850Y-34050D01*
X63850Y-34050D02*
X63600Y-34300D01*
X63600Y-34300D02*
X63850Y-34550D01*
X63850Y-34550D02*
X63850Y-35050D01*
X63850Y-35050D02*
X63600Y-35300D01*
X63600Y-35300D02*
X63850Y-35550D01*
X63850Y-35550D02*
X63850Y-36050D01*
X63850Y-36050D02*
X63600Y-36300D01*
X63600Y-36300D02*
X63850Y-36550D01*
X63850Y-36550D02*
X63850Y-37050D01*
X63850Y-37050D02*
X63600Y-37300D01*
X63600Y-37300D02*
X63850Y-37550D01*
X63850Y-37550D02*
X63850Y-38050D01*
X63850Y-38050D02*
X63600Y-38300D01*
X63600Y-38300D02*
X63850Y-38550D01*
X63850Y-38550D02*
X63850Y-39050D01*
X63850Y-39050D02*
X63600Y-39300D01*
X63600Y-39300D02*
X63850Y-39550D01*
X63850Y-39550D02*
X63850Y-40050D01*
X63850Y-40050D02*
X63600Y-40300D01*
X63600Y-40300D02*
X63850Y-40550D01*
X63850Y-40550D02*
X63850Y-41050D01*
X63850Y-41050D02*
X63600Y-41300D01*
X63600Y-41300D02*
X63850Y-41550D01*
X44850Y-26050D02*
X45350Y-26050D01*
X45350Y-26050D02*
X45850Y-26550D01*
X45850Y-26550D02*
X45850Y-27050D01*
X45850Y-27050D02*
X45600Y-27300D01*
X45600Y-27300D02*
X45850Y-27550D01*
X45850Y-27550D02*
X45850Y-28050D01*
X45850Y-28050D02*
X45600Y-28300D01*
X45600Y-28300D02*
X45850Y-28550D01*
X45850Y-28550D02*
X45850Y-29050D01*
X45850Y-29050D02*
X45600Y-29300D01*
X45600Y-29300D02*
X45850Y-29550D01*
X45850Y-29550D02*
X45850Y-30050D01*
X45850Y-30050D02*
X45600Y-30300D01*
X45600Y-30300D02*
X45850Y-30550D01*
X45850Y-30550D02*
X45850Y-31050D01*
X45850Y-31050D02*
X45600Y-31300D01*
X45600Y-31300D02*
X45850Y-31550D01*
X45850Y-31550D02*
X45850Y-32050D01*
X45850Y-32050D02*
X45600Y-32300D01*
X45600Y-32300D02*
X45850Y-32550D01*
X45850Y-32550D02*
X45850Y-33050D01*
X45850Y-33050D02*
X45600Y-33300D01*
X45600Y-33300D02*
X45850Y-33550D01*
X45850Y-33550D02*
X45850Y-34050D01*
X45850Y-34050D02*
X45600Y-34300D01*
X45600Y-34300D02*
X45850Y-34550D01*
X45850Y-34550D02*
X45850Y-35050D01*
X45850Y-35050D02*
X45600Y-35300D01*
X45600Y-35300D02*
X45850Y-35550D01*
X45850Y-35550D02*
X45850Y-36050D01*
X45850Y-36050D02*
X45600Y-36300D01*
X45600Y-36300D02*
X45850Y-36550D01*
X45850Y-36550D02*
X45850Y-37050D01*
X45850Y-37050D02*
X45600Y-37300D01*
X45600Y-37300D02*
X45850Y-37550D01*
X45850Y-37550D02*
X45850Y-38050D01*
X45850Y-38050D02*
X45600Y-38300D01*
X45600Y-38300D02*
X45850Y-38550D01*
X45850Y-38550D02*
X45850Y-39050D01*
X45850Y-39050D02*
X45600Y-39300D01*
X45600Y-39300D02*
X45850Y-39550D01*
X45850Y-39550D02*
X45850Y-40050D01*
X45850Y-40050D02*
X45600Y-40300D01*
X45600Y-40300D02*
X45850Y-40550D01*
X45850Y-40550D02*
X45850Y-41050D01*
X45850Y-41050D02*
X45600Y-41300D01*
X45600Y-41300D02*
X45850Y-41550D01*
X45850Y-41550D02*
X45850Y-42050D01*
X45850Y-42050D02*
X45600Y-42300D01*
X45600Y-42300D02*
X45350Y-42550D01*
X45350Y-42550D02*
X44850Y-42550D01*
X44850Y-42550D02*
X44350Y-42050D01*
X44350Y-42050D02*
X44350Y-41550D01*
X44350Y-41550D02*
X44600Y-41300D01*
X44600Y-41300D02*
X44350Y-41050D01*
X44350Y-41050D02*
X44350Y-40550D01*
X44350Y-40550D02*
X44600Y-40300D01*
X44600Y-40300D02*
X44350Y-40050D01*
X44350Y-40050D02*
X44350Y-39550D01*
X44350Y-39550D02*
X44600Y-39300D01*
X44600Y-39300D02*
X44350Y-39050D01*
X44350Y-39050D02*
X44350Y-38550D01*
X44350Y-38550D02*
X44600Y-38300D01*
X44600Y-38300D02*
X44350Y-38050D01*
X44350Y-38050D02*
X44350Y-37550D01*
X44350Y-37550D02*
X44600Y-37300D01*
X44600Y-37300D02*
X44350Y-37050D01*
X44350Y-37050D02*
X44350Y-36550D01*
X44350Y-36550D02*
X44600Y-36300D01*
X44600Y-36300D02*
X44350Y-36050D01*
X44350Y-36050D02*
X44350Y-35550D01*
X44350Y-35550D02*
X44600Y-35300D01*
X44600Y-35300D02*
X44350Y-35050D01*
X44350Y-35050D02*
X44350Y-34550D01*
X44350Y-34550D02*
X44600Y-34300D01*
X44600Y-34300D02*
X44350Y-34050D01*
X44350Y-34050D02*
X44350Y-33550D01*
X44350Y-33550D02*
X44600Y-33300D01*
X44600Y-33300D02*
X44350Y-33050D01*
X44350Y-33050D02*
X44350Y-32550D01*
X44350Y-32550D02*
X44600Y-32300D01*
X44600Y-32300D02*
X44350Y-32050D01*
X44350Y-32050D02*
X44350Y-31550D01*
X44350Y-31550D02*
X44600Y-31300D01*
X44600Y-31300D02*
X44350Y-31050D01*
X44350Y-31050D02*
X44350Y-30550D01*
X44350Y-30550D02*
X44600Y-30300D01*
X44600Y-30300D02*
X44350Y-30050D01*
X44350Y-30050D02*
X44350Y-29550D01*
X44350Y-29550D02*
X44600Y-29300D01*
X44600Y-29300D02*
X44350Y-29050D01*
X44350Y-29050D02*
X44350Y-28550D01*
X44350Y-28550D02*
X44600Y-28300D01*
X44600Y-28300D02*
X44350Y-28050D01*
X44350Y-28050D02*
X44350Y-27550D01*
X44350Y-27550D02*
X44600Y-27300D01*
X44600Y-27300D02*
X44350Y-27050D01*
X44350Y-27050D02*
X44350Y-26550D01*
X44350Y-26550D02*
X44850Y-26050D01*
X65793Y-26367D02*
X65990Y-26367D01*
X65990Y-26367D02*
X65990Y-22430D01*
X62033Y-22430D02*
X62033Y-22233D01*
X62033Y-22233D02*
X58096Y-22233D01*
X58096Y-22233D02*
X58096Y-22430D01*
X58096Y-22430D02*
X50104Y-22430D01*
X50104Y-22430D02*
X50104Y-22233D01*
X50104Y-22233D02*
X46167Y-22233D01*
X46167Y-22233D02*
X46167Y-22430D01*
X46167Y-22430D02*
X42230Y-22430D01*
X42230Y-22430D02*
X42230Y-26367D01*
X42230Y-26367D02*
X42053Y-26367D01*
X42053Y-26367D02*
X42053Y-30304D01*
X42053Y-30304D02*
X42250Y-30304D01*
X42250Y-30304D02*
X42250Y-38296D01*
X42250Y-38296D02*
X42053Y-38296D01*
X42053Y-38296D02*
X42053Y-42233D01*
X42053Y-42233D02*
X42250Y-42233D01*
X42250Y-42233D02*
X42250Y-46170D01*
X42250Y-46170D02*
X46187Y-46170D01*
X46187Y-46170D02*
X46187Y-45973D01*
X46187Y-45973D02*
X50124Y-45973D01*
X50124Y-45973D02*
X50124Y-46170D01*
X50124Y-46170D02*
X58116Y-46170D01*
X58116Y-46170D02*
X58116Y-45973D01*
X58116Y-45973D02*
X62053Y-45973D01*
X62053Y-45973D02*
X62053Y-46170D01*
X62053Y-46170D02*
X65990Y-46170D01*
X65990Y-46170D02*
X65990Y-42233D01*
X65990Y-42233D02*
X65793Y-42233D01*
X65793Y-42233D02*
X65793Y-38296D01*
X65793Y-38296D02*
X65990Y-38296D01*
X65990Y-38296D02*
X65990Y-30304D01*
X65990Y-30304D02*
X65793Y-30304D01*
X65793Y-30304D02*
X65793Y-26367D01*
X65970Y-22430D02*
X62033Y-22430D01*
X60150Y-32000D02*
X59800Y-32000D01*
X60150Y-32000D02*
X59800Y-32150D01*
X59800Y-32150D02*
X59800Y-31850D01*
X59800Y-31850D02*
X60150Y-32000D01*
X61020Y-32246D02*
X61020Y-32053D01*
X61020Y-32053D02*
X60587Y-32053D01*
X60587Y-32246D02*
X60587Y-32053D01*
X61020Y-32246D02*
X60587Y-32246D01*
X61020Y-31746D02*
X61020Y-31553D01*
X61020Y-31553D02*
X60587Y-31553D01*
X60587Y-31746D02*
X60587Y-31553D01*
X61020Y-31746D02*
X60587Y-31746D01*
X61020Y-31246D02*
X61020Y-31053D01*
X61020Y-31053D02*
X60587Y-31053D01*
X60587Y-31246D02*
X60587Y-31053D01*
X61020Y-31246D02*
X60587Y-31246D01*
X61020Y-30746D02*
X61020Y-30553D01*
X61020Y-30553D02*
X60587Y-30553D01*
X60587Y-30746D02*
X60587Y-30553D01*
X61020Y-30746D02*
X60587Y-30746D01*
X59013Y-29747D02*
X59013Y-29554D01*
X59013Y-29554D02*
X58580Y-29554D01*
X58580Y-29747D02*
X58580Y-29554D01*
X59013Y-29747D02*
X58580Y-29747D01*
X59013Y-30247D02*
X59013Y-30054D01*
X59013Y-30054D02*
X58580Y-30054D01*
X58580Y-30247D02*
X58580Y-30054D01*
X59013Y-30247D02*
X58580Y-30247D01*
X59013Y-30746D02*
X59013Y-30553D01*
X59013Y-30553D02*
X58580Y-30553D01*
X58580Y-30746D02*
X58580Y-30553D01*
X59013Y-30746D02*
X58580Y-30746D01*
X59013Y-31246D02*
X59013Y-31053D01*
X59013Y-31053D02*
X58580Y-31053D01*
X58580Y-31246D02*
X58580Y-31053D01*
X59013Y-31246D02*
X58580Y-31246D01*
X61020Y-30247D02*
X61020Y-30054D01*
X61020Y-30054D02*
X60587Y-30054D01*
X60587Y-30247D02*
X60587Y-30054D01*
X61020Y-30247D02*
X60587Y-30247D01*
X61020Y-29747D02*
X61020Y-29554D01*
X61020Y-29554D02*
X60587Y-29554D01*
X60587Y-29747D02*
X60587Y-29554D01*
X61020Y-29747D02*
X60587Y-29747D01*
X61020Y-29247D02*
X61020Y-29054D01*
X61020Y-29054D02*
X60587Y-29054D01*
X60587Y-29247D02*
X60587Y-29054D01*
X61020Y-29247D02*
X60587Y-29247D01*
X61020Y-28747D02*
X61020Y-28554D01*
X61020Y-28554D02*
X60587Y-28554D01*
X60587Y-28747D02*
X60587Y-28554D01*
X61020Y-28747D02*
X60587Y-28747D01*
X59013Y-28747D02*
X59013Y-28554D01*
X59013Y-28554D02*
X58580Y-28554D01*
X58580Y-28747D02*
X58580Y-28554D01*
X59013Y-28747D02*
X58580Y-28747D01*
X59013Y-29247D02*
X59013Y-29054D01*
X59013Y-29054D02*
X58580Y-29054D01*
X58580Y-29247D02*
X58580Y-29054D01*
X59013Y-29247D02*
X58580Y-29247D01*
X59013Y-31746D02*
X59013Y-31553D01*
X59013Y-31553D02*
X58580Y-31553D01*
X58580Y-31746D02*
X58580Y-31553D01*
X59013Y-31746D02*
X58580Y-31746D01*
X59013Y-32246D02*
X59013Y-32053D01*
X59013Y-32053D02*
X58580Y-32053D01*
X58580Y-32246D02*
X58580Y-32053D01*
X59013Y-32246D02*
X58580Y-32246D01*
X58265Y-32524D02*
X58265Y-28276D01*
X61335Y-28276D02*
X61335Y-32524D01*
X61335Y-32524D02*
X58265Y-32524D01*
X60548Y-28456D02*
X60548Y-32344D01*
X60548Y-32344D02*
X60351Y-32344D01*
X60351Y-32344D02*
X59052Y-32344D01*
X59052Y-32344D02*
X59052Y-28456D01*
X60351Y-28456D02*
X60351Y-32344D01*
X59052Y-28456D02*
X60351Y-28456D01*
X60351Y-28456D02*
X60548Y-28456D01*
X58265Y-28276D02*
X61335Y-28276D01*
X60150Y-40200D02*
X59800Y-40200D01*
X60150Y-40200D02*
X59800Y-40350D01*
X59800Y-40350D02*
X59800Y-40050D01*
X59800Y-40050D02*
X60150Y-40200D01*
X61020Y-40446D02*
X61020Y-40253D01*
X61020Y-40253D02*
X60587Y-40253D01*
X60587Y-40446D02*
X60587Y-40253D01*
X61020Y-40446D02*
X60587Y-40446D01*
X61020Y-39946D02*
X61020Y-39753D01*
X61020Y-39753D02*
X60587Y-39753D01*
X60587Y-39946D02*
X60587Y-39753D01*
X61020Y-39946D02*
X60587Y-39946D01*
X61020Y-39446D02*
X61020Y-39253D01*
X61020Y-39253D02*
X60587Y-39253D01*
X60587Y-39446D02*
X60587Y-39253D01*
X61020Y-39446D02*
X60587Y-39446D01*
X61020Y-38946D02*
X61020Y-38753D01*
X61020Y-38753D02*
X60587Y-38753D01*
X60587Y-38946D02*
X60587Y-38753D01*
X61020Y-38946D02*
X60587Y-38946D01*
X59013Y-37947D02*
X59013Y-37754D01*
X59013Y-37754D02*
X58580Y-37754D01*
X58580Y-37947D02*
X58580Y-37754D01*
X59013Y-37947D02*
X58580Y-37947D01*
X59013Y-38447D02*
X59013Y-38254D01*
X59013Y-38254D02*
X58580Y-38254D01*
X58580Y-38447D02*
X58580Y-38254D01*
X59013Y-38447D02*
X58580Y-38447D01*
X59013Y-38946D02*
X59013Y-38753D01*
X59013Y-38753D02*
X58580Y-38753D01*
X58580Y-38946D02*
X58580Y-38753D01*
X59013Y-38946D02*
X58580Y-38946D01*
X59013Y-39446D02*
X59013Y-39253D01*
X59013Y-39253D02*
X58580Y-39253D01*
X58580Y-39446D02*
X58580Y-39253D01*
X59013Y-39446D02*
X58580Y-39446D01*
X61020Y-38447D02*
X61020Y-38254D01*
X61020Y-38254D02*
X60587Y-38254D01*
X60587Y-38447D02*
X60587Y-38254D01*
X61020Y-38447D02*
X60587Y-38447D01*
X61020Y-37947D02*
X61020Y-37754D01*
X61020Y-37754D02*
X60587Y-37754D01*
X60587Y-37947D02*
X60587Y-37754D01*
X61020Y-37947D02*
X60587Y-37947D01*
X61020Y-37447D02*
X61020Y-37254D01*
X61020Y-37254D02*
X60587Y-37254D01*
X60587Y-37447D02*
X60587Y-37254D01*
X61020Y-37447D02*
X60587Y-37447D01*
X61020Y-36947D02*
X61020Y-36754D01*
X61020Y-36754D02*
X60587Y-36754D01*
X60587Y-36947D02*
X60587Y-36754D01*
X61020Y-36947D02*
X60587Y-36947D01*
X59013Y-36947D02*
X59013Y-36754D01*
X59013Y-36754D02*
X58580Y-36754D01*
X58580Y-36947D02*
X58580Y-36754D01*
X59013Y-36947D02*
X58580Y-36947D01*
X59013Y-37447D02*
X59013Y-37254D01*
X59013Y-37254D02*
X58580Y-37254D01*
X58580Y-37447D02*
X58580Y-37254D01*
X59013Y-37447D02*
X58580Y-37447D01*
X59013Y-39946D02*
X59013Y-39753D01*
X59013Y-39753D02*
X58580Y-39753D01*
X58580Y-39946D02*
X58580Y-39753D01*
X59013Y-39946D02*
X58580Y-39946D01*
X59013Y-40446D02*
X59013Y-40253D01*
X59013Y-40253D02*
X58580Y-40253D01*
X58580Y-40446D02*
X58580Y-40253D01*
X59013Y-40446D02*
X58580Y-40446D01*
X58265Y-40724D02*
X58265Y-36476D01*
X61335Y-36476D02*
X61335Y-40724D01*
X61335Y-40724D02*
X58265Y-40724D01*
X60548Y-36656D02*
X60548Y-40544D01*
X60548Y-40544D02*
X60351Y-40544D01*
X60351Y-40544D02*
X59052Y-40544D01*
X59052Y-40544D02*
X59052Y-36656D01*
X60351Y-36656D02*
X60351Y-40544D01*
X59052Y-36656D02*
X60351Y-36656D01*
X60351Y-36656D02*
X60548Y-36656D01*
X58265Y-36476D02*
X61335Y-36476D01*
X48000Y-28750D02*
X48350Y-28750D01*
X48000Y-28750D02*
X48350Y-28600D01*
X48350Y-28600D02*
X48350Y-28900D01*
X48350Y-28900D02*
X48000Y-28750D01*
X47130Y-28504D02*
X47130Y-28697D01*
X47130Y-28697D02*
X47563Y-28697D01*
X47563Y-28504D02*
X47563Y-28697D01*
X47130Y-28504D02*
X47563Y-28504D01*
X47130Y-29004D02*
X47130Y-29197D01*
X47130Y-29197D02*
X47563Y-29197D01*
X47563Y-29004D02*
X47563Y-29197D01*
X47130Y-29004D02*
X47563Y-29004D01*
X47130Y-29504D02*
X47130Y-29697D01*
X47130Y-29697D02*
X47563Y-29697D01*
X47563Y-29504D02*
X47563Y-29697D01*
X47130Y-29504D02*
X47563Y-29504D01*
X47130Y-30004D02*
X47130Y-30197D01*
X47130Y-30197D02*
X47563Y-30197D01*
X47563Y-30004D02*
X47563Y-30197D01*
X47130Y-30004D02*
X47563Y-30004D01*
X49137Y-31003D02*
X49137Y-31196D01*
X49137Y-31196D02*
X49570Y-31196D01*
X49570Y-31003D02*
X49570Y-31196D01*
X49137Y-31003D02*
X49570Y-31003D01*
X49137Y-30503D02*
X49137Y-30696D01*
X49137Y-30696D02*
X49570Y-30696D01*
X49570Y-30503D02*
X49570Y-30696D01*
X49137Y-30503D02*
X49570Y-30503D01*
X49137Y-30004D02*
X49137Y-30197D01*
X49137Y-30197D02*
X49570Y-30197D01*
X49570Y-30004D02*
X49570Y-30197D01*
X49137Y-30004D02*
X49570Y-30004D01*
X49137Y-29504D02*
X49137Y-29697D01*
X49137Y-29697D02*
X49570Y-29697D01*
X49570Y-29504D02*
X49570Y-29697D01*
X49137Y-29504D02*
X49570Y-29504D01*
X47130Y-30503D02*
X47130Y-30696D01*
X47130Y-30696D02*
X47563Y-30696D01*
X47563Y-30503D02*
X47563Y-30696D01*
X47130Y-30503D02*
X47563Y-30503D01*
X47130Y-31003D02*
X47130Y-31196D01*
X47130Y-31196D02*
X47563Y-31196D01*
X47563Y-31003D02*
X47563Y-31196D01*
X47130Y-31003D02*
X47563Y-31003D01*
X47130Y-31503D02*
X47130Y-31696D01*
X47130Y-31696D02*
X47563Y-31696D01*
X47563Y-31503D02*
X47563Y-31696D01*
X47130Y-31503D02*
X47563Y-31503D01*
X47130Y-32003D02*
X47130Y-32196D01*
X47130Y-32196D02*
X47563Y-32196D01*
X47563Y-32003D02*
X47563Y-32196D01*
X47130Y-32003D02*
X47563Y-32003D01*
X49137Y-32003D02*
X49137Y-32196D01*
X49137Y-32196D02*
X49570Y-32196D01*
X49570Y-32003D02*
X49570Y-32196D01*
X49137Y-32003D02*
X49570Y-32003D01*
X49137Y-31503D02*
X49137Y-31696D01*
X49137Y-31696D02*
X49570Y-31696D01*
X49570Y-31503D02*
X49570Y-31696D01*
X49137Y-31503D02*
X49570Y-31503D01*
X49137Y-29004D02*
X49137Y-29197D01*
X49137Y-29197D02*
X49570Y-29197D01*
X49570Y-29004D02*
X49570Y-29197D01*
X49137Y-29004D02*
X49570Y-29004D01*
X49137Y-28504D02*
X49137Y-28697D01*
X49137Y-28697D02*
X49570Y-28697D01*
X49570Y-28504D02*
X49570Y-28697D01*
X49137Y-28504D02*
X49570Y-28504D01*
X49885Y-28226D02*
X49885Y-32474D01*
X46815Y-32474D02*
X46815Y-28226D01*
X46815Y-28226D02*
X49885Y-28226D01*
X47602Y-32294D02*
X47602Y-28406D01*
X47602Y-28406D02*
X47799Y-28406D01*
X47799Y-28406D02*
X49098Y-28406D01*
X49098Y-28406D02*
X49098Y-32294D01*
X47799Y-32294D02*
X47799Y-28406D01*
X49098Y-32294D02*
X47799Y-32294D01*
X47799Y-32294D02*
X47602Y-32294D01*
X49885Y-32474D02*
X46815Y-32474D01*
X48700Y-40200D02*
X48350Y-40200D01*
X48700Y-40200D02*
X48350Y-40350D01*
X48350Y-40350D02*
X48350Y-40050D01*
X48350Y-40050D02*
X48700Y-40200D01*
X49570Y-40446D02*
X49570Y-40253D01*
X49570Y-40253D02*
X49137Y-40253D01*
X49137Y-40446D02*
X49137Y-40253D01*
X49570Y-40446D02*
X49137Y-40446D01*
X49570Y-39946D02*
X49570Y-39753D01*
X49570Y-39753D02*
X49137Y-39753D01*
X49137Y-39946D02*
X49137Y-39753D01*
X49570Y-39946D02*
X49137Y-39946D01*
X49570Y-39446D02*
X49570Y-39253D01*
X49570Y-39253D02*
X49137Y-39253D01*
X49137Y-39446D02*
X49137Y-39253D01*
X49570Y-39446D02*
X49137Y-39446D01*
X49570Y-38946D02*
X49570Y-38753D01*
X49570Y-38753D02*
X49137Y-38753D01*
X49137Y-38946D02*
X49137Y-38753D01*
X49570Y-38946D02*
X49137Y-38946D01*
X47563Y-37947D02*
X47563Y-37754D01*
X47563Y-37754D02*
X47130Y-37754D01*
X47130Y-37947D02*
X47130Y-37754D01*
X47563Y-37947D02*
X47130Y-37947D01*
X47563Y-38447D02*
X47563Y-38254D01*
X47563Y-38254D02*
X47130Y-38254D01*
X47130Y-38447D02*
X47130Y-38254D01*
X47563Y-38447D02*
X47130Y-38447D01*
X47563Y-38946D02*
X47563Y-38753D01*
X47563Y-38753D02*
X47130Y-38753D01*
X47130Y-38946D02*
X47130Y-38753D01*
X47563Y-38946D02*
X47130Y-38946D01*
X47563Y-39446D02*
X47563Y-39253D01*
X47563Y-39253D02*
X47130Y-39253D01*
X47130Y-39446D02*
X47130Y-39253D01*
X47563Y-39446D02*
X47130Y-39446D01*
X49570Y-38447D02*
X49570Y-38254D01*
X49570Y-38254D02*
X49137Y-38254D01*
X49137Y-38447D02*
X49137Y-38254D01*
X49570Y-38447D02*
X49137Y-38447D01*
X49570Y-37947D02*
X49570Y-37754D01*
X49570Y-37754D02*
X49137Y-37754D01*
X49137Y-37947D02*
X49137Y-37754D01*
X49570Y-37947D02*
X49137Y-37947D01*
X49570Y-37447D02*
X49570Y-37254D01*
X49570Y-37254D02*
X49137Y-37254D01*
X49137Y-37447D02*
X49137Y-37254D01*
X49570Y-37447D02*
X49137Y-37447D01*
X49570Y-36947D02*
X49570Y-36754D01*
X49570Y-36754D02*
X49137Y-36754D01*
X49137Y-36947D02*
X49137Y-36754D01*
X49570Y-36947D02*
X49137Y-36947D01*
X47563Y-36947D02*
X47563Y-36754D01*
X47563Y-36754D02*
X47130Y-36754D01*
X47130Y-36947D02*
X47130Y-36754D01*
X47563Y-36947D02*
X47130Y-36947D01*
X47563Y-37447D02*
X47563Y-37254D01*
X47563Y-37254D02*
X47130Y-37254D01*
X47130Y-37447D02*
X47130Y-37254D01*
X47563Y-37447D02*
X47130Y-37447D01*
X47563Y-39946D02*
X47563Y-39753D01*
X47563Y-39753D02*
X47130Y-39753D01*
X47130Y-39946D02*
X47130Y-39753D01*
X47563Y-39946D02*
X47130Y-39946D01*
X47563Y-40446D02*
X47563Y-40253D01*
X47563Y-40253D02*
X47130Y-40253D01*
X47130Y-40446D02*
X47130Y-40253D01*
X47563Y-40446D02*
X47130Y-40446D01*
X46815Y-40724D02*
X46815Y-36476D01*
X49885Y-36476D02*
X49885Y-40724D01*
X49885Y-40724D02*
X46815Y-40724D01*
X49098Y-36656D02*
X49098Y-40544D01*
X49098Y-40544D02*
X48901Y-40544D01*
X48901Y-40544D02*
X47602Y-40544D01*
X47602Y-40544D02*
X47602Y-36656D01*
X48901Y-36656D02*
X48901Y-40544D01*
X47602Y-36656D02*
X48901Y-36656D01*
X48901Y-36656D02*
X49098Y-36656D01*
X46815Y-36476D02*
X49885Y-36476D01*
X52600Y-32600D02*
X52400Y-32300D01*
X52400Y-32300D02*
X52300Y-32400D01*
X52300Y-32400D02*
X52600Y-32600D01*
X56180Y-35290D02*
X55730Y-35290D01*
X56180Y-33110D02*
X55740Y-33110D01*
X56180Y-35290D02*
X56180Y-33110D01*
X55300Y-35760D02*
X55300Y-36190D01*
X53090Y-35770D02*
X53090Y-36190D01*
X53080Y-36190D02*
X55300Y-36200D01*
X53100Y-32220D02*
X55270Y-32210D01*
X52670Y-32910D02*
X52670Y-35740D01*
X55280Y-32220D02*
X55280Y-32630D01*
X52920Y-32670D02*
X55700Y-32670D01*
X55720Y-35750D02*
X55720Y-32710D01*
X52670Y-35750D02*
X55670Y-35750D01*
X52220Y-33080D02*
X52220Y-35300D01*
X52220Y-35300D02*
X52670Y-35300D01*
X52674Y-32900D02*
X52904Y-32670D01*
X52222Y-33080D02*
X52674Y-33080D01*
X53100Y-32670D02*
X53100Y-32218D01*
X53270Y-33074D02*
X53176Y-33236D01*
X53176Y-33236D02*
X52988Y-33236D01*
X52988Y-33236D02*
X52894Y-33074D01*
X52894Y-33074D02*
X52988Y-32912D01*
X52988Y-32912D02*
X53176Y-32912D01*
X53176Y-32912D02*
X53270Y-33074D01*
G54D26*
X53862Y-40500D02*
X54300Y-40000D01*
X53862Y-40000D02*
X54300Y-40500D01*
X54662Y-40500D02*
X54912Y-40500D01*
X54787Y-40500D02*
X54787Y-40000D01*
X54787Y-40056D02*
X54662Y-40167D01*
X56762Y-29050D02*
X56762Y-28550D01*
X56762Y-28550D02*
X57137Y-28550D01*
X57137Y-28550D02*
X57200Y-28606D01*
X57200Y-28606D02*
X57200Y-28773D01*
X57200Y-28773D02*
X57137Y-28828D01*
X57137Y-28828D02*
X56762Y-28828D01*
X56950Y-28828D02*
X57200Y-29050D01*
X57875Y-29050D02*
X57437Y-29050D01*
X57437Y-29050D02*
X57437Y-28550D01*
X57437Y-28550D02*
X57875Y-28550D01*
X57437Y-28773D02*
X57687Y-28773D01*
X51100Y-28995D02*
X51037Y-29050D01*
X51037Y-29050D02*
X50725Y-29050D01*
X50725Y-29050D02*
X50662Y-28995D01*
X50662Y-28995D02*
X50662Y-28606D01*
X50662Y-28606D02*
X50725Y-28550D01*
X50725Y-28550D02*
X51037Y-28550D01*
X51037Y-28550D02*
X51100Y-28606D01*
X51337Y-28939D02*
X51337Y-28995D01*
X51337Y-28995D02*
X51400Y-29050D01*
X51400Y-29050D02*
X51712Y-29050D01*
X51712Y-29050D02*
X51775Y-28995D01*
X51775Y-28995D02*
X51775Y-28828D01*
X51775Y-28828D02*
X51650Y-28717D01*
X51650Y-28717D02*
X51337Y-28717D01*
X51337Y-28717D02*
X51337Y-28550D01*
X51337Y-28550D02*
X51775Y-28550D01*
X57250Y-37745D02*
X57187Y-37800D01*
X57187Y-37800D02*
X56875Y-37800D01*
X56875Y-37800D02*
X56812Y-37745D01*
X56812Y-37745D02*
X56812Y-37356D01*
X56812Y-37356D02*
X56875Y-37300D01*
X56875Y-37300D02*
X57187Y-37300D01*
X57187Y-37300D02*
X57250Y-37356D01*
X57925Y-37800D02*
X57487Y-37800D01*
X57487Y-37800D02*
X57487Y-37634D01*
X57487Y-37634D02*
X57550Y-37578D01*
X57550Y-37578D02*
X57862Y-37578D01*
X57862Y-37578D02*
X57925Y-37523D01*
X57925Y-37523D02*
X57925Y-37356D01*
X57925Y-37356D02*
X57862Y-37300D01*
X57862Y-37300D02*
X57550Y-37300D01*
X57550Y-37300D02*
X57487Y-37356D01*
X51050Y-37695D02*
X50987Y-37750D01*
X50987Y-37750D02*
X50675Y-37750D01*
X50675Y-37750D02*
X50612Y-37695D01*
X50612Y-37695D02*
X50612Y-37306D01*
X50612Y-37306D02*
X50675Y-37250D01*
X50675Y-37250D02*
X50987Y-37250D01*
X50987Y-37250D02*
X51050Y-37306D01*
X51412Y-37750D02*
X51662Y-37750D01*
X51537Y-37750D02*
X51537Y-37250D01*
X51537Y-37306D02*
X51412Y-37417D01*
X54691Y-42579D02*
X54746Y-42642D01*
X54746Y-42642D02*
X54746Y-42954D01*
X54746Y-42954D02*
X54691Y-43017D01*
X54691Y-43017D02*
X54302Y-43017D01*
X54302Y-43017D02*
X54246Y-42954D01*
X54246Y-42954D02*
X54246Y-42642D01*
X54246Y-42642D02*
X54302Y-42579D01*
X54746Y-42029D02*
X54246Y-42029D01*
X54246Y-42029D02*
X54635Y-42342D01*
X54635Y-42342D02*
X54635Y-41904D01*
X52470Y-41840D02*
X52470Y-41390D01*
X52670Y-41615D02*
X52270Y-41615D01*
X48200Y-43245D02*
X48137Y-43300D01*
X48137Y-43300D02*
X47825Y-43300D01*
X47825Y-43300D02*
X47762Y-43245D01*
X47762Y-43245D02*
X47762Y-42856D01*
X47762Y-42856D02*
X47825Y-42800D01*
X47825Y-42800D02*
X48137Y-42800D01*
X48137Y-42800D02*
X48200Y-42856D01*
X48437Y-42800D02*
X48875Y-42800D01*
X48875Y-42800D02*
X48875Y-42856D01*
X48875Y-42856D02*
X48625Y-43023D01*
X48625Y-43023D02*
X48812Y-43023D01*
X48812Y-43023D02*
X48875Y-43078D01*
X48875Y-43078D02*
X48875Y-43245D01*
X48875Y-43245D02*
X48812Y-43300D01*
X48812Y-43300D02*
X48500Y-43300D01*
X48500Y-43300D02*
X48437Y-43245D01*
X43277Y-28450D02*
X43277Y-27950D01*
X43214Y-27950D02*
X43589Y-27950D01*
X43589Y-27950D02*
X43652Y-28006D01*
X43652Y-28006D02*
X43652Y-28395D01*
X43652Y-28395D02*
X43589Y-28450D01*
X43589Y-28450D02*
X43214Y-28450D01*
X44014Y-28450D02*
X44264Y-28450D01*
X44139Y-28450D02*
X44139Y-27950D01*
X44139Y-28006D02*
X44014Y-28117D01*
X42225Y-30100D02*
X42225Y-29600D01*
X42225Y-29600D02*
X42600Y-29600D01*
X42600Y-29600D02*
X42663Y-29656D01*
X42663Y-29656D02*
X42663Y-29823D01*
X42663Y-29823D02*
X42600Y-29878D01*
X42600Y-29878D02*
X42225Y-29878D01*
X42413Y-29878D02*
X42663Y-30100D01*
X43338Y-30100D02*
X42900Y-30100D01*
X42900Y-30100D02*
X42900Y-29934D01*
X42900Y-29934D02*
X42963Y-29878D01*
X42963Y-29878D02*
X43275Y-29878D01*
X43275Y-29878D02*
X43338Y-29823D01*
X43338Y-29823D02*
X43338Y-29656D01*
X43338Y-29656D02*
X43275Y-29600D01*
X43275Y-29600D02*
X42963Y-29600D01*
X42963Y-29600D02*
X42900Y-29656D01*
X44013Y-29656D02*
X43950Y-29600D01*
X43950Y-29600D02*
X43638Y-29600D01*
X43638Y-29600D02*
X43575Y-29656D01*
X43575Y-29656D02*
X43575Y-30045D01*
X43575Y-30045D02*
X43638Y-30100D01*
X43638Y-30100D02*
X43950Y-30100D01*
X43950Y-30100D02*
X44013Y-30045D01*
X44013Y-30045D02*
X44013Y-29878D01*
X44013Y-29878D02*
X43950Y-29823D01*
X43950Y-29823D02*
X43638Y-29823D01*
X43638Y-29823D02*
X43575Y-29878D01*
X60125Y-42000D02*
X60125Y-41500D01*
X60125Y-41500D02*
X60500Y-41500D01*
X60500Y-41500D02*
X60563Y-41556D01*
X60563Y-41556D02*
X60563Y-41723D01*
X60563Y-41723D02*
X60500Y-41778D01*
X60500Y-41778D02*
X60125Y-41778D01*
X60313Y-41778D02*
X60563Y-42000D01*
X61238Y-42000D02*
X60800Y-42000D01*
X60800Y-42000D02*
X60800Y-41834D01*
X60800Y-41834D02*
X60863Y-41778D01*
X60863Y-41778D02*
X61175Y-41778D01*
X61175Y-41778D02*
X61238Y-41723D01*
X61238Y-41723D02*
X61238Y-41556D01*
X61238Y-41556D02*
X61175Y-41500D01*
X61175Y-41500D02*
X60863Y-41500D01*
X60863Y-41500D02*
X60800Y-41556D01*
X61475Y-41889D02*
X61475Y-41945D01*
X61475Y-41945D02*
X61538Y-42000D01*
X61538Y-42000D02*
X61850Y-42000D01*
X61850Y-42000D02*
X61913Y-41945D01*
X61913Y-41945D02*
X61913Y-41778D01*
X61913Y-41778D02*
X61788Y-41667D01*
X61788Y-41667D02*
X61475Y-41667D01*
X61475Y-41667D02*
X61475Y-41500D01*
X61475Y-41500D02*
X61913Y-41500D01*
X60075Y-43350D02*
X60075Y-42850D01*
X60075Y-42850D02*
X60450Y-42850D01*
X60450Y-42850D02*
X60513Y-42906D01*
X60513Y-42906D02*
X60513Y-43073D01*
X60513Y-43073D02*
X60450Y-43128D01*
X60450Y-43128D02*
X60075Y-43128D01*
X60263Y-43128D02*
X60513Y-43350D01*
X61188Y-43350D02*
X60750Y-43350D01*
X60750Y-43350D02*
X60750Y-43184D01*
X60750Y-43184D02*
X60813Y-43128D01*
X60813Y-43128D02*
X61125Y-43128D01*
X61125Y-43128D02*
X61188Y-43073D01*
X61188Y-43073D02*
X61188Y-42906D01*
X61188Y-42906D02*
X61125Y-42850D01*
X61125Y-42850D02*
X60813Y-42850D01*
X60813Y-42850D02*
X60750Y-42906D01*
X61425Y-42850D02*
X61863Y-42850D01*
X61863Y-42850D02*
X61425Y-43350D01*
X46000Y-23100D02*
X46000Y-22600D01*
X46000Y-22600D02*
X46250Y-22823D01*
X46250Y-22823D02*
X46500Y-22600D01*
X46500Y-22600D02*
X46500Y-23100D01*
X46675Y-23100D02*
X46675Y-22712D01*
X46675Y-22712D02*
X46800Y-22600D01*
X46800Y-22600D02*
X46988Y-22600D01*
X46988Y-22600D02*
X47113Y-22712D01*
X47113Y-22712D02*
X47113Y-23100D01*
X46675Y-22823D02*
X47113Y-22823D01*
X47350Y-22600D02*
X47850Y-22600D01*
X47600Y-22600D02*
X47600Y-23100D01*
X48025Y-23100D02*
X48025Y-22600D01*
X48025Y-22600D02*
X48400Y-22600D01*
X48400Y-22600D02*
X48463Y-22656D01*
X48463Y-22656D02*
X48463Y-22823D01*
X48463Y-22823D02*
X48400Y-22878D01*
X48400Y-22878D02*
X48025Y-22878D01*
X48213Y-22878D02*
X48463Y-23100D01*
X48763Y-23100D02*
X49013Y-23100D01*
X48888Y-23100D02*
X48888Y-22600D01*
X48763Y-22600D02*
X49013Y-22600D01*
X49375Y-23100D02*
X49813Y-22600D01*
X49375Y-22600D02*
X49813Y-23100D01*
X50175Y-23100D02*
X50425Y-23100D01*
X50300Y-23100D02*
X50300Y-22600D01*
X50300Y-22656D02*
X50175Y-22767D01*
X57938Y-23100D02*
X57875Y-23045D01*
X57875Y-23045D02*
X57875Y-22878D01*
X57875Y-22878D02*
X57938Y-22823D01*
X57938Y-22823D02*
X58250Y-22823D01*
X58250Y-22823D02*
X58313Y-22767D01*
X58313Y-22767D02*
X58313Y-22656D01*
X58313Y-22656D02*
X58250Y-22600D01*
X58250Y-22600D02*
X57938Y-22600D01*
X57938Y-22600D02*
X57875Y-22656D01*
X57875Y-22656D02*
X57875Y-22767D01*
X57875Y-22767D02*
X57938Y-22823D01*
X58250Y-22823D02*
X58313Y-22878D01*
X58313Y-22878D02*
X58313Y-23045D01*
X58313Y-23045D02*
X58250Y-23100D01*
X58250Y-23100D02*
X57938Y-23100D01*
X58550Y-23100D02*
X58988Y-22767D01*
X58550Y-22767D02*
X58988Y-23100D01*
X59288Y-23100D02*
X59225Y-23045D01*
X59225Y-23045D02*
X59225Y-22878D01*
X59225Y-22878D02*
X59288Y-22823D01*
X59288Y-22823D02*
X59600Y-22823D01*
X59600Y-22823D02*
X59663Y-22767D01*
X59663Y-22767D02*
X59663Y-22656D01*
X59663Y-22656D02*
X59600Y-22600D01*
X59600Y-22600D02*
X59288Y-22600D01*
X59288Y-22600D02*
X59225Y-22656D01*
X59225Y-22656D02*
X59225Y-22767D01*
X59225Y-22767D02*
X59288Y-22823D01*
X59600Y-22823D02*
X59663Y-22878D01*
X59663Y-22878D02*
X59663Y-23045D01*
X59663Y-23045D02*
X59600Y-23100D01*
X59600Y-23100D02*
X59288Y-23100D01*
X59900Y-23100D02*
X60338Y-23100D01*
X60575Y-23100D02*
X60575Y-22600D01*
X60575Y-22600D02*
X60950Y-22600D01*
X60950Y-22600D02*
X61013Y-22656D01*
X61013Y-22656D02*
X61013Y-22823D01*
X61013Y-22823D02*
X60950Y-22878D01*
X60950Y-22878D02*
X60575Y-22878D01*
X60763Y-22878D02*
X61013Y-23100D01*
X61625Y-22656D02*
X61625Y-22600D01*
X61625Y-22600D02*
X61313Y-22600D01*
X61313Y-22600D02*
X61250Y-22656D01*
X61250Y-22656D02*
X61250Y-23045D01*
X61250Y-23045D02*
X61313Y-23100D01*
X61313Y-23100D02*
X61625Y-23100D01*
X61625Y-23100D02*
X61688Y-23045D01*
X61688Y-23045D02*
X61688Y-22878D01*
X61688Y-22878D02*
X61500Y-22878D01*
X61925Y-23100D02*
X61925Y-22600D01*
X61925Y-22600D02*
X62300Y-22600D01*
X62300Y-22600D02*
X62363Y-22656D01*
X62363Y-22656D02*
X62363Y-22767D01*
X62363Y-22767D02*
X62300Y-22823D01*
X62300Y-22823D02*
X61925Y-22823D01*
X62300Y-22823D02*
X62363Y-22934D01*
X62363Y-22934D02*
X62363Y-23045D01*
X62363Y-23045D02*
X62300Y-23100D01*
X62300Y-23100D02*
X61925Y-23100D01*
X57950Y-32412D02*
X57950Y-32162D01*
X57950Y-32287D02*
X57450Y-32287D01*
X57450Y-32412D02*
X57450Y-32162D01*
X57895Y-31362D02*
X57950Y-31425D01*
X57950Y-31425D02*
X57950Y-31737D01*
X57950Y-31737D02*
X57895Y-31800D01*
X57895Y-31800D02*
X57506Y-31800D01*
X57506Y-31800D02*
X57450Y-31737D01*
X57450Y-31737D02*
X57450Y-31425D01*
X57450Y-31425D02*
X57506Y-31362D01*
X57950Y-30687D02*
X57950Y-31125D01*
X57950Y-31125D02*
X57784Y-31125D01*
X57784Y-31125D02*
X57728Y-31062D01*
X57728Y-31062D02*
X57728Y-30750D01*
X57728Y-30750D02*
X57673Y-30687D01*
X57673Y-30687D02*
X57506Y-30687D01*
X57506Y-30687D02*
X57450Y-30750D01*
X57450Y-30750D02*
X57450Y-31062D01*
X57450Y-31062D02*
X57506Y-31125D01*
X57950Y-40412D02*
X57950Y-40162D01*
X57950Y-40287D02*
X57450Y-40287D01*
X57450Y-40412D02*
X57450Y-40162D01*
X57895Y-39362D02*
X57950Y-39425D01*
X57950Y-39425D02*
X57950Y-39737D01*
X57950Y-39737D02*
X57895Y-39800D01*
X57895Y-39800D02*
X57506Y-39800D01*
X57506Y-39800D02*
X57450Y-39737D01*
X57450Y-39737D02*
X57450Y-39425D01*
X57450Y-39425D02*
X57506Y-39362D01*
X57950Y-38812D02*
X57450Y-38812D01*
X57450Y-38812D02*
X57839Y-39125D01*
X57839Y-39125D02*
X57839Y-38687D01*
X50750Y-32412D02*
X50750Y-32162D01*
X50750Y-32287D02*
X50250Y-32287D01*
X50250Y-32412D02*
X50250Y-32162D01*
X50695Y-31362D02*
X50750Y-31425D01*
X50750Y-31425D02*
X50750Y-31737D01*
X50750Y-31737D02*
X50695Y-31800D01*
X50695Y-31800D02*
X50306Y-31800D01*
X50306Y-31800D02*
X50250Y-31737D01*
X50250Y-31737D02*
X50250Y-31425D01*
X50250Y-31425D02*
X50306Y-31362D01*
X50639Y-31125D02*
X50695Y-31125D01*
X50695Y-31125D02*
X50750Y-31062D01*
X50750Y-31062D02*
X50750Y-30750D01*
X50750Y-30750D02*
X50695Y-30687D01*
X50695Y-30687D02*
X50528Y-30687D01*
X50528Y-30687D02*
X50417Y-30812D01*
X50417Y-30812D02*
X50417Y-31125D01*
X50417Y-31125D02*
X50250Y-31125D01*
X50250Y-31125D02*
X50250Y-30687D01*
X50750Y-40512D02*
X50750Y-40262D01*
X50750Y-40387D02*
X50250Y-40387D01*
X50250Y-40512D02*
X50250Y-40262D01*
X50695Y-39462D02*
X50750Y-39525D01*
X50750Y-39525D02*
X50750Y-39837D01*
X50750Y-39837D02*
X50695Y-39900D01*
X50695Y-39900D02*
X50306Y-39900D01*
X50306Y-39900D02*
X50250Y-39837D01*
X50250Y-39837D02*
X50250Y-39525D01*
X50250Y-39525D02*
X50306Y-39462D01*
X50250Y-39225D02*
X50250Y-38787D01*
X50250Y-38787D02*
X50306Y-38787D01*
X50306Y-38787D02*
X50473Y-39037D01*
X50473Y-39037D02*
X50473Y-38850D01*
X50473Y-38850D02*
X50528Y-38787D01*
X50528Y-38787D02*
X50695Y-38787D01*
X50695Y-38787D02*
X50750Y-38850D01*
X50750Y-38850D02*
X50750Y-39162D01*
X50750Y-39162D02*
X50695Y-39225D01*
X53408Y-33530D02*
X53658Y-33530D01*
X53533Y-33530D02*
X53533Y-33030D01*
X53408Y-33030D02*
X53658Y-33030D01*
X54458Y-33475D02*
X54395Y-33530D01*
X54395Y-33530D02*
X54083Y-33530D01*
X54083Y-33530D02*
X54020Y-33475D01*
X54020Y-33475D02*
X54020Y-33086D01*
X54020Y-33086D02*
X54083Y-33030D01*
X54083Y-33030D02*
X54395Y-33030D01*
X54395Y-33030D02*
X54458Y-33086D01*
X54820Y-33530D02*
X55070Y-33530D01*
X54945Y-33530D02*
X54945Y-33030D01*
X54945Y-33086D02*
X54820Y-33197D01*
M02*
