G04 (Genere par PCBnew (20080825)) le 8/6/2009-03:58:39*
G01*
G70*
G90*
%MOIN*%
G04 Gerber Fmt 3.4, Leading zero omitted, Abs format*
%FSLAX34Y34*%
G04 APERTURE LIST*
%ADD10C,0.015000*%
%ADD11R,0.055000X0.055000*%
%ADD12C,0.055000*%
%ADD13R,0.060000X0.060000*%
%ADD14C,0.060000*%
%ADD15R,0.065000X0.065000*%
%ADD16C,0.065000*%
%ADD17C,0.160000*%
%ADD18C,0.045000*%
%ADD19C,0.014000*%
%ADD20C,0.028000*%
%ADD21R,0.086600X0.023600*%
%ADD22R,0.078700X0.017700*%
%ADD23R,0.017700X0.078700*%
%ADD24C,0.017400*%
%ADD25C,0.010000*%
%ADD26C,0.012000*%
%ADD27C,0.015000*%
%ADD28R,0.063000X0.063000*%
%ADD29C,0.063000*%
%ADD30R,0.068000X0.068000*%
%ADD31C,0.068000*%
%ADD32R,0.073000X0.073000*%
%ADD33C,0.073000*%
%ADD34C,0.168000*%
G04 APERTURE END LIST*
G54D10*
X41700Y-21900D02*
X66450Y-21900D01*
X41700Y-46650D02*
X41700Y-21900D01*
X66450Y-46650D02*
X41700Y-46650D01*
X66450Y-21900D02*
X66450Y-46650D01*
G54D28*
X58700Y-44800D03*
G54D29*
X57700Y-44800D03*
X56700Y-44800D03*
X55700Y-44800D03*
X54700Y-44800D03*
X53700Y-44800D03*
X52700Y-44800D03*
X51700Y-44800D03*
X50700Y-44800D03*
X49700Y-44800D03*
G54D28*
X58700Y-23800D03*
G54D29*
X57700Y-23800D03*
X56700Y-23800D03*
X55700Y-23800D03*
X54700Y-23800D03*
X53700Y-23800D03*
X52700Y-23800D03*
X51700Y-23800D03*
X50700Y-23800D03*
X49700Y-23800D03*
X55365Y-38600D03*
X53435Y-38600D03*
G54D28*
X56700Y-29800D03*
G54D29*
X55700Y-29800D03*
X54700Y-29800D03*
X53700Y-29800D03*
X52700Y-29800D03*
X51700Y-29800D03*
G54D30*
X47400Y-26200D03*
G54D31*
X47400Y-27200D03*
X48400Y-26200D03*
X48400Y-27200D03*
X49400Y-26200D03*
X49400Y-27200D03*
G54D30*
X58800Y-26200D03*
G54D31*
X58800Y-27200D03*
X59800Y-26200D03*
X59800Y-27200D03*
X60800Y-26200D03*
X60800Y-27200D03*
G54D28*
X54950Y-28550D03*
G54D29*
X55950Y-28550D03*
X53450Y-28550D03*
X52450Y-28550D03*
X56500Y-36550D03*
X57500Y-36550D03*
X50972Y-36542D03*
X51972Y-36542D03*
G54D32*
X50986Y-41609D03*
G54D33*
X50986Y-43109D03*
G54D29*
X47800Y-42000D03*
X48800Y-42000D03*
G54D28*
X42600Y-26800D03*
G54D29*
X43600Y-26800D03*
X64400Y-34800D03*
X65400Y-34800D03*
X64400Y-35800D03*
X65400Y-35800D03*
X64400Y-36800D03*
X65400Y-36800D03*
X64450Y-37800D03*
X65450Y-37800D03*
X64400Y-38800D03*
X65400Y-38800D03*
X64400Y-39800D03*
X65400Y-39800D03*
X64400Y-40800D03*
X65400Y-40800D03*
X64400Y-41800D03*
X65400Y-41800D03*
X43700Y-30800D03*
X42700Y-30800D03*
X43700Y-31800D03*
X42700Y-31800D03*
X43700Y-32800D03*
X42700Y-32800D03*
X43700Y-33800D03*
X42700Y-33800D03*
X43700Y-34800D03*
X42700Y-34800D03*
X43700Y-35800D03*
X42700Y-35800D03*
X43700Y-36800D03*
X42700Y-36800D03*
X43700Y-37800D03*
X42700Y-37800D03*
X64400Y-26800D03*
X65400Y-26800D03*
X64400Y-27800D03*
X65400Y-27800D03*
X64400Y-28800D03*
X65400Y-28800D03*
X64400Y-29800D03*
X65400Y-29800D03*
X64400Y-30800D03*
X65400Y-30800D03*
X64400Y-31800D03*
X65400Y-31800D03*
X64400Y-32800D03*
X65400Y-32800D03*
X64400Y-33800D03*
X65400Y-33800D03*
X42600Y-28900D03*
X43600Y-28900D03*
X58650Y-41700D03*
X59650Y-41700D03*
G54D34*
X43924Y-24186D03*
X43924Y-44658D03*
X64397Y-24186D03*
X64397Y-44658D03*
G54D29*
X58650Y-43100D03*
X59650Y-43100D03*
G54D31*
X45080Y-26784D03*
X45080Y-27784D03*
X45080Y-28784D03*
X45080Y-29784D03*
X45080Y-30784D03*
X45080Y-31784D03*
X45080Y-32784D03*
X45080Y-34784D03*
X45080Y-35784D03*
X45080Y-36784D03*
X45080Y-37784D03*
X45080Y-38784D03*
X45080Y-39784D03*
X45080Y-40784D03*
X45080Y-41784D03*
X63100Y-26780D03*
X63100Y-27780D03*
X63100Y-28780D03*
X63100Y-29780D03*
X63100Y-30780D03*
X63100Y-31780D03*
X63100Y-32780D03*
X63100Y-33780D03*
X63100Y-34780D03*
X63100Y-35780D03*
X63100Y-36780D03*
X63100Y-37780D03*
X63100Y-38780D03*
X63100Y-39780D03*
X63100Y-40780D03*
G54D30*
X63100Y-41780D03*
G54D29*
X45080Y-33784D03*
G54D31*
X53550Y-25775D03*
X51000Y-25775D03*
X53550Y-27525D03*
X51000Y-27525D03*
X57400Y-25775D03*
X54850Y-25775D03*
X57400Y-27525D03*
X54850Y-27525D03*
M02*
