M48
INCH,TZ
T1C0.025
T2C0.032
T3C0.040
T4C0.120
%
G90
G05
T1
X043195Y-040582
X046164Y-034789
X046195Y-034251
X046402Y-037350
X048274Y-038941
X048307Y-039586
X048335Y-029723
X048397Y-032095
X048555Y-030263
X048578Y-037145
X048588Y-038350
X048594Y-031122
X048599Y-037751
X049796Y-025073
X050065Y-035941
X050176Y-038100
X050242Y-028063
X050748Y-029513
X050938Y-034639
X051284Y-039277
X051579Y-032887
X051780Y-031210
X052301Y-035702
X052754Y-037252
X052953Y-038182
X053061Y-033490
X053063Y-036800
X053327Y-026657
X053427Y-033886
X053828Y-037067
X053850Y-033740
X054366Y-031253
X054459Y-030642
X054856Y-035143
X055382Y-031510
X055706Y-035716
X055943Y-030791
X056061Y-036989
X056621Y-035672
X057000Y-034071
X057609Y-038350
X057690Y-041410
X057812Y-035285
X057894Y-030268
X057903Y-029655
X058050Y-026250
X058415Y-033142
X059423Y-036070
X059525Y-030782
X060670Y-028140
X061983Y-034826
X061995Y-034288
X062004Y-033750
X062006Y-035364
T2
X042600Y-026800
X042600Y-028900
X042700Y-030800
X042700Y-031800
X042700Y-032800
X042700Y-033800
X042700Y-034800
X042700Y-035800
X042700Y-036800
X042700Y-037800
X043600Y-026800
X043600Y-028900
X043700Y-030800
X043700Y-031800
X043700Y-032800
X043700Y-033800
X043700Y-034800
X043700Y-035800
X043700Y-036800
X043700Y-037800
X045080Y-026784
X045080Y-027784
X045080Y-028784
X045080Y-029784
X045080Y-030784
X045080Y-031784
X045080Y-032784
X045080Y-033784
X045080Y-034784
X045080Y-035784
X045080Y-036784
X045080Y-037784
X045080Y-038784
X045080Y-039784
X045080Y-040784
X045080Y-041784
X047800Y-042000
X048800Y-042000
X050972Y-036542
X050986Y-041609
X050986Y-043109
X051972Y-036542
X052450Y-028550
X053435Y-038600
X053450Y-028550
X055365Y-038600
X056500Y-036550
X057500Y-036550
X058650Y-041700
X058650Y-043100
X059650Y-041700
X059650Y-043100
X063100Y-026780
X063100Y-027780
X063100Y-028780
X063100Y-029780
X063100Y-030780
X063100Y-031780
X063100Y-032780
X063100Y-033780
X063100Y-034780
X063100Y-035780
X063100Y-036780
X063100Y-037780
X063100Y-040780
X063100Y-041780
X064400Y-026800
X064400Y-027800
X064400Y-028800
X064400Y-029800
X064400Y-030800
X064400Y-031800
X064400Y-032800
X064400Y-033800
X064400Y-034800
X064400Y-035800
X064400Y-036800
X064400Y-038800
X064400Y-039800
X064400Y-040800
X064400Y-041800
X064450Y-037800
X065400Y-026800
X065400Y-027800
X065400Y-028800
X065400Y-029800
X065400Y-030800
X065400Y-031800
X065400Y-032800
X065400Y-033800
X065400Y-034800
X065400Y-035800
X065400Y-036800
X065400Y-038800
X065400Y-039800
X065400Y-040800
X065400Y-041800
X065450Y-037800
T3
X047400Y-026200
X047400Y-027200
X048400Y-026200
X048400Y-027200
X049400Y-026200
X049400Y-027200
X049700Y-023800
X049700Y-044800
X050700Y-023800
X050700Y-044800
X051000Y-025775
X051000Y-027525
X051700Y-023800
X051700Y-029800
X051700Y-044800
X052700Y-023800
X052700Y-029800
X052700Y-044800
X053550Y-025775
X053550Y-027525
X053700Y-023800
X053700Y-029800
X053700Y-044800
X054700Y-023800
X054700Y-029800
X054700Y-044800
X054850Y-025775
X054850Y-027525
X054950Y-028550
X055700Y-023800
X055700Y-029800
X055700Y-044800
X055950Y-028550
X056700Y-023800
X056700Y-029800
X056700Y-044800
X057400Y-025775
X057400Y-027525
X057700Y-023800
X057700Y-044800
X058700Y-023800
X058700Y-044800
X058800Y-026200
X058800Y-027200
X059800Y-026200
X059800Y-027200
X060800Y-026200
X060800Y-027200
T4
X043924Y-024186
X043924Y-044658
X064397Y-024186
X064397Y-044658
T2
X063100Y-038780G85X063100Y-038780
G05
X063100Y-039780G85X063100Y-039780
G05
T0
M30
