G04 (created by PCBNEW (2013-01-24 BZR 3921)-testing) date Fri 25 Jan 2013 03:38:43 AM CET*
%MOIN*%
G04 Gerber Fmt 3.4, Leading zero omitted, Abs format*
%FSLAX34Y34*%
G01*
G70*
G90*
G04 APERTURE LIST*
%ADD10C,0.00787402*%
%ADD11C,0.0075*%
%ADD12C,0.008*%
%ADD13C,0.01*%
%ADD14C,0.012*%
%ADD15C,0.015*%
%ADD16C,0.00984252*%
%ADD17C,0.055*%
%ADD18R,0.06X0.06*%
%ADD19C,0.06*%
%ADD20R,0.065X0.065*%
%ADD21C,0.065*%
%ADD22R,0.055X0.055*%
%ADD23C,0.16*%
G04 APERTURE END LIST*
G54D10*
G54D11*
X51821Y-45778D02*
X51521Y-45778D01*
X51521Y-45850D01*
X51535Y-45892D01*
X51564Y-45921D01*
X51592Y-45935D01*
X51650Y-45950D01*
X51692Y-45950D01*
X51750Y-45935D01*
X51778Y-45921D01*
X51807Y-45892D01*
X51821Y-45850D01*
X51821Y-45778D01*
X51521Y-46050D02*
X51521Y-46250D01*
X51821Y-46121D01*
G54D12*
G54D13*
X49650Y-45700D02*
X49650Y-46100D01*
X50500Y-45900D02*
X50900Y-45900D01*
X50700Y-45700D02*
X50700Y-46100D01*
X49700Y-22500D02*
X49700Y-22900D01*
X50700Y-22900D02*
X50700Y-22500D01*
X50500Y-22700D02*
X50900Y-22700D01*
G54D11*
X53807Y-24664D02*
X53821Y-24707D01*
X53821Y-24778D01*
X53807Y-24807D01*
X53792Y-24821D01*
X53764Y-24835D01*
X53735Y-24835D01*
X53707Y-24821D01*
X53692Y-24807D01*
X53678Y-24778D01*
X53664Y-24721D01*
X53650Y-24692D01*
X53635Y-24678D01*
X53607Y-24664D01*
X53578Y-24664D01*
X53550Y-24678D01*
X53535Y-24692D01*
X53521Y-24721D01*
X53521Y-24792D01*
X53535Y-24835D01*
X53792Y-25135D02*
X53807Y-25121D01*
X53821Y-25078D01*
X53821Y-25050D01*
X53807Y-25007D01*
X53778Y-24978D01*
X53750Y-24964D01*
X53692Y-24950D01*
X53650Y-24950D01*
X53592Y-24964D01*
X53564Y-24978D01*
X53535Y-25007D01*
X53521Y-25050D01*
X53521Y-25078D01*
X53535Y-25121D01*
X53550Y-25135D01*
G54D12*
G54D11*
X54807Y-24664D02*
X54821Y-24707D01*
X54821Y-24778D01*
X54807Y-24807D01*
X54792Y-24821D01*
X54764Y-24835D01*
X54735Y-24835D01*
X54707Y-24821D01*
X54692Y-24807D01*
X54678Y-24778D01*
X54664Y-24721D01*
X54650Y-24692D01*
X54635Y-24678D01*
X54607Y-24664D01*
X54578Y-24664D01*
X54550Y-24678D01*
X54535Y-24692D01*
X54521Y-24721D01*
X54521Y-24792D01*
X54535Y-24835D01*
X54821Y-24964D02*
X54521Y-24964D01*
X54521Y-25035D01*
X54535Y-25078D01*
X54564Y-25107D01*
X54592Y-25121D01*
X54650Y-25135D01*
X54692Y-25135D01*
X54750Y-25121D01*
X54778Y-25107D01*
X54807Y-25078D01*
X54821Y-25035D01*
X54821Y-24964D01*
G54D12*
G54D11*
X54821Y-43157D02*
X54821Y-43014D01*
X54521Y-43014D01*
X54664Y-43257D02*
X54664Y-43357D01*
X54821Y-43400D02*
X54821Y-43257D01*
X54521Y-43257D01*
X54521Y-43400D01*
X54821Y-43528D02*
X54521Y-43528D01*
X54521Y-43600D01*
X54535Y-43642D01*
X54564Y-43671D01*
X54592Y-43685D01*
X54650Y-43700D01*
X54692Y-43700D01*
X54750Y-43685D01*
X54778Y-43671D01*
X54807Y-43642D01*
X54821Y-43600D01*
X54821Y-43528D01*
G54D12*
G54D11*
X53821Y-42928D02*
X53521Y-42928D01*
X53521Y-43042D01*
X53535Y-43071D01*
X53550Y-43085D01*
X53578Y-43100D01*
X53621Y-43100D01*
X53650Y-43085D01*
X53664Y-43071D01*
X53678Y-43042D01*
X53678Y-42928D01*
X53521Y-43200D02*
X53821Y-43271D01*
X53607Y-43328D01*
X53821Y-43385D01*
X53521Y-43457D01*
X53821Y-43571D02*
X53521Y-43571D01*
X53735Y-43671D01*
X53521Y-43771D01*
X53821Y-43771D01*
G54D12*
G54D11*
X52821Y-42928D02*
X52521Y-42928D01*
X52521Y-43042D01*
X52535Y-43071D01*
X52550Y-43085D01*
X52578Y-43100D01*
X52621Y-43100D01*
X52650Y-43085D01*
X52664Y-43071D01*
X52678Y-43042D01*
X52678Y-42928D01*
X52521Y-43200D02*
X52821Y-43271D01*
X52607Y-43328D01*
X52821Y-43385D01*
X52521Y-43457D01*
X52821Y-43571D02*
X52521Y-43571D01*
X52735Y-43671D01*
X52521Y-43771D01*
X52821Y-43771D01*
G54D12*
G54D11*
X55821Y-42928D02*
X55521Y-42928D01*
X55521Y-43042D01*
X55535Y-43071D01*
X55550Y-43085D01*
X55578Y-43100D01*
X55621Y-43100D01*
X55650Y-43085D01*
X55664Y-43071D01*
X55678Y-43042D01*
X55678Y-42928D01*
X55521Y-43200D02*
X55821Y-43271D01*
X55607Y-43328D01*
X55821Y-43385D01*
X55521Y-43457D01*
X55821Y-43571D02*
X55521Y-43571D01*
X55735Y-43671D01*
X55521Y-43771D01*
X55821Y-43771D01*
G54D12*
G54D11*
X52821Y-45778D02*
X52521Y-45778D01*
X52521Y-45850D01*
X52535Y-45892D01*
X52564Y-45921D01*
X52592Y-45935D01*
X52650Y-45950D01*
X52692Y-45950D01*
X52750Y-45935D01*
X52778Y-45921D01*
X52807Y-45892D01*
X52821Y-45850D01*
X52821Y-45778D01*
X52521Y-46207D02*
X52521Y-46150D01*
X52535Y-46121D01*
X52550Y-46107D01*
X52592Y-46078D01*
X52650Y-46064D01*
X52764Y-46064D01*
X52792Y-46078D01*
X52807Y-46092D01*
X52821Y-46121D01*
X52821Y-46178D01*
X52807Y-46207D01*
X52792Y-46221D01*
X52764Y-46235D01*
X52692Y-46235D01*
X52664Y-46221D01*
X52650Y-46207D01*
X52635Y-46178D01*
X52635Y-46121D01*
X52650Y-46092D01*
X52664Y-46078D01*
X52692Y-46064D01*
G54D12*
G54D11*
X53821Y-45778D02*
X53521Y-45778D01*
X53521Y-45850D01*
X53535Y-45892D01*
X53564Y-45921D01*
X53592Y-45935D01*
X53650Y-45950D01*
X53692Y-45950D01*
X53750Y-45935D01*
X53778Y-45921D01*
X53807Y-45892D01*
X53821Y-45850D01*
X53821Y-45778D01*
X53521Y-46221D02*
X53521Y-46078D01*
X53664Y-46064D01*
X53650Y-46078D01*
X53635Y-46107D01*
X53635Y-46178D01*
X53650Y-46207D01*
X53664Y-46221D01*
X53692Y-46235D01*
X53764Y-46235D01*
X53792Y-46221D01*
X53807Y-46207D01*
X53821Y-46178D01*
X53821Y-46107D01*
X53807Y-46078D01*
X53792Y-46064D01*
G54D12*
G54D11*
X56821Y-45778D02*
X56521Y-45778D01*
X56521Y-45850D01*
X56535Y-45892D01*
X56564Y-45921D01*
X56592Y-45935D01*
X56650Y-45950D01*
X56692Y-45950D01*
X56750Y-45935D01*
X56778Y-45921D01*
X56807Y-45892D01*
X56821Y-45850D01*
X56821Y-45778D01*
X56550Y-46064D02*
X56535Y-46078D01*
X56521Y-46107D01*
X56521Y-46178D01*
X56535Y-46207D01*
X56550Y-46221D01*
X56578Y-46235D01*
X56607Y-46235D01*
X56650Y-46221D01*
X56821Y-46050D01*
X56821Y-46235D01*
G54D12*
G54D11*
X55821Y-45778D02*
X55521Y-45778D01*
X55521Y-45850D01*
X55535Y-45892D01*
X55564Y-45921D01*
X55592Y-45935D01*
X55650Y-45950D01*
X55692Y-45950D01*
X55750Y-45935D01*
X55778Y-45921D01*
X55807Y-45892D01*
X55821Y-45850D01*
X55821Y-45778D01*
X55521Y-46050D02*
X55521Y-46235D01*
X55635Y-46135D01*
X55635Y-46178D01*
X55650Y-46207D01*
X55664Y-46221D01*
X55692Y-46235D01*
X55764Y-46235D01*
X55792Y-46221D01*
X55807Y-46207D01*
X55821Y-46178D01*
X55821Y-46092D01*
X55807Y-46064D01*
X55792Y-46050D01*
G54D12*
G54D11*
X54821Y-45778D02*
X54521Y-45778D01*
X54521Y-45850D01*
X54535Y-45892D01*
X54564Y-45921D01*
X54592Y-45935D01*
X54650Y-45950D01*
X54692Y-45950D01*
X54750Y-45935D01*
X54778Y-45921D01*
X54807Y-45892D01*
X54821Y-45850D01*
X54821Y-45778D01*
X54621Y-46207D02*
X54821Y-46207D01*
X54507Y-46135D02*
X54721Y-46064D01*
X54721Y-46250D01*
G54D12*
G54D11*
X57521Y-45771D02*
X57521Y-45942D01*
X57821Y-45857D02*
X57521Y-45857D01*
X57521Y-46014D02*
X57821Y-46214D01*
X57521Y-46214D02*
X57821Y-46014D01*
G54D12*
G54D11*
X58821Y-45950D02*
X58678Y-45850D01*
X58821Y-45778D02*
X58521Y-45778D01*
X58521Y-45892D01*
X58535Y-45921D01*
X58550Y-45935D01*
X58578Y-45950D01*
X58621Y-45950D01*
X58650Y-45935D01*
X58664Y-45921D01*
X58678Y-45892D01*
X58678Y-45778D01*
X58521Y-46050D02*
X58821Y-46250D01*
X58521Y-46250D02*
X58821Y-46050D01*
G54D12*
G54D14*
X59450Y-44800D02*
X59900Y-44550D01*
X59900Y-44550D02*
X59900Y-45050D01*
X59900Y-45050D02*
X59450Y-44800D01*
X59600Y-44800D02*
X59800Y-44700D01*
X59800Y-44700D02*
X59800Y-44900D01*
X59800Y-44900D02*
X59600Y-44800D01*
X59600Y-44800D02*
X59850Y-44800D01*
X59600Y-23800D02*
X59850Y-23800D01*
X59800Y-23900D02*
X59600Y-23800D01*
X59800Y-23700D02*
X59800Y-23900D01*
X59600Y-23800D02*
X59800Y-23700D01*
X59900Y-24050D02*
X59450Y-23800D01*
X59900Y-23550D02*
X59900Y-24050D01*
X59450Y-23800D02*
X59900Y-23550D01*
G54D11*
X58735Y-22485D02*
X58735Y-22628D01*
X58821Y-22457D02*
X58521Y-22557D01*
X58821Y-22657D01*
X58521Y-22814D02*
X58521Y-22842D01*
X58535Y-22871D01*
X58550Y-22885D01*
X58578Y-22900D01*
X58635Y-22914D01*
X58707Y-22914D01*
X58764Y-22900D01*
X58792Y-22885D01*
X58807Y-22871D01*
X58821Y-22842D01*
X58821Y-22814D01*
X58807Y-22785D01*
X58792Y-22771D01*
X58764Y-22757D01*
X58707Y-22742D01*
X58635Y-22742D01*
X58578Y-22757D01*
X58550Y-22771D01*
X58535Y-22785D01*
X58521Y-22814D01*
G54D12*
G54D11*
X57735Y-22485D02*
X57735Y-22628D01*
X57821Y-22457D02*
X57521Y-22557D01*
X57821Y-22657D01*
X57821Y-22914D02*
X57821Y-22742D01*
X57821Y-22828D02*
X57521Y-22828D01*
X57564Y-22800D01*
X57592Y-22771D01*
X57607Y-22742D01*
G54D12*
G54D11*
X54735Y-22485D02*
X54735Y-22628D01*
X54821Y-22457D02*
X54521Y-22557D01*
X54821Y-22657D01*
X54621Y-22885D02*
X54821Y-22885D01*
X54507Y-22814D02*
X54721Y-22742D01*
X54721Y-22928D01*
G54D12*
G54D11*
X55735Y-22485D02*
X55735Y-22628D01*
X55821Y-22457D02*
X55521Y-22557D01*
X55821Y-22657D01*
X55521Y-22728D02*
X55521Y-22914D01*
X55635Y-22814D01*
X55635Y-22857D01*
X55650Y-22885D01*
X55664Y-22900D01*
X55692Y-22914D01*
X55764Y-22914D01*
X55792Y-22900D01*
X55807Y-22885D01*
X55821Y-22857D01*
X55821Y-22771D01*
X55807Y-22742D01*
X55792Y-22728D01*
G54D12*
G54D11*
X56735Y-22485D02*
X56735Y-22628D01*
X56821Y-22457D02*
X56521Y-22557D01*
X56821Y-22657D01*
X56550Y-22742D02*
X56535Y-22757D01*
X56521Y-22785D01*
X56521Y-22857D01*
X56535Y-22885D01*
X56550Y-22900D01*
X56578Y-22914D01*
X56607Y-22914D01*
X56650Y-22900D01*
X56821Y-22728D01*
X56821Y-22914D01*
G54D12*
G54D11*
X53735Y-22485D02*
X53735Y-22628D01*
X53821Y-22457D02*
X53521Y-22557D01*
X53821Y-22657D01*
X53521Y-22900D02*
X53521Y-22757D01*
X53664Y-22742D01*
X53650Y-22757D01*
X53635Y-22785D01*
X53635Y-22857D01*
X53650Y-22885D01*
X53664Y-22900D01*
X53692Y-22914D01*
X53764Y-22914D01*
X53792Y-22900D01*
X53807Y-22885D01*
X53821Y-22857D01*
X53821Y-22785D01*
X53807Y-22757D01*
X53792Y-22742D01*
G54D12*
G54D11*
X52735Y-22485D02*
X52735Y-22628D01*
X52821Y-22457D02*
X52521Y-22557D01*
X52821Y-22657D01*
X52521Y-22885D02*
X52521Y-22828D01*
X52535Y-22800D01*
X52550Y-22785D01*
X52592Y-22757D01*
X52650Y-22742D01*
X52764Y-22742D01*
X52792Y-22757D01*
X52807Y-22771D01*
X52821Y-22800D01*
X52821Y-22857D01*
X52807Y-22885D01*
X52792Y-22900D01*
X52764Y-22914D01*
X52692Y-22914D01*
X52664Y-22900D01*
X52650Y-22885D01*
X52635Y-22857D01*
X52635Y-22800D01*
X52650Y-22771D01*
X52664Y-22757D01*
X52692Y-22742D01*
G54D12*
G54D11*
X51735Y-22485D02*
X51735Y-22628D01*
X51821Y-22457D02*
X51521Y-22557D01*
X51821Y-22657D01*
X51521Y-22728D02*
X51521Y-22928D01*
X51821Y-22800D01*
G54D12*
G54D11*
X57407Y-40811D02*
X57407Y-40411D01*
X57407Y-40564D02*
X57378Y-40545D01*
X57321Y-40545D01*
X57292Y-40564D01*
X57278Y-40583D01*
X57264Y-40621D01*
X57264Y-40735D01*
X57278Y-40773D01*
X57292Y-40792D01*
X57321Y-40811D01*
X57378Y-40811D01*
X57407Y-40792D01*
X57092Y-40811D02*
X57121Y-40792D01*
X57135Y-40754D01*
X57135Y-40411D01*
X56935Y-40811D02*
X56964Y-40792D01*
X56978Y-40773D01*
X56992Y-40735D01*
X56992Y-40621D01*
X56978Y-40583D01*
X56964Y-40564D01*
X56935Y-40545D01*
X56892Y-40545D01*
X56864Y-40564D01*
X56850Y-40583D01*
X56835Y-40621D01*
X56835Y-40735D01*
X56850Y-40773D01*
X56864Y-40792D01*
X56892Y-40811D01*
X56935Y-40811D01*
X56578Y-40545D02*
X56578Y-40869D01*
X56592Y-40907D01*
X56607Y-40926D01*
X56635Y-40945D01*
X56678Y-40945D01*
X56707Y-40926D01*
X56578Y-40792D02*
X56607Y-40811D01*
X56664Y-40811D01*
X56692Y-40792D01*
X56707Y-40773D01*
X56721Y-40735D01*
X56721Y-40621D01*
X56707Y-40583D01*
X56692Y-40564D01*
X56664Y-40545D01*
X56607Y-40545D01*
X56578Y-40564D01*
X56435Y-40773D02*
X56421Y-40792D01*
X56435Y-40811D01*
X56449Y-40792D01*
X56435Y-40773D01*
X56435Y-40811D01*
X56307Y-40792D02*
X56278Y-40811D01*
X56221Y-40811D01*
X56192Y-40792D01*
X56178Y-40754D01*
X56178Y-40735D01*
X56192Y-40697D01*
X56221Y-40678D01*
X56264Y-40678D01*
X56292Y-40659D01*
X56307Y-40621D01*
X56307Y-40602D01*
X56292Y-40564D01*
X56264Y-40545D01*
X56221Y-40545D01*
X56192Y-40564D01*
X56049Y-40545D02*
X56049Y-40945D01*
X56049Y-40564D02*
X56021Y-40545D01*
X55964Y-40545D01*
X55935Y-40564D01*
X55921Y-40583D01*
X55907Y-40621D01*
X55907Y-40735D01*
X55921Y-40773D01*
X55935Y-40792D01*
X55964Y-40811D01*
X56021Y-40811D01*
X56049Y-40792D01*
X55778Y-40811D02*
X55778Y-40545D01*
X55778Y-40411D02*
X55792Y-40430D01*
X55778Y-40450D01*
X55764Y-40430D01*
X55778Y-40411D01*
X55778Y-40450D01*
X55678Y-40545D02*
X55564Y-40545D01*
X55635Y-40411D02*
X55635Y-40754D01*
X55621Y-40792D01*
X55592Y-40811D01*
X55564Y-40811D01*
X55492Y-40545D02*
X55335Y-40545D01*
X55492Y-40811D01*
X55335Y-40811D01*
X55107Y-40792D02*
X55135Y-40811D01*
X55192Y-40811D01*
X55221Y-40792D01*
X55235Y-40754D01*
X55235Y-40602D01*
X55221Y-40564D01*
X55192Y-40545D01*
X55135Y-40545D01*
X55107Y-40564D01*
X55092Y-40602D01*
X55092Y-40640D01*
X55235Y-40678D01*
X54964Y-40545D02*
X54964Y-40811D01*
X54964Y-40583D02*
X54949Y-40564D01*
X54921Y-40545D01*
X54878Y-40545D01*
X54849Y-40564D01*
X54835Y-40602D01*
X54835Y-40811D01*
X54692Y-40545D02*
X54692Y-40945D01*
X54692Y-40564D02*
X54664Y-40545D01*
X54607Y-40545D01*
X54578Y-40564D01*
X54564Y-40583D01*
X54549Y-40621D01*
X54549Y-40735D01*
X54564Y-40773D01*
X54578Y-40792D01*
X54607Y-40811D01*
X54664Y-40811D01*
X54692Y-40792D01*
X54464Y-40545D02*
X54349Y-40545D01*
X54421Y-40811D02*
X54421Y-40469D01*
X54407Y-40430D01*
X54378Y-40411D01*
X54349Y-40411D01*
X54135Y-40792D02*
X54164Y-40811D01*
X54221Y-40811D01*
X54249Y-40792D01*
X54264Y-40754D01*
X54264Y-40602D01*
X54249Y-40564D01*
X54221Y-40545D01*
X54164Y-40545D01*
X54135Y-40564D01*
X54121Y-40602D01*
X54121Y-40640D01*
X54264Y-40678D01*
X53992Y-40811D02*
X53992Y-40545D01*
X53992Y-40411D02*
X54007Y-40430D01*
X53992Y-40450D01*
X53978Y-40430D01*
X53992Y-40411D01*
X53992Y-40450D01*
X53807Y-40811D02*
X53835Y-40792D01*
X53849Y-40754D01*
X53849Y-40411D01*
X53692Y-40773D02*
X53678Y-40792D01*
X53692Y-40811D01*
X53707Y-40792D01*
X53692Y-40773D01*
X53692Y-40811D01*
X53507Y-40811D02*
X53535Y-40792D01*
X53549Y-40773D01*
X53564Y-40735D01*
X53564Y-40621D01*
X53549Y-40583D01*
X53535Y-40564D01*
X53507Y-40545D01*
X53464Y-40545D01*
X53435Y-40564D01*
X53421Y-40583D01*
X53407Y-40621D01*
X53407Y-40735D01*
X53421Y-40773D01*
X53435Y-40792D01*
X53464Y-40811D01*
X53507Y-40811D01*
X53278Y-40811D02*
X53278Y-40545D01*
X53278Y-40621D02*
X53264Y-40583D01*
X53249Y-40564D01*
X53221Y-40545D01*
X53192Y-40545D01*
X52964Y-40545D02*
X52964Y-40869D01*
X52978Y-40907D01*
X52992Y-40926D01*
X53021Y-40945D01*
X53064Y-40945D01*
X53092Y-40926D01*
X52964Y-40792D02*
X52992Y-40811D01*
X53049Y-40811D01*
X53078Y-40792D01*
X53092Y-40773D01*
X53107Y-40735D01*
X53107Y-40621D01*
X53092Y-40583D01*
X53078Y-40564D01*
X53049Y-40545D01*
X52992Y-40545D01*
X52964Y-40564D01*
X52592Y-40659D02*
X52364Y-40659D01*
X52007Y-40450D02*
X51992Y-40430D01*
X51964Y-40411D01*
X51892Y-40411D01*
X51864Y-40430D01*
X51849Y-40450D01*
X51835Y-40488D01*
X51835Y-40526D01*
X51849Y-40583D01*
X52021Y-40811D01*
X51835Y-40811D01*
X51649Y-40411D02*
X51621Y-40411D01*
X51592Y-40430D01*
X51578Y-40450D01*
X51564Y-40488D01*
X51549Y-40564D01*
X51549Y-40659D01*
X51564Y-40735D01*
X51578Y-40773D01*
X51592Y-40792D01*
X51621Y-40811D01*
X51649Y-40811D01*
X51678Y-40792D01*
X51692Y-40773D01*
X51707Y-40735D01*
X51721Y-40659D01*
X51721Y-40564D01*
X51707Y-40488D01*
X51692Y-40450D01*
X51678Y-40430D01*
X51649Y-40411D01*
X51364Y-40411D02*
X51335Y-40411D01*
X51307Y-40430D01*
X51292Y-40450D01*
X51278Y-40488D01*
X51264Y-40564D01*
X51264Y-40659D01*
X51278Y-40735D01*
X51292Y-40773D01*
X51307Y-40792D01*
X51335Y-40811D01*
X51364Y-40811D01*
X51392Y-40792D01*
X51407Y-40773D01*
X51421Y-40735D01*
X51435Y-40659D01*
X51435Y-40564D01*
X51421Y-40488D01*
X51407Y-40450D01*
X51392Y-40430D01*
X51364Y-40411D01*
X51121Y-40811D02*
X51064Y-40811D01*
X51035Y-40792D01*
X51021Y-40773D01*
X50992Y-40716D01*
X50978Y-40640D01*
X50978Y-40488D01*
X50992Y-40450D01*
X51007Y-40430D01*
X51035Y-40411D01*
X51092Y-40411D01*
X51121Y-40430D01*
X51135Y-40450D01*
X51149Y-40488D01*
X51149Y-40583D01*
X51135Y-40621D01*
X51121Y-40640D01*
X51092Y-40659D01*
X51035Y-40659D01*
X51007Y-40640D01*
X50992Y-40621D01*
X50978Y-40583D01*
G54D12*
G54D11*
X47521Y-28242D02*
X47221Y-28242D01*
X47435Y-28342D01*
X47221Y-28442D01*
X47521Y-28442D01*
X47221Y-28642D02*
X47221Y-28700D01*
X47235Y-28728D01*
X47264Y-28757D01*
X47321Y-28771D01*
X47421Y-28771D01*
X47478Y-28757D01*
X47507Y-28728D01*
X47521Y-28700D01*
X47521Y-28642D01*
X47507Y-28614D01*
X47478Y-28585D01*
X47421Y-28571D01*
X47321Y-28571D01*
X47264Y-28585D01*
X47235Y-28614D01*
X47221Y-28642D01*
G54D12*
G54D11*
X49507Y-28264D02*
X49521Y-28307D01*
X49521Y-28378D01*
X49507Y-28407D01*
X49492Y-28421D01*
X49464Y-28435D01*
X49435Y-28435D01*
X49407Y-28421D01*
X49392Y-28407D01*
X49378Y-28378D01*
X49364Y-28321D01*
X49350Y-28292D01*
X49335Y-28278D01*
X49307Y-28264D01*
X49278Y-28264D01*
X49250Y-28278D01*
X49235Y-28292D01*
X49221Y-28321D01*
X49221Y-28392D01*
X49235Y-28435D01*
X49492Y-28735D02*
X49507Y-28721D01*
X49521Y-28678D01*
X49521Y-28650D01*
X49507Y-28607D01*
X49478Y-28578D01*
X49450Y-28564D01*
X49392Y-28550D01*
X49350Y-28550D01*
X49292Y-28564D01*
X49264Y-28578D01*
X49235Y-28607D01*
X49221Y-28650D01*
X49221Y-28678D01*
X49235Y-28721D01*
X49250Y-28735D01*
G54D12*
G54D11*
X48521Y-28328D02*
X48221Y-28328D01*
X48435Y-28428D01*
X48221Y-28528D01*
X48521Y-28528D01*
X48521Y-28671D02*
X48221Y-28671D01*
G54D12*
G54D15*
X47650Y-33150D02*
G75*
G03X47650Y-33150I-100J0D01*
G74*
G01*
X47650Y-33550D02*
G75*
G03X47650Y-33550I-100J0D01*
G74*
G01*
X48050Y-33550D02*
G75*
G03X48050Y-33550I-100J0D01*
G74*
G01*
X48050Y-33150D02*
G75*
G03X48050Y-33150I-100J0D01*
G74*
G01*
X49250Y-33150D02*
G75*
G03X49250Y-33150I-100J0D01*
G74*
G01*
X49650Y-33150D02*
G75*
G03X49650Y-33150I-100J0D01*
G74*
G01*
X49250Y-33550D02*
G75*
G03X49250Y-33550I-100J0D01*
G74*
G01*
X48450Y-34350D02*
G75*
G03X48450Y-34350I-100J0D01*
G74*
G01*
X48850Y-34350D02*
G75*
G03X48850Y-34350I-100J0D01*
G74*
G01*
X48450Y-34750D02*
G75*
G03X48450Y-34750I-100J0D01*
G74*
G01*
X48450Y-35550D02*
G75*
G03X48450Y-35550I-100J0D01*
G74*
G01*
X48850Y-35550D02*
G75*
G03X48850Y-35550I-100J0D01*
G74*
G01*
X49250Y-35550D02*
G75*
G03X49250Y-35550I-100J0D01*
G74*
G01*
X48050Y-35550D02*
G75*
G03X48050Y-35550I-100J0D01*
G74*
G01*
X49650Y-35150D02*
G75*
G03X49650Y-35150I-100J0D01*
G74*
G01*
X50050Y-34750D02*
G75*
G03X50050Y-34750I-100J0D01*
G74*
G01*
X47650Y-35150D02*
G75*
G03X47650Y-35150I-100J0D01*
G74*
G01*
X47250Y-34750D02*
G75*
G03X47250Y-34750I-100J0D01*
G74*
G01*
X48850Y-34750D02*
G75*
G03X48850Y-34750I-100J0D01*
G74*
G01*
X49650Y-33550D02*
G75*
G03X49650Y-33550I-100J0D01*
G74*
G01*
X61150Y-33550D02*
G75*
G03X61150Y-33550I-100J0D01*
G74*
G01*
X60350Y-34750D02*
G75*
G03X60350Y-34750I-100J0D01*
G74*
G01*
X58750Y-34750D02*
G75*
G03X58750Y-34750I-100J0D01*
G74*
G01*
X59150Y-35150D02*
G75*
G03X59150Y-35150I-100J0D01*
G74*
G01*
X61550Y-34750D02*
G75*
G03X61550Y-34750I-100J0D01*
G74*
G01*
X61150Y-35150D02*
G75*
G03X61150Y-35150I-100J0D01*
G74*
G01*
X59550Y-35550D02*
G75*
G03X59550Y-35550I-100J0D01*
G74*
G01*
X60750Y-35550D02*
G75*
G03X60750Y-35550I-100J0D01*
G74*
G01*
X60350Y-35550D02*
G75*
G03X60350Y-35550I-100J0D01*
G74*
G01*
X59950Y-35550D02*
G75*
G03X59950Y-35550I-100J0D01*
G74*
G01*
X59950Y-34750D02*
G75*
G03X59950Y-34750I-100J0D01*
G74*
G01*
X60350Y-34350D02*
G75*
G03X60350Y-34350I-100J0D01*
G74*
G01*
X59950Y-34350D02*
G75*
G03X59950Y-34350I-100J0D01*
G74*
G01*
X60750Y-33550D02*
G75*
G03X60750Y-33550I-100J0D01*
G74*
G01*
X61150Y-33150D02*
G75*
G03X61150Y-33150I-100J0D01*
G74*
G01*
X60750Y-33150D02*
G75*
G03X60750Y-33150I-100J0D01*
G74*
G01*
X59550Y-33150D02*
G75*
G03X59550Y-33150I-100J0D01*
G74*
G01*
X59550Y-33550D02*
G75*
G03X59550Y-33550I-100J0D01*
G74*
G01*
X59150Y-33550D02*
G75*
G03X59150Y-33550I-100J0D01*
G74*
G01*
X59150Y-33150D02*
G75*
G03X59150Y-33150I-100J0D01*
G74*
G01*
X41700Y-21900D02*
X66450Y-21900D01*
X41700Y-46650D02*
X41700Y-21900D01*
X66450Y-46650D02*
X41700Y-46650D01*
X66450Y-21900D02*
X66450Y-46650D01*
G54D11*
X56564Y-39883D02*
X56592Y-39864D01*
X56607Y-39845D01*
X56621Y-39807D01*
X56621Y-39788D01*
X56607Y-39750D01*
X56592Y-39730D01*
X56564Y-39711D01*
X56507Y-39711D01*
X56478Y-39730D01*
X56464Y-39750D01*
X56449Y-39788D01*
X56449Y-39807D01*
X56464Y-39845D01*
X56478Y-39864D01*
X56507Y-39883D01*
X56564Y-39883D01*
X56592Y-39902D01*
X56607Y-39921D01*
X56621Y-39959D01*
X56621Y-40035D01*
X56607Y-40073D01*
X56592Y-40092D01*
X56564Y-40111D01*
X56507Y-40111D01*
X56478Y-40092D01*
X56464Y-40073D01*
X56449Y-40035D01*
X56449Y-39959D01*
X56464Y-39921D01*
X56478Y-39902D01*
X56507Y-39883D01*
X56349Y-40111D02*
X56192Y-39845D01*
X56349Y-39845D02*
X56192Y-40111D01*
X56035Y-39883D02*
X56064Y-39864D01*
X56078Y-39845D01*
X56092Y-39807D01*
X56092Y-39788D01*
X56078Y-39750D01*
X56064Y-39730D01*
X56035Y-39711D01*
X55978Y-39711D01*
X55949Y-39730D01*
X55935Y-39750D01*
X55921Y-39788D01*
X55921Y-39807D01*
X55935Y-39845D01*
X55949Y-39864D01*
X55978Y-39883D01*
X56035Y-39883D01*
X56064Y-39902D01*
X56078Y-39921D01*
X56092Y-39959D01*
X56092Y-40035D01*
X56078Y-40073D01*
X56064Y-40092D01*
X56035Y-40111D01*
X55978Y-40111D01*
X55949Y-40092D01*
X55935Y-40073D01*
X55921Y-40035D01*
X55921Y-39959D01*
X55935Y-39921D01*
X55949Y-39902D01*
X55978Y-39883D01*
X55392Y-40111D02*
X55492Y-39921D01*
X55564Y-40111D02*
X55564Y-39711D01*
X55449Y-39711D01*
X55421Y-39730D01*
X55407Y-39750D01*
X55392Y-39788D01*
X55392Y-39845D01*
X55407Y-39883D01*
X55421Y-39902D01*
X55449Y-39921D01*
X55564Y-39921D01*
X55107Y-39730D02*
X55135Y-39711D01*
X55178Y-39711D01*
X55221Y-39730D01*
X55249Y-39769D01*
X55264Y-39807D01*
X55278Y-39883D01*
X55278Y-39940D01*
X55264Y-40016D01*
X55249Y-40054D01*
X55221Y-40092D01*
X55178Y-40111D01*
X55149Y-40111D01*
X55107Y-40092D01*
X55092Y-40073D01*
X55092Y-39940D01*
X55149Y-39940D01*
X54864Y-39902D02*
X54821Y-39921D01*
X54807Y-39940D01*
X54792Y-39978D01*
X54792Y-40035D01*
X54807Y-40073D01*
X54821Y-40092D01*
X54849Y-40111D01*
X54964Y-40111D01*
X54964Y-39711D01*
X54864Y-39711D01*
X54835Y-39730D01*
X54821Y-39750D01*
X54807Y-39788D01*
X54807Y-39826D01*
X54821Y-39864D01*
X54835Y-39883D01*
X54864Y-39902D01*
X54964Y-39902D01*
X54435Y-40111D02*
X54435Y-39711D01*
X54364Y-39711D01*
X54321Y-39730D01*
X54292Y-39769D01*
X54278Y-39807D01*
X54264Y-39883D01*
X54264Y-39940D01*
X54278Y-40016D01*
X54292Y-40054D01*
X54321Y-40092D01*
X54364Y-40111D01*
X54435Y-40111D01*
X54135Y-40111D02*
X54135Y-39845D01*
X54135Y-39921D02*
X54121Y-39883D01*
X54107Y-39864D01*
X54078Y-39845D01*
X54049Y-39845D01*
X53949Y-40111D02*
X53949Y-39845D01*
X53949Y-39711D02*
X53964Y-39730D01*
X53949Y-39750D01*
X53935Y-39730D01*
X53949Y-39711D01*
X53949Y-39750D01*
X53835Y-39845D02*
X53764Y-40111D01*
X53692Y-39845D01*
X53464Y-40092D02*
X53492Y-40111D01*
X53550Y-40111D01*
X53578Y-40092D01*
X53592Y-40054D01*
X53592Y-39902D01*
X53578Y-39864D01*
X53550Y-39845D01*
X53492Y-39845D01*
X53464Y-39864D01*
X53450Y-39902D01*
X53450Y-39940D01*
X53592Y-39978D01*
X53321Y-40111D02*
X53321Y-39845D01*
X53321Y-39921D02*
X53307Y-39883D01*
X53292Y-39864D01*
X53264Y-39845D01*
X53235Y-39845D01*
X52950Y-39711D02*
X52850Y-40111D01*
X52750Y-39711D01*
X52678Y-39711D02*
X52492Y-39711D01*
X52592Y-39864D01*
X52550Y-39864D01*
X52521Y-39883D01*
X52507Y-39902D01*
X52492Y-39940D01*
X52492Y-40035D01*
X52507Y-40073D01*
X52521Y-40092D01*
X52550Y-40111D01*
X52635Y-40111D01*
X52664Y-40092D01*
X52678Y-40073D01*
X52364Y-40073D02*
X52350Y-40092D01*
X52364Y-40111D01*
X52378Y-40092D01*
X52364Y-40073D01*
X52364Y-40111D01*
X52164Y-39711D02*
X52135Y-39711D01*
X52107Y-39730D01*
X52092Y-39750D01*
X52078Y-39788D01*
X52064Y-39864D01*
X52064Y-39959D01*
X52078Y-40035D01*
X52092Y-40073D01*
X52107Y-40092D01*
X52135Y-40111D01*
X52164Y-40111D01*
X52192Y-40092D01*
X52207Y-40073D01*
X52221Y-40035D01*
X52235Y-39959D01*
X52235Y-39864D01*
X52221Y-39788D01*
X52207Y-39750D01*
X52192Y-39730D01*
X52164Y-39711D01*
X51807Y-39845D02*
X51807Y-40111D01*
X51878Y-39692D02*
X51950Y-39978D01*
X51764Y-39978D01*
G54D12*
G54D15*
X48900Y-25700D02*
X48900Y-27700D01*
X47900Y-27700D02*
X47900Y-25700D01*
X49900Y-25700D02*
X46900Y-25700D01*
X46900Y-27700D02*
X49900Y-27700D01*
X49900Y-27700D02*
X49900Y-25700D01*
X46900Y-25700D02*
X46900Y-27700D01*
X57950Y-26700D02*
X57950Y-25350D01*
X57950Y-25350D02*
X59300Y-25350D01*
X61300Y-25700D02*
X58300Y-25700D01*
X58300Y-27700D02*
X61300Y-27700D01*
X61300Y-27700D02*
X61300Y-25700D01*
X58300Y-25700D02*
X58300Y-27700D01*
X51090Y-26225D02*
X51090Y-27075D01*
X53125Y-27825D02*
X51425Y-27825D01*
X53450Y-26225D02*
X53450Y-27075D01*
X53125Y-25475D02*
X51425Y-25475D01*
X52900Y-26675D02*
G75*
G03X52900Y-26675I-650J0D01*
G74*
G01*
X54940Y-26225D02*
X54940Y-27075D01*
X56975Y-27825D02*
X55275Y-27825D01*
X57300Y-26225D02*
X57300Y-27075D01*
X56975Y-25475D02*
X55275Y-25475D01*
X56750Y-26675D02*
G75*
G03X56750Y-26675I-650J0D01*
G74*
G01*
G54D14*
X59200Y-24300D02*
X59200Y-23300D01*
X59200Y-23300D02*
X49200Y-23300D01*
X49200Y-23300D02*
X49200Y-24300D01*
X49200Y-24300D02*
X59200Y-24300D01*
X58200Y-24300D02*
X58200Y-23300D01*
X59200Y-45300D02*
X59200Y-44300D01*
X59200Y-44300D02*
X49200Y-44300D01*
X49200Y-44300D02*
X49200Y-45300D01*
X49200Y-45300D02*
X59200Y-45300D01*
X58200Y-45300D02*
X58200Y-44300D01*
X57200Y-30300D02*
X57200Y-29300D01*
X57200Y-29300D02*
X51200Y-29300D01*
X51200Y-29300D02*
X51200Y-30300D01*
X51200Y-30300D02*
X57200Y-30300D01*
X56200Y-30300D02*
X56200Y-29300D01*
X46428Y-26188D02*
X46452Y-26259D01*
X46452Y-26378D01*
X46428Y-26426D01*
X46404Y-26450D01*
X46357Y-26473D01*
X46309Y-26473D01*
X46261Y-26450D01*
X46238Y-26426D01*
X46214Y-26378D01*
X46190Y-26283D01*
X46166Y-26235D01*
X46142Y-26211D01*
X46095Y-26188D01*
X46047Y-26188D01*
X46000Y-26211D01*
X45976Y-26235D01*
X45952Y-26283D01*
X45952Y-26402D01*
X45976Y-26473D01*
X46452Y-26688D02*
X45952Y-26688D01*
X45952Y-26878D01*
X45976Y-26926D01*
X46000Y-26950D01*
X46047Y-26973D01*
X46119Y-26973D01*
X46166Y-26950D01*
X46190Y-26926D01*
X46214Y-26878D01*
X46214Y-26688D01*
X46452Y-27188D02*
X45952Y-27188D01*
X62152Y-25961D02*
X61652Y-25961D01*
X62104Y-26485D02*
X62128Y-26461D01*
X62152Y-26390D01*
X62152Y-26342D01*
X62128Y-26271D01*
X62080Y-26223D01*
X62033Y-26200D01*
X61938Y-26176D01*
X61866Y-26176D01*
X61771Y-26200D01*
X61723Y-26223D01*
X61676Y-26271D01*
X61652Y-26342D01*
X61652Y-26390D01*
X61676Y-26461D01*
X61700Y-26485D01*
X62128Y-26676D02*
X62152Y-26747D01*
X62152Y-26866D01*
X62128Y-26914D01*
X62104Y-26938D01*
X62057Y-26961D01*
X62009Y-26961D01*
X61961Y-26938D01*
X61938Y-26914D01*
X61914Y-26866D01*
X61890Y-26771D01*
X61866Y-26723D01*
X61842Y-26700D01*
X61795Y-26676D01*
X61747Y-26676D01*
X61700Y-26700D01*
X61676Y-26723D01*
X61652Y-26771D01*
X61652Y-26890D01*
X61676Y-26961D01*
X62152Y-27176D02*
X61652Y-27176D01*
X61652Y-27366D01*
X61676Y-27414D01*
X61700Y-27438D01*
X61747Y-27461D01*
X61819Y-27461D01*
X61866Y-27438D01*
X61890Y-27414D01*
X61914Y-27366D01*
X61914Y-27176D01*
G54D11*
X52414Y-24971D02*
X52514Y-24828D01*
X52585Y-24971D02*
X52585Y-24671D01*
X52471Y-24671D01*
X52442Y-24685D01*
X52428Y-24700D01*
X52414Y-24728D01*
X52414Y-24771D01*
X52428Y-24800D01*
X52442Y-24814D01*
X52471Y-24828D01*
X52585Y-24828D01*
X52299Y-24957D02*
X52257Y-24971D01*
X52185Y-24971D01*
X52157Y-24957D01*
X52142Y-24942D01*
X52128Y-24914D01*
X52128Y-24885D01*
X52142Y-24857D01*
X52157Y-24842D01*
X52185Y-24828D01*
X52242Y-24814D01*
X52271Y-24800D01*
X52285Y-24785D01*
X52299Y-24757D01*
X52299Y-24728D01*
X52285Y-24700D01*
X52271Y-24685D01*
X52242Y-24671D01*
X52171Y-24671D01*
X52128Y-24685D01*
X52042Y-24671D02*
X51871Y-24671D01*
X51957Y-24971D02*
X51957Y-24671D01*
G54D12*
G54D11*
X56357Y-24957D02*
X56314Y-24971D01*
X56242Y-24971D01*
X56214Y-24957D01*
X56199Y-24942D01*
X56185Y-24914D01*
X56185Y-24885D01*
X56199Y-24857D01*
X56214Y-24842D01*
X56242Y-24828D01*
X56299Y-24814D01*
X56328Y-24800D01*
X56342Y-24785D01*
X56357Y-24757D01*
X56357Y-24728D01*
X56342Y-24700D01*
X56328Y-24685D01*
X56299Y-24671D01*
X56228Y-24671D01*
X56185Y-24685D01*
X56085Y-24671D02*
X56014Y-24971D01*
X55957Y-24757D01*
X55900Y-24971D01*
X55828Y-24671D01*
G54D12*
G54D16*
X48853Y-23959D02*
X48853Y-23565D01*
X48703Y-23565D01*
X48665Y-23584D01*
X48646Y-23603D01*
X48628Y-23640D01*
X48628Y-23696D01*
X48646Y-23734D01*
X48665Y-23753D01*
X48703Y-23771D01*
X48853Y-23771D01*
X48384Y-23565D02*
X48309Y-23565D01*
X48271Y-23584D01*
X48234Y-23621D01*
X48215Y-23696D01*
X48215Y-23828D01*
X48234Y-23903D01*
X48271Y-23940D01*
X48309Y-23959D01*
X48384Y-23959D01*
X48421Y-23940D01*
X48459Y-23903D01*
X48478Y-23828D01*
X48478Y-23696D01*
X48459Y-23621D01*
X48421Y-23584D01*
X48384Y-23565D01*
X47821Y-23959D02*
X47953Y-23771D01*
X48046Y-23959D02*
X48046Y-23565D01*
X47896Y-23565D01*
X47859Y-23584D01*
X47840Y-23603D01*
X47821Y-23640D01*
X47821Y-23696D01*
X47840Y-23734D01*
X47859Y-23753D01*
X47896Y-23771D01*
X48046Y-23771D01*
X47709Y-23565D02*
X47484Y-23565D01*
X47596Y-23959D02*
X47596Y-23565D01*
X47128Y-23921D02*
X47146Y-23940D01*
X47203Y-23959D01*
X47240Y-23959D01*
X47296Y-23940D01*
X47334Y-23903D01*
X47353Y-23865D01*
X47371Y-23790D01*
X47371Y-23734D01*
X47353Y-23659D01*
X47334Y-23621D01*
X47296Y-23584D01*
X47240Y-23565D01*
X47203Y-23565D01*
X47146Y-23584D01*
X47128Y-23603D01*
X48853Y-44959D02*
X48853Y-44565D01*
X48703Y-44565D01*
X48665Y-44584D01*
X48646Y-44603D01*
X48628Y-44640D01*
X48628Y-44696D01*
X48646Y-44734D01*
X48665Y-44753D01*
X48703Y-44771D01*
X48853Y-44771D01*
X48384Y-44565D02*
X48309Y-44565D01*
X48271Y-44584D01*
X48234Y-44621D01*
X48215Y-44696D01*
X48215Y-44828D01*
X48234Y-44903D01*
X48271Y-44940D01*
X48309Y-44959D01*
X48384Y-44959D01*
X48421Y-44940D01*
X48459Y-44903D01*
X48478Y-44828D01*
X48478Y-44696D01*
X48459Y-44621D01*
X48421Y-44584D01*
X48384Y-44565D01*
X47821Y-44959D02*
X47953Y-44771D01*
X48046Y-44959D02*
X48046Y-44565D01*
X47896Y-44565D01*
X47859Y-44584D01*
X47840Y-44603D01*
X47821Y-44640D01*
X47821Y-44696D01*
X47840Y-44734D01*
X47859Y-44753D01*
X47896Y-44771D01*
X48046Y-44771D01*
X47709Y-44565D02*
X47484Y-44565D01*
X47596Y-44959D02*
X47596Y-44565D01*
X47353Y-44959D02*
X47353Y-44565D01*
X47259Y-44565D01*
X47203Y-44584D01*
X47165Y-44621D01*
X47146Y-44659D01*
X47128Y-44734D01*
X47128Y-44790D01*
X47146Y-44865D01*
X47165Y-44903D01*
X47203Y-44940D01*
X47259Y-44959D01*
X47353Y-44959D01*
X54584Y-30835D02*
X54715Y-30835D01*
X54715Y-31042D02*
X54715Y-30648D01*
X54528Y-30648D01*
X54434Y-30648D02*
X54209Y-30648D01*
X54321Y-31042D02*
X54321Y-30648D01*
X54078Y-31042D02*
X54078Y-30648D01*
X53984Y-30648D01*
X53928Y-30667D01*
X53890Y-30704D01*
X53871Y-30742D01*
X53853Y-30817D01*
X53853Y-30873D01*
X53871Y-30948D01*
X53890Y-30985D01*
X53928Y-31023D01*
X53984Y-31042D01*
X54078Y-31042D01*
X53684Y-31042D02*
X53684Y-30648D01*
%LPC*%
G54D17*
X55365Y-38600D03*
X53435Y-38600D03*
G54D18*
X47400Y-26200D03*
G54D19*
X47400Y-27200D03*
X48400Y-26200D03*
X48400Y-27200D03*
X49400Y-26200D03*
X49400Y-27200D03*
G54D18*
X58800Y-26200D03*
G54D19*
X58800Y-27200D03*
X59800Y-26200D03*
X59800Y-27200D03*
X60800Y-26200D03*
X60800Y-27200D03*
G54D17*
X53450Y-28550D03*
X52450Y-28550D03*
X56500Y-36550D03*
X57500Y-36550D03*
X50972Y-36542D03*
X51972Y-36542D03*
G54D20*
X50986Y-41609D03*
G54D21*
X50986Y-43109D03*
G54D17*
X47800Y-42000D03*
X48800Y-42000D03*
G54D22*
X42600Y-26800D03*
G54D17*
X43600Y-26800D03*
X64400Y-34800D03*
X65400Y-34800D03*
X64400Y-35800D03*
X65400Y-35800D03*
X64400Y-36800D03*
X65400Y-36800D03*
X64450Y-37800D03*
X65450Y-37800D03*
X64400Y-38800D03*
X65400Y-38800D03*
X64400Y-39800D03*
X65400Y-39800D03*
X64400Y-40800D03*
X65400Y-40800D03*
X64400Y-41800D03*
X65400Y-41800D03*
X43700Y-30800D03*
X42700Y-30800D03*
X43700Y-31800D03*
X42700Y-31800D03*
X43700Y-32800D03*
X42700Y-32800D03*
X43700Y-33800D03*
X42700Y-33800D03*
X43700Y-34800D03*
X42700Y-34800D03*
X43700Y-35800D03*
X42700Y-35800D03*
X43700Y-36800D03*
X42700Y-36800D03*
X43700Y-37800D03*
X42700Y-37800D03*
X64400Y-26800D03*
X65400Y-26800D03*
X64400Y-27800D03*
X65400Y-27800D03*
X64400Y-28800D03*
X65400Y-28800D03*
X64400Y-29800D03*
X65400Y-29800D03*
X64400Y-30800D03*
X65400Y-30800D03*
X64400Y-31800D03*
X65400Y-31800D03*
X64400Y-32800D03*
X65400Y-32800D03*
X64400Y-33800D03*
X65400Y-33800D03*
X42600Y-28900D03*
X43600Y-28900D03*
X58650Y-41700D03*
X59650Y-41700D03*
G54D23*
X43924Y-24186D03*
X43924Y-44658D03*
X64397Y-24186D03*
X64397Y-44658D03*
G54D17*
X58650Y-43100D03*
X59650Y-43100D03*
G54D19*
X45080Y-26784D03*
X45080Y-27784D03*
X45080Y-28784D03*
X45080Y-29784D03*
X45080Y-30784D03*
X45080Y-31784D03*
X45080Y-32784D03*
X45080Y-34784D03*
X45080Y-35784D03*
X45080Y-36784D03*
X45080Y-37784D03*
X45080Y-38784D03*
X45080Y-39784D03*
X45080Y-40784D03*
X45080Y-41784D03*
X63100Y-26780D03*
X63100Y-27780D03*
X63100Y-28780D03*
X63100Y-29780D03*
X63100Y-30780D03*
X63100Y-31780D03*
X63100Y-32780D03*
X63100Y-33780D03*
X63100Y-34780D03*
X63100Y-35780D03*
X63100Y-36780D03*
X63100Y-37780D03*
X63100Y-38780D03*
X63100Y-39780D03*
X63100Y-40780D03*
G54D18*
X63100Y-41780D03*
G54D17*
X45080Y-33784D03*
G54D19*
X53550Y-25775D03*
X51000Y-25775D03*
X53550Y-27525D03*
X51000Y-27525D03*
X57400Y-25775D03*
X54850Y-25775D03*
X57400Y-27525D03*
X54850Y-27525D03*
G54D18*
X58700Y-23800D03*
G54D19*
X57700Y-23800D03*
X56700Y-23800D03*
X55700Y-23800D03*
X54700Y-23800D03*
X53700Y-23800D03*
X52700Y-23800D03*
X51700Y-23800D03*
X50700Y-23800D03*
X49700Y-23800D03*
G54D18*
X58700Y-44800D03*
G54D19*
X57700Y-44800D03*
X56700Y-44800D03*
X55700Y-44800D03*
X54700Y-44800D03*
X53700Y-44800D03*
X52700Y-44800D03*
X51700Y-44800D03*
X50700Y-44800D03*
X49700Y-44800D03*
G54D18*
X56700Y-29800D03*
G54D19*
X55700Y-29800D03*
X54700Y-29800D03*
X53700Y-29800D03*
X52700Y-29800D03*
X51700Y-29800D03*
G54D18*
X54950Y-28550D03*
G54D19*
X55950Y-28550D03*
M02*
