G04 (Genere par PCBnew (20080825)) le 8/6/2009-03:58:39*
G01*
G70*
G90*
%MOIN*%
G04 Gerber Fmt 3.4, Leading zero omitted, Abs format*
%FSLAX34Y34*%
G04 APERTURE LIST*
%ADD10C,0.008000*%
%ADD11R,0.055000X0.055000*%
%ADD12C,0.055000*%
%ADD13R,0.060000X0.060000*%
%ADD14C,0.060000*%
%ADD15R,0.065000X0.065000*%
%ADD16C,0.065000*%
%ADD17C,0.160000*%
%ADD18C,0.045000*%
%ADD19C,0.014000*%
%ADD20C,0.028000*%
%ADD21R,0.086600X0.023600*%
%ADD22R,0.078700X0.017700*%
%ADD23R,0.017700X0.078700*%
%ADD24C,0.017400*%
%ADD25C,0.010000*%
%ADD26C,0.012000*%
%ADD27C,0.015000*%
G04 APERTURE END LIST*
G54D10*
X51850Y-45707D02*
X51550Y-45707D01*
X51550Y-45669D02*
X51550Y-45894D01*
X51550Y-45894D02*
X51584Y-45932D01*
X51584Y-45932D02*
X51817Y-45932D01*
X51817Y-45932D02*
X51850Y-45894D01*
X51850Y-45894D02*
X51850Y-45669D01*
X51550Y-46082D02*
X51550Y-46345D01*
X51550Y-46345D02*
X51850Y-46082D01*
G54D25*
X49650Y-45700D02*
X49650Y-46100D01*
X50500Y-45900D02*
X50900Y-45900D01*
X50700Y-45700D02*
X50700Y-46100D01*
X49700Y-22500D02*
X49700Y-22900D01*
X50700Y-22900D02*
X50700Y-22500D01*
X50500Y-22700D02*
X50900Y-22700D01*
G54D10*
X53817Y-24569D02*
X53850Y-24607D01*
X53850Y-24607D02*
X53850Y-24794D01*
X53850Y-24794D02*
X53817Y-24832D01*
X53817Y-24832D02*
X53717Y-24832D01*
X53717Y-24832D02*
X53684Y-24794D01*
X53684Y-24794D02*
X53684Y-24607D01*
X53684Y-24607D02*
X53650Y-24569D01*
X53650Y-24569D02*
X53584Y-24569D01*
X53584Y-24569D02*
X53550Y-24607D01*
X53550Y-24607D02*
X53550Y-24794D01*
X53550Y-24794D02*
X53584Y-24832D01*
X53817Y-25245D02*
X53850Y-25207D01*
X53850Y-25207D02*
X53850Y-25020D01*
X53850Y-25020D02*
X53817Y-24982D01*
X53817Y-24982D02*
X53584Y-24982D01*
X53584Y-24982D02*
X53550Y-25020D01*
X53550Y-25020D02*
X53550Y-25207D01*
X53550Y-25207D02*
X53584Y-25245D01*
X54817Y-24569D02*
X54850Y-24607D01*
X54850Y-24607D02*
X54850Y-24794D01*
X54850Y-24794D02*
X54817Y-24832D01*
X54817Y-24832D02*
X54717Y-24832D01*
X54717Y-24832D02*
X54684Y-24794D01*
X54684Y-24794D02*
X54684Y-24607D01*
X54684Y-24607D02*
X54650Y-24569D01*
X54650Y-24569D02*
X54584Y-24569D01*
X54584Y-24569D02*
X54550Y-24607D01*
X54550Y-24607D02*
X54550Y-24794D01*
X54550Y-24794D02*
X54584Y-24832D01*
X54850Y-25020D02*
X54550Y-25020D01*
X54550Y-24982D02*
X54550Y-25207D01*
X54550Y-25207D02*
X54584Y-25245D01*
X54584Y-25245D02*
X54817Y-25245D01*
X54817Y-25245D02*
X54850Y-25207D01*
X54850Y-25207D02*
X54850Y-24982D01*
X54550Y-42813D02*
X54850Y-42813D01*
X54850Y-42813D02*
X54850Y-43113D01*
X54850Y-43489D02*
X54850Y-43226D01*
X54850Y-43226D02*
X54550Y-43226D01*
X54550Y-43226D02*
X54550Y-43489D01*
X54684Y-43226D02*
X54684Y-43376D01*
X54850Y-43677D02*
X54550Y-43677D01*
X54550Y-43639D02*
X54550Y-43864D01*
X54550Y-43864D02*
X54584Y-43902D01*
X54584Y-43902D02*
X54817Y-43902D01*
X54817Y-43902D02*
X54850Y-43864D01*
X54850Y-43864D02*
X54850Y-43639D01*
X53850Y-42813D02*
X53550Y-42813D01*
X53550Y-42813D02*
X53550Y-43038D01*
X53550Y-43038D02*
X53584Y-43076D01*
X53584Y-43076D02*
X53684Y-43076D01*
X53684Y-43076D02*
X53717Y-43038D01*
X53717Y-43038D02*
X53717Y-42813D01*
X53550Y-43226D02*
X53850Y-43301D01*
X53850Y-43301D02*
X53750Y-43376D01*
X53750Y-43376D02*
X53850Y-43451D01*
X53850Y-43451D02*
X53550Y-43526D01*
X53850Y-43639D02*
X53550Y-43639D01*
X53550Y-43639D02*
X53684Y-43789D01*
X53684Y-43789D02*
X53550Y-43939D01*
X53550Y-43939D02*
X53850Y-43939D01*
X52850Y-42813D02*
X52550Y-42813D01*
X52550Y-42813D02*
X52550Y-43038D01*
X52550Y-43038D02*
X52584Y-43076D01*
X52584Y-43076D02*
X52684Y-43076D01*
X52684Y-43076D02*
X52717Y-43038D01*
X52717Y-43038D02*
X52717Y-42813D01*
X52550Y-43226D02*
X52850Y-43301D01*
X52850Y-43301D02*
X52750Y-43376D01*
X52750Y-43376D02*
X52850Y-43451D01*
X52850Y-43451D02*
X52550Y-43526D01*
X52850Y-43639D02*
X52550Y-43639D01*
X52550Y-43639D02*
X52684Y-43789D01*
X52684Y-43789D02*
X52550Y-43939D01*
X52550Y-43939D02*
X52850Y-43939D01*
X55850Y-42813D02*
X55550Y-42813D01*
X55550Y-42813D02*
X55550Y-43038D01*
X55550Y-43038D02*
X55584Y-43076D01*
X55584Y-43076D02*
X55684Y-43076D01*
X55684Y-43076D02*
X55717Y-43038D01*
X55717Y-43038D02*
X55717Y-42813D01*
X55550Y-43226D02*
X55850Y-43301D01*
X55850Y-43301D02*
X55750Y-43376D01*
X55750Y-43376D02*
X55850Y-43451D01*
X55850Y-43451D02*
X55550Y-43526D01*
X55850Y-43639D02*
X55550Y-43639D01*
X55550Y-43639D02*
X55684Y-43789D01*
X55684Y-43789D02*
X55550Y-43939D01*
X55550Y-43939D02*
X55850Y-43939D01*
X52850Y-45707D02*
X52550Y-45707D01*
X52550Y-45669D02*
X52550Y-45894D01*
X52550Y-45894D02*
X52584Y-45932D01*
X52584Y-45932D02*
X52817Y-45932D01*
X52817Y-45932D02*
X52850Y-45894D01*
X52850Y-45894D02*
X52850Y-45669D01*
X52584Y-46345D02*
X52550Y-46307D01*
X52550Y-46307D02*
X52550Y-46120D01*
X52550Y-46120D02*
X52584Y-46082D01*
X52584Y-46082D02*
X52817Y-46082D01*
X52817Y-46082D02*
X52850Y-46120D01*
X52850Y-46120D02*
X52850Y-46307D01*
X52850Y-46307D02*
X52817Y-46345D01*
X52817Y-46345D02*
X52717Y-46345D01*
X52717Y-46345D02*
X52684Y-46307D01*
X52684Y-46307D02*
X52684Y-46120D01*
X52684Y-46120D02*
X52717Y-46082D01*
X53850Y-45707D02*
X53550Y-45707D01*
X53550Y-45669D02*
X53550Y-45894D01*
X53550Y-45894D02*
X53584Y-45932D01*
X53584Y-45932D02*
X53817Y-45932D01*
X53817Y-45932D02*
X53850Y-45894D01*
X53850Y-45894D02*
X53850Y-45669D01*
X53784Y-46082D02*
X53817Y-46082D01*
X53817Y-46082D02*
X53850Y-46120D01*
X53850Y-46120D02*
X53850Y-46307D01*
X53850Y-46307D02*
X53817Y-46345D01*
X53817Y-46345D02*
X53717Y-46345D01*
X53717Y-46345D02*
X53650Y-46270D01*
X53650Y-46270D02*
X53650Y-46082D01*
X53650Y-46082D02*
X53550Y-46082D01*
X53550Y-46082D02*
X53550Y-46345D01*
X56850Y-45707D02*
X56550Y-45707D01*
X56550Y-45669D02*
X56550Y-45894D01*
X56550Y-45894D02*
X56584Y-45932D01*
X56584Y-45932D02*
X56817Y-45932D01*
X56817Y-45932D02*
X56850Y-45894D01*
X56850Y-45894D02*
X56850Y-45669D01*
X56850Y-46345D02*
X56850Y-46082D01*
X56850Y-46082D02*
X56750Y-46082D01*
X56750Y-46082D02*
X56717Y-46120D01*
X56717Y-46120D02*
X56717Y-46307D01*
X56717Y-46307D02*
X56684Y-46345D01*
X56684Y-46345D02*
X56584Y-46345D01*
X56584Y-46345D02*
X56550Y-46307D01*
X56550Y-46307D02*
X56550Y-46120D01*
X56550Y-46120D02*
X56584Y-46082D01*
X55850Y-45707D02*
X55550Y-45707D01*
X55550Y-45669D02*
X55550Y-45894D01*
X55550Y-45894D02*
X55584Y-45932D01*
X55584Y-45932D02*
X55817Y-45932D01*
X55817Y-45932D02*
X55850Y-45894D01*
X55850Y-45894D02*
X55850Y-45669D01*
X55550Y-46082D02*
X55550Y-46345D01*
X55550Y-46345D02*
X55584Y-46345D01*
X55584Y-46345D02*
X55684Y-46195D01*
X55684Y-46195D02*
X55684Y-46307D01*
X55684Y-46307D02*
X55717Y-46345D01*
X55717Y-46345D02*
X55817Y-46345D01*
X55817Y-46345D02*
X55850Y-46307D01*
X55850Y-46307D02*
X55850Y-46120D01*
X55850Y-46120D02*
X55817Y-46082D01*
X54850Y-45707D02*
X54550Y-45707D01*
X54550Y-45669D02*
X54550Y-45894D01*
X54550Y-45894D02*
X54584Y-45932D01*
X54584Y-45932D02*
X54817Y-45932D01*
X54817Y-45932D02*
X54850Y-45894D01*
X54850Y-45894D02*
X54850Y-45669D01*
X54850Y-46270D02*
X54550Y-46270D01*
X54550Y-46270D02*
X54784Y-46082D01*
X54784Y-46082D02*
X54784Y-46345D01*
X57550Y-45669D02*
X57550Y-45969D01*
X57550Y-45819D02*
X57850Y-45819D01*
X57850Y-46082D02*
X57550Y-46345D01*
X57550Y-46082D02*
X57850Y-46345D01*
X58850Y-45669D02*
X58550Y-45669D01*
X58550Y-45669D02*
X58550Y-45894D01*
X58550Y-45894D02*
X58584Y-45932D01*
X58584Y-45932D02*
X58684Y-45932D01*
X58684Y-45932D02*
X58717Y-45894D01*
X58717Y-45894D02*
X58717Y-45669D01*
X58717Y-45782D02*
X58850Y-45932D01*
X58850Y-46082D02*
X58550Y-46345D01*
X58550Y-46082D02*
X58850Y-46345D01*
G54D26*
X59450Y-44800D02*
X59900Y-44550D01*
X59900Y-44550D02*
X59900Y-45050D01*
X59900Y-45050D02*
X59450Y-44800D01*
X59600Y-44800D02*
X59800Y-44700D01*
X59800Y-44700D02*
X59800Y-44900D01*
X59800Y-44900D02*
X59600Y-44800D01*
X59600Y-44800D02*
X59850Y-44800D01*
X59600Y-23800D02*
X59850Y-23800D01*
X59800Y-23900D02*
X59600Y-23800D01*
X59800Y-23700D02*
X59800Y-23900D01*
X59600Y-23800D02*
X59800Y-23700D01*
X59900Y-24050D02*
X59450Y-23800D01*
X59900Y-23550D02*
X59900Y-24050D01*
X59450Y-23800D02*
X59900Y-23550D01*
G54D10*
X58850Y-22369D02*
X58617Y-22369D01*
X58617Y-22369D02*
X58550Y-22444D01*
X58550Y-22444D02*
X58550Y-22557D01*
X58550Y-22557D02*
X58617Y-22632D01*
X58617Y-22632D02*
X58850Y-22632D01*
X58684Y-22369D02*
X58684Y-22632D01*
X58850Y-22782D02*
X58550Y-23045D01*
X58817Y-22782D02*
X58584Y-22782D01*
X58584Y-22782D02*
X58550Y-22820D01*
X58550Y-22820D02*
X58550Y-23007D01*
X58550Y-23007D02*
X58584Y-23045D01*
X58584Y-23045D02*
X58817Y-23045D01*
X58817Y-23045D02*
X58850Y-23007D01*
X58850Y-23007D02*
X58850Y-22820D01*
X58850Y-22820D02*
X58817Y-22782D01*
X57850Y-22369D02*
X57617Y-22369D01*
X57617Y-22369D02*
X57550Y-22444D01*
X57550Y-22444D02*
X57550Y-22557D01*
X57550Y-22557D02*
X57617Y-22632D01*
X57617Y-22632D02*
X57850Y-22632D01*
X57684Y-22369D02*
X57684Y-22632D01*
X57850Y-22857D02*
X57850Y-23007D01*
X57850Y-22932D02*
X57550Y-22932D01*
X57584Y-22932D02*
X57650Y-22857D01*
X54850Y-22369D02*
X54617Y-22369D01*
X54617Y-22369D02*
X54550Y-22444D01*
X54550Y-22444D02*
X54550Y-22557D01*
X54550Y-22557D02*
X54617Y-22632D01*
X54617Y-22632D02*
X54850Y-22632D01*
X54684Y-22369D02*
X54684Y-22632D01*
X54850Y-22970D02*
X54550Y-22970D01*
X54550Y-22970D02*
X54784Y-22782D01*
X54784Y-22782D02*
X54784Y-23045D01*
X55850Y-22369D02*
X55617Y-22369D01*
X55617Y-22369D02*
X55550Y-22444D01*
X55550Y-22444D02*
X55550Y-22557D01*
X55550Y-22557D02*
X55617Y-22632D01*
X55617Y-22632D02*
X55850Y-22632D01*
X55684Y-22369D02*
X55684Y-22632D01*
X55550Y-22782D02*
X55550Y-23045D01*
X55550Y-23045D02*
X55584Y-23045D01*
X55584Y-23045D02*
X55684Y-22895D01*
X55684Y-22895D02*
X55684Y-23007D01*
X55684Y-23007D02*
X55717Y-23045D01*
X55717Y-23045D02*
X55817Y-23045D01*
X55817Y-23045D02*
X55850Y-23007D01*
X55850Y-23007D02*
X55850Y-22820D01*
X55850Y-22820D02*
X55817Y-22782D01*
X56850Y-22369D02*
X56617Y-22369D01*
X56617Y-22369D02*
X56550Y-22444D01*
X56550Y-22444D02*
X56550Y-22557D01*
X56550Y-22557D02*
X56617Y-22632D01*
X56617Y-22632D02*
X56850Y-22632D01*
X56684Y-22369D02*
X56684Y-22632D01*
X56850Y-23045D02*
X56850Y-22782D01*
X56850Y-22782D02*
X56750Y-22782D01*
X56750Y-22782D02*
X56717Y-22820D01*
X56717Y-22820D02*
X56717Y-23007D01*
X56717Y-23007D02*
X56684Y-23045D01*
X56684Y-23045D02*
X56584Y-23045D01*
X56584Y-23045D02*
X56550Y-23007D01*
X56550Y-23007D02*
X56550Y-22820D01*
X56550Y-22820D02*
X56584Y-22782D01*
X53850Y-22369D02*
X53617Y-22369D01*
X53617Y-22369D02*
X53550Y-22444D01*
X53550Y-22444D02*
X53550Y-22557D01*
X53550Y-22557D02*
X53617Y-22632D01*
X53617Y-22632D02*
X53850Y-22632D01*
X53684Y-22369D02*
X53684Y-22632D01*
X53784Y-22782D02*
X53817Y-22782D01*
X53817Y-22782D02*
X53850Y-22820D01*
X53850Y-22820D02*
X53850Y-23007D01*
X53850Y-23007D02*
X53817Y-23045D01*
X53817Y-23045D02*
X53717Y-23045D01*
X53717Y-23045D02*
X53650Y-22970D01*
X53650Y-22970D02*
X53650Y-22782D01*
X53650Y-22782D02*
X53550Y-22782D01*
X53550Y-22782D02*
X53550Y-23045D01*
X52850Y-22369D02*
X52617Y-22369D01*
X52617Y-22369D02*
X52550Y-22444D01*
X52550Y-22444D02*
X52550Y-22557D01*
X52550Y-22557D02*
X52617Y-22632D01*
X52617Y-22632D02*
X52850Y-22632D01*
X52684Y-22369D02*
X52684Y-22632D01*
X52584Y-23045D02*
X52550Y-23007D01*
X52550Y-23007D02*
X52550Y-22820D01*
X52550Y-22820D02*
X52584Y-22782D01*
X52584Y-22782D02*
X52817Y-22782D01*
X52817Y-22782D02*
X52850Y-22820D01*
X52850Y-22820D02*
X52850Y-23007D01*
X52850Y-23007D02*
X52817Y-23045D01*
X52817Y-23045D02*
X52717Y-23045D01*
X52717Y-23045D02*
X52684Y-23007D01*
X52684Y-23007D02*
X52684Y-22820D01*
X52684Y-22820D02*
X52717Y-22782D01*
X51850Y-22369D02*
X51617Y-22369D01*
X51617Y-22369D02*
X51550Y-22444D01*
X51550Y-22444D02*
X51550Y-22557D01*
X51550Y-22557D02*
X51617Y-22632D01*
X51617Y-22632D02*
X51850Y-22632D01*
X51684Y-22369D02*
X51684Y-22632D01*
X51550Y-22782D02*
X51550Y-23045D01*
X51550Y-23045D02*
X51850Y-22782D01*
X59900Y-40450D02*
X59900Y-40850D01*
X59900Y-40850D02*
X59637Y-40850D01*
X59637Y-40850D02*
X59637Y-40673D01*
X59637Y-40673D02*
X59675Y-40628D01*
X59675Y-40628D02*
X59900Y-40628D01*
X59412Y-40450D02*
X59374Y-40450D01*
X59374Y-40450D02*
X59374Y-40850D01*
X59412Y-40850D02*
X59337Y-40850D01*
X59036Y-40850D02*
X59074Y-40806D01*
X59074Y-40806D02*
X59074Y-40628D01*
X59074Y-40628D02*
X59036Y-40584D01*
X59036Y-40584D02*
X58849Y-40584D01*
X58849Y-40584D02*
X58811Y-40628D01*
X58811Y-40628D02*
X58811Y-40806D01*
X58811Y-40806D02*
X58849Y-40850D01*
X58849Y-40850D02*
X59036Y-40850D01*
X58661Y-40938D02*
X58623Y-40983D01*
X58623Y-40983D02*
X58436Y-40983D01*
X58436Y-40983D02*
X58398Y-40938D01*
X58398Y-40938D02*
X58398Y-40628D01*
X58398Y-40628D02*
X58436Y-40584D01*
X58436Y-40584D02*
X58623Y-40584D01*
X58623Y-40584D02*
X58661Y-40628D01*
X58661Y-40628D02*
X58661Y-40806D01*
X58661Y-40806D02*
X58623Y-40850D01*
X58623Y-40850D02*
X58436Y-40850D01*
X58436Y-40850D02*
X58398Y-40806D01*
X58135Y-40850D02*
X58135Y-40806D01*
X57835Y-40806D02*
X57797Y-40850D01*
X57797Y-40850D02*
X57610Y-40850D01*
X57610Y-40850D02*
X57572Y-40806D01*
X57572Y-40806D02*
X57572Y-40762D01*
X57572Y-40762D02*
X57610Y-40717D01*
X57610Y-40717D02*
X57797Y-40717D01*
X57797Y-40717D02*
X57835Y-40673D01*
X57835Y-40673D02*
X57835Y-40628D01*
X57835Y-40628D02*
X57797Y-40584D01*
X57797Y-40584D02*
X57610Y-40584D01*
X57610Y-40584D02*
X57572Y-40628D01*
X57422Y-40983D02*
X57422Y-40584D01*
X57422Y-40628D02*
X57384Y-40584D01*
X57384Y-40584D02*
X57197Y-40584D01*
X57197Y-40584D02*
X57159Y-40628D01*
X57159Y-40628D02*
X57159Y-40806D01*
X57159Y-40806D02*
X57197Y-40850D01*
X57197Y-40850D02*
X57384Y-40850D01*
X57384Y-40850D02*
X57422Y-40806D01*
X56896Y-40450D02*
X56896Y-40495D01*
X56896Y-40628D02*
X56896Y-40806D01*
X56896Y-40806D02*
X56859Y-40850D01*
X56859Y-40850D02*
X56821Y-40850D01*
X56371Y-40806D02*
X56408Y-40850D01*
X56408Y-40850D02*
X56521Y-40850D01*
X56521Y-40850D02*
X56558Y-40806D01*
X56558Y-40806D02*
X56558Y-40450D01*
X56558Y-40584D02*
X56446Y-40584D01*
X56183Y-40584D02*
X55920Y-40584D01*
X55920Y-40584D02*
X56183Y-40850D01*
X56183Y-40850D02*
X55920Y-40850D01*
X55770Y-40717D02*
X55507Y-40717D01*
X55507Y-40717D02*
X55507Y-40628D01*
X55507Y-40628D02*
X55545Y-40584D01*
X55545Y-40584D02*
X55732Y-40584D01*
X55732Y-40584D02*
X55770Y-40628D01*
X55770Y-40628D02*
X55770Y-40806D01*
X55770Y-40806D02*
X55732Y-40850D01*
X55732Y-40850D02*
X55545Y-40850D01*
X55545Y-40850D02*
X55507Y-40806D01*
X55357Y-40850D02*
X55357Y-40584D01*
X55357Y-40628D02*
X55319Y-40584D01*
X55319Y-40584D02*
X55169Y-40584D01*
X55169Y-40584D02*
X55132Y-40628D01*
X55132Y-40628D02*
X55132Y-40850D01*
X54944Y-40983D02*
X54944Y-40584D01*
X54944Y-40628D02*
X54906Y-40584D01*
X54906Y-40584D02*
X54719Y-40584D01*
X54719Y-40584D02*
X54681Y-40628D01*
X54681Y-40628D02*
X54681Y-40806D01*
X54681Y-40806D02*
X54719Y-40850D01*
X54719Y-40850D02*
X54906Y-40850D01*
X54906Y-40850D02*
X54944Y-40806D01*
X54493Y-40850D02*
X54493Y-40495D01*
X54493Y-40495D02*
X54456Y-40450D01*
X54456Y-40450D02*
X54306Y-40450D01*
X54306Y-40450D02*
X54268Y-40495D01*
X54531Y-40628D02*
X54418Y-40628D01*
X54118Y-40717D02*
X53855Y-40717D01*
X53855Y-40717D02*
X53855Y-40628D01*
X53855Y-40628D02*
X53893Y-40584D01*
X53893Y-40584D02*
X54080Y-40584D01*
X54080Y-40584D02*
X54118Y-40628D01*
X54118Y-40628D02*
X54118Y-40806D01*
X54118Y-40806D02*
X54080Y-40850D01*
X54080Y-40850D02*
X53893Y-40850D01*
X53893Y-40850D02*
X53855Y-40806D01*
X53592Y-40450D02*
X53592Y-40495D01*
X53592Y-40628D02*
X53592Y-40806D01*
X53592Y-40806D02*
X53555Y-40850D01*
X53555Y-40850D02*
X53517Y-40850D01*
X53217Y-40450D02*
X53179Y-40450D01*
X53179Y-40450D02*
X53179Y-40850D01*
X53217Y-40850D02*
X53142Y-40850D01*
X52766Y-40850D02*
X52766Y-40806D01*
X52428Y-40850D02*
X52466Y-40806D01*
X52466Y-40806D02*
X52466Y-40628D01*
X52466Y-40628D02*
X52428Y-40584D01*
X52428Y-40584D02*
X52241Y-40584D01*
X52241Y-40584D02*
X52203Y-40628D01*
X52203Y-40628D02*
X52203Y-40806D01*
X52203Y-40806D02*
X52241Y-40850D01*
X52241Y-40850D02*
X52428Y-40850D01*
X52053Y-40850D02*
X52053Y-40584D01*
X52053Y-40673D02*
X51978Y-40584D01*
X51978Y-40584D02*
X51865Y-40584D01*
X51865Y-40584D02*
X51790Y-40673D01*
X51640Y-40938D02*
X51602Y-40983D01*
X51602Y-40983D02*
X51415Y-40983D01*
X51415Y-40983D02*
X51377Y-40938D01*
X51377Y-40938D02*
X51377Y-40628D01*
X51377Y-40628D02*
X51415Y-40584D01*
X51415Y-40584D02*
X51602Y-40584D01*
X51602Y-40584D02*
X51640Y-40628D01*
X51640Y-40628D02*
X51640Y-40806D01*
X51640Y-40806D02*
X51602Y-40850D01*
X51602Y-40850D02*
X51415Y-40850D01*
X51415Y-40850D02*
X51377Y-40806D01*
X50776Y-40673D02*
X50589Y-40673D01*
X49725Y-40850D02*
X49988Y-40850D01*
X49988Y-40850D02*
X49988Y-40717D01*
X49988Y-40717D02*
X49950Y-40673D01*
X49950Y-40673D02*
X49763Y-40673D01*
X49763Y-40673D02*
X49725Y-40628D01*
X49725Y-40628D02*
X49725Y-40495D01*
X49725Y-40495D02*
X49763Y-40450D01*
X49763Y-40450D02*
X49950Y-40450D01*
X49950Y-40450D02*
X49988Y-40495D01*
X49575Y-40850D02*
X49312Y-40450D01*
X49575Y-40806D02*
X49575Y-40495D01*
X49575Y-40495D02*
X49537Y-40450D01*
X49537Y-40450D02*
X49350Y-40450D01*
X49350Y-40450D02*
X49312Y-40495D01*
X49312Y-40495D02*
X49312Y-40806D01*
X49312Y-40806D02*
X49350Y-40850D01*
X49350Y-40850D02*
X49537Y-40850D01*
X49537Y-40850D02*
X49575Y-40806D01*
X49162Y-40850D02*
X48899Y-40450D01*
X49162Y-40806D02*
X49162Y-40495D01*
X49162Y-40495D02*
X49124Y-40450D01*
X49124Y-40450D02*
X48937Y-40450D01*
X48937Y-40450D02*
X48899Y-40495D01*
X48899Y-40495D02*
X48899Y-40806D01*
X48899Y-40806D02*
X48937Y-40850D01*
X48937Y-40850D02*
X49124Y-40850D01*
X49124Y-40850D02*
X49162Y-40806D01*
X48711Y-40850D02*
X48524Y-40850D01*
X48524Y-40850D02*
X48486Y-40806D01*
X48486Y-40806D02*
X48486Y-40495D01*
X48486Y-40495D02*
X48524Y-40450D01*
X48524Y-40450D02*
X48711Y-40450D01*
X48711Y-40450D02*
X48749Y-40495D01*
X48749Y-40495D02*
X48749Y-40628D01*
X48749Y-40628D02*
X48711Y-40673D01*
X48711Y-40673D02*
X48524Y-40673D01*
X48524Y-40673D02*
X48486Y-40628D01*
X47550Y-28169D02*
X47250Y-28169D01*
X47250Y-28169D02*
X47384Y-28319D01*
X47384Y-28319D02*
X47250Y-28469D01*
X47250Y-28469D02*
X47550Y-28469D01*
X47550Y-28620D02*
X47517Y-28582D01*
X47517Y-28582D02*
X47284Y-28582D01*
X47284Y-28582D02*
X47250Y-28620D01*
X47250Y-28620D02*
X47250Y-28807D01*
X47250Y-28807D02*
X47284Y-28845D01*
X47284Y-28845D02*
X47517Y-28845D01*
X47517Y-28845D02*
X47550Y-28807D01*
X47550Y-28807D02*
X47550Y-28620D01*
X49517Y-28169D02*
X49550Y-28207D01*
X49550Y-28207D02*
X49550Y-28394D01*
X49550Y-28394D02*
X49517Y-28432D01*
X49517Y-28432D02*
X49417Y-28432D01*
X49417Y-28432D02*
X49384Y-28394D01*
X49384Y-28394D02*
X49384Y-28207D01*
X49384Y-28207D02*
X49350Y-28169D01*
X49350Y-28169D02*
X49284Y-28169D01*
X49284Y-28169D02*
X49250Y-28207D01*
X49250Y-28207D02*
X49250Y-28394D01*
X49250Y-28394D02*
X49284Y-28432D01*
X49517Y-28845D02*
X49550Y-28807D01*
X49550Y-28807D02*
X49550Y-28620D01*
X49550Y-28620D02*
X49517Y-28582D01*
X49517Y-28582D02*
X49284Y-28582D01*
X49284Y-28582D02*
X49250Y-28620D01*
X49250Y-28620D02*
X49250Y-28807D01*
X49250Y-28807D02*
X49284Y-28845D01*
X48550Y-28169D02*
X48250Y-28169D01*
X48250Y-28169D02*
X48384Y-28319D01*
X48384Y-28319D02*
X48250Y-28469D01*
X48250Y-28469D02*
X48550Y-28469D01*
X48550Y-28620D02*
X48550Y-28770D01*
X48550Y-28695D02*
X48250Y-28695D01*
X48250Y-28620D02*
X48250Y-28770D01*
G54D27*
X47650Y-33150D02*
X47600Y-33236D01*
X47600Y-33236D02*
X47500Y-33236D01*
X47500Y-33236D02*
X47450Y-33150D01*
X47450Y-33150D02*
X47500Y-33064D01*
X47500Y-33064D02*
X47600Y-33064D01*
X47600Y-33064D02*
X47650Y-33150D01*
X47650Y-33550D02*
X47600Y-33636D01*
X47600Y-33636D02*
X47500Y-33636D01*
X47500Y-33636D02*
X47450Y-33550D01*
X47450Y-33550D02*
X47500Y-33464D01*
X47500Y-33464D02*
X47600Y-33464D01*
X47600Y-33464D02*
X47650Y-33550D01*
X48050Y-33550D02*
X48000Y-33636D01*
X48000Y-33636D02*
X47900Y-33636D01*
X47900Y-33636D02*
X47850Y-33550D01*
X47850Y-33550D02*
X47900Y-33464D01*
X47900Y-33464D02*
X48000Y-33464D01*
X48000Y-33464D02*
X48050Y-33550D01*
X48050Y-33150D02*
X48000Y-33236D01*
X48000Y-33236D02*
X47900Y-33236D01*
X47900Y-33236D02*
X47850Y-33150D01*
X47850Y-33150D02*
X47900Y-33064D01*
X47900Y-33064D02*
X48000Y-33064D01*
X48000Y-33064D02*
X48050Y-33150D01*
X49250Y-33150D02*
X49200Y-33236D01*
X49200Y-33236D02*
X49100Y-33236D01*
X49100Y-33236D02*
X49050Y-33150D01*
X49050Y-33150D02*
X49100Y-33064D01*
X49100Y-33064D02*
X49200Y-33064D01*
X49200Y-33064D02*
X49250Y-33150D01*
X49650Y-33150D02*
X49600Y-33236D01*
X49600Y-33236D02*
X49500Y-33236D01*
X49500Y-33236D02*
X49450Y-33150D01*
X49450Y-33150D02*
X49500Y-33064D01*
X49500Y-33064D02*
X49600Y-33064D01*
X49600Y-33064D02*
X49650Y-33150D01*
X49250Y-33550D02*
X49200Y-33636D01*
X49200Y-33636D02*
X49100Y-33636D01*
X49100Y-33636D02*
X49050Y-33550D01*
X49050Y-33550D02*
X49100Y-33464D01*
X49100Y-33464D02*
X49200Y-33464D01*
X49200Y-33464D02*
X49250Y-33550D01*
X48450Y-34350D02*
X48400Y-34436D01*
X48400Y-34436D02*
X48300Y-34436D01*
X48300Y-34436D02*
X48250Y-34350D01*
X48250Y-34350D02*
X48300Y-34264D01*
X48300Y-34264D02*
X48400Y-34264D01*
X48400Y-34264D02*
X48450Y-34350D01*
X48850Y-34350D02*
X48800Y-34436D01*
X48800Y-34436D02*
X48700Y-34436D01*
X48700Y-34436D02*
X48650Y-34350D01*
X48650Y-34350D02*
X48700Y-34264D01*
X48700Y-34264D02*
X48800Y-34264D01*
X48800Y-34264D02*
X48850Y-34350D01*
X48450Y-34750D02*
X48400Y-34836D01*
X48400Y-34836D02*
X48300Y-34836D01*
X48300Y-34836D02*
X48250Y-34750D01*
X48250Y-34750D02*
X48300Y-34664D01*
X48300Y-34664D02*
X48400Y-34664D01*
X48400Y-34664D02*
X48450Y-34750D01*
X48450Y-35550D02*
X48400Y-35636D01*
X48400Y-35636D02*
X48300Y-35636D01*
X48300Y-35636D02*
X48250Y-35550D01*
X48250Y-35550D02*
X48300Y-35464D01*
X48300Y-35464D02*
X48400Y-35464D01*
X48400Y-35464D02*
X48450Y-35550D01*
X48850Y-35550D02*
X48800Y-35636D01*
X48800Y-35636D02*
X48700Y-35636D01*
X48700Y-35636D02*
X48650Y-35550D01*
X48650Y-35550D02*
X48700Y-35464D01*
X48700Y-35464D02*
X48800Y-35464D01*
X48800Y-35464D02*
X48850Y-35550D01*
X49250Y-35550D02*
X49200Y-35636D01*
X49200Y-35636D02*
X49100Y-35636D01*
X49100Y-35636D02*
X49050Y-35550D01*
X49050Y-35550D02*
X49100Y-35464D01*
X49100Y-35464D02*
X49200Y-35464D01*
X49200Y-35464D02*
X49250Y-35550D01*
X48050Y-35550D02*
X48000Y-35636D01*
X48000Y-35636D02*
X47900Y-35636D01*
X47900Y-35636D02*
X47850Y-35550D01*
X47850Y-35550D02*
X47900Y-35464D01*
X47900Y-35464D02*
X48000Y-35464D01*
X48000Y-35464D02*
X48050Y-35550D01*
X49650Y-35150D02*
X49600Y-35236D01*
X49600Y-35236D02*
X49500Y-35236D01*
X49500Y-35236D02*
X49450Y-35150D01*
X49450Y-35150D02*
X49500Y-35064D01*
X49500Y-35064D02*
X49600Y-35064D01*
X49600Y-35064D02*
X49650Y-35150D01*
X50050Y-34750D02*
X50000Y-34836D01*
X50000Y-34836D02*
X49900Y-34836D01*
X49900Y-34836D02*
X49850Y-34750D01*
X49850Y-34750D02*
X49900Y-34664D01*
X49900Y-34664D02*
X50000Y-34664D01*
X50000Y-34664D02*
X50050Y-34750D01*
X47650Y-35150D02*
X47600Y-35236D01*
X47600Y-35236D02*
X47500Y-35236D01*
X47500Y-35236D02*
X47450Y-35150D01*
X47450Y-35150D02*
X47500Y-35064D01*
X47500Y-35064D02*
X47600Y-35064D01*
X47600Y-35064D02*
X47650Y-35150D01*
X47250Y-34750D02*
X47200Y-34836D01*
X47200Y-34836D02*
X47100Y-34836D01*
X47100Y-34836D02*
X47050Y-34750D01*
X47050Y-34750D02*
X47100Y-34664D01*
X47100Y-34664D02*
X47200Y-34664D01*
X47200Y-34664D02*
X47250Y-34750D01*
X48850Y-34750D02*
X48800Y-34836D01*
X48800Y-34836D02*
X48700Y-34836D01*
X48700Y-34836D02*
X48650Y-34750D01*
X48650Y-34750D02*
X48700Y-34664D01*
X48700Y-34664D02*
X48800Y-34664D01*
X48800Y-34664D02*
X48850Y-34750D01*
X49650Y-33550D02*
X49600Y-33636D01*
X49600Y-33636D02*
X49500Y-33636D01*
X49500Y-33636D02*
X49450Y-33550D01*
X49450Y-33550D02*
X49500Y-33464D01*
X49500Y-33464D02*
X49600Y-33464D01*
X49600Y-33464D02*
X49650Y-33550D01*
X61150Y-33550D02*
X61100Y-33636D01*
X61100Y-33636D02*
X61000Y-33636D01*
X61000Y-33636D02*
X60950Y-33550D01*
X60950Y-33550D02*
X61000Y-33464D01*
X61000Y-33464D02*
X61100Y-33464D01*
X61100Y-33464D02*
X61150Y-33550D01*
X60350Y-34750D02*
X60300Y-34836D01*
X60300Y-34836D02*
X60200Y-34836D01*
X60200Y-34836D02*
X60150Y-34750D01*
X60150Y-34750D02*
X60200Y-34664D01*
X60200Y-34664D02*
X60300Y-34664D01*
X60300Y-34664D02*
X60350Y-34750D01*
X58750Y-34750D02*
X58700Y-34836D01*
X58700Y-34836D02*
X58600Y-34836D01*
X58600Y-34836D02*
X58550Y-34750D01*
X58550Y-34750D02*
X58600Y-34664D01*
X58600Y-34664D02*
X58700Y-34664D01*
X58700Y-34664D02*
X58750Y-34750D01*
X59150Y-35150D02*
X59100Y-35236D01*
X59100Y-35236D02*
X59000Y-35236D01*
X59000Y-35236D02*
X58950Y-35150D01*
X58950Y-35150D02*
X59000Y-35064D01*
X59000Y-35064D02*
X59100Y-35064D01*
X59100Y-35064D02*
X59150Y-35150D01*
X61550Y-34750D02*
X61500Y-34836D01*
X61500Y-34836D02*
X61400Y-34836D01*
X61400Y-34836D02*
X61350Y-34750D01*
X61350Y-34750D02*
X61400Y-34664D01*
X61400Y-34664D02*
X61500Y-34664D01*
X61500Y-34664D02*
X61550Y-34750D01*
X61150Y-35150D02*
X61100Y-35236D01*
X61100Y-35236D02*
X61000Y-35236D01*
X61000Y-35236D02*
X60950Y-35150D01*
X60950Y-35150D02*
X61000Y-35064D01*
X61000Y-35064D02*
X61100Y-35064D01*
X61100Y-35064D02*
X61150Y-35150D01*
X59550Y-35550D02*
X59500Y-35636D01*
X59500Y-35636D02*
X59400Y-35636D01*
X59400Y-35636D02*
X59350Y-35550D01*
X59350Y-35550D02*
X59400Y-35464D01*
X59400Y-35464D02*
X59500Y-35464D01*
X59500Y-35464D02*
X59550Y-35550D01*
X60750Y-35550D02*
X60700Y-35636D01*
X60700Y-35636D02*
X60600Y-35636D01*
X60600Y-35636D02*
X60550Y-35550D01*
X60550Y-35550D02*
X60600Y-35464D01*
X60600Y-35464D02*
X60700Y-35464D01*
X60700Y-35464D02*
X60750Y-35550D01*
X60350Y-35550D02*
X60300Y-35636D01*
X60300Y-35636D02*
X60200Y-35636D01*
X60200Y-35636D02*
X60150Y-35550D01*
X60150Y-35550D02*
X60200Y-35464D01*
X60200Y-35464D02*
X60300Y-35464D01*
X60300Y-35464D02*
X60350Y-35550D01*
X59950Y-35550D02*
X59900Y-35636D01*
X59900Y-35636D02*
X59800Y-35636D01*
X59800Y-35636D02*
X59750Y-35550D01*
X59750Y-35550D02*
X59800Y-35464D01*
X59800Y-35464D02*
X59900Y-35464D01*
X59900Y-35464D02*
X59950Y-35550D01*
X59950Y-34750D02*
X59900Y-34836D01*
X59900Y-34836D02*
X59800Y-34836D01*
X59800Y-34836D02*
X59750Y-34750D01*
X59750Y-34750D02*
X59800Y-34664D01*
X59800Y-34664D02*
X59900Y-34664D01*
X59900Y-34664D02*
X59950Y-34750D01*
X60350Y-34350D02*
X60300Y-34436D01*
X60300Y-34436D02*
X60200Y-34436D01*
X60200Y-34436D02*
X60150Y-34350D01*
X60150Y-34350D02*
X60200Y-34264D01*
X60200Y-34264D02*
X60300Y-34264D01*
X60300Y-34264D02*
X60350Y-34350D01*
X59950Y-34350D02*
X59900Y-34436D01*
X59900Y-34436D02*
X59800Y-34436D01*
X59800Y-34436D02*
X59750Y-34350D01*
X59750Y-34350D02*
X59800Y-34264D01*
X59800Y-34264D02*
X59900Y-34264D01*
X59900Y-34264D02*
X59950Y-34350D01*
X60750Y-33550D02*
X60700Y-33636D01*
X60700Y-33636D02*
X60600Y-33636D01*
X60600Y-33636D02*
X60550Y-33550D01*
X60550Y-33550D02*
X60600Y-33464D01*
X60600Y-33464D02*
X60700Y-33464D01*
X60700Y-33464D02*
X60750Y-33550D01*
X61150Y-33150D02*
X61100Y-33236D01*
X61100Y-33236D02*
X61000Y-33236D01*
X61000Y-33236D02*
X60950Y-33150D01*
X60950Y-33150D02*
X61000Y-33064D01*
X61000Y-33064D02*
X61100Y-33064D01*
X61100Y-33064D02*
X61150Y-33150D01*
X60750Y-33150D02*
X60700Y-33236D01*
X60700Y-33236D02*
X60600Y-33236D01*
X60600Y-33236D02*
X60550Y-33150D01*
X60550Y-33150D02*
X60600Y-33064D01*
X60600Y-33064D02*
X60700Y-33064D01*
X60700Y-33064D02*
X60750Y-33150D01*
X59550Y-33150D02*
X59500Y-33236D01*
X59500Y-33236D02*
X59400Y-33236D01*
X59400Y-33236D02*
X59350Y-33150D01*
X59350Y-33150D02*
X59400Y-33064D01*
X59400Y-33064D02*
X59500Y-33064D01*
X59500Y-33064D02*
X59550Y-33150D01*
X59550Y-33550D02*
X59500Y-33636D01*
X59500Y-33636D02*
X59400Y-33636D01*
X59400Y-33636D02*
X59350Y-33550D01*
X59350Y-33550D02*
X59400Y-33464D01*
X59400Y-33464D02*
X59500Y-33464D01*
X59500Y-33464D02*
X59550Y-33550D01*
X59150Y-33550D02*
X59100Y-33636D01*
X59100Y-33636D02*
X59000Y-33636D01*
X59000Y-33636D02*
X58950Y-33550D01*
X58950Y-33550D02*
X59000Y-33464D01*
X59000Y-33464D02*
X59100Y-33464D01*
X59100Y-33464D02*
X59150Y-33550D01*
X59150Y-33150D02*
X59100Y-33236D01*
X59100Y-33236D02*
X59000Y-33236D01*
X59000Y-33236D02*
X58950Y-33150D01*
X58950Y-33150D02*
X59000Y-33064D01*
X59000Y-33064D02*
X59100Y-33064D01*
X59100Y-33064D02*
X59150Y-33150D01*
X41700Y-21900D02*
X66450Y-21900D01*
X41700Y-46650D02*
X41700Y-21900D01*
X66450Y-46650D02*
X41700Y-46650D01*
X66450Y-21900D02*
X66450Y-46650D01*
G54D10*
X58210Y-40150D02*
X58248Y-40106D01*
X58248Y-40106D02*
X58248Y-39973D01*
X58248Y-39973D02*
X58210Y-39928D01*
X58210Y-39928D02*
X58023Y-39928D01*
X58023Y-39928D02*
X57985Y-39884D01*
X57985Y-39884D02*
X57985Y-39795D01*
X57985Y-39795D02*
X58023Y-39750D01*
X58023Y-39750D02*
X58210Y-39750D01*
X58210Y-39750D02*
X58248Y-39795D01*
X58248Y-39795D02*
X58248Y-39884D01*
X58248Y-39884D02*
X58210Y-39928D01*
X58023Y-39928D02*
X57985Y-39973D01*
X57985Y-39973D02*
X57985Y-40106D01*
X57985Y-40106D02*
X58023Y-40150D01*
X58023Y-40150D02*
X58210Y-40150D01*
X57835Y-40150D02*
X57572Y-39884D01*
X57835Y-39884D02*
X57572Y-40150D01*
X57384Y-40150D02*
X57422Y-40106D01*
X57422Y-40106D02*
X57422Y-39973D01*
X57422Y-39973D02*
X57384Y-39928D01*
X57384Y-39928D02*
X57197Y-39928D01*
X57197Y-39928D02*
X57159Y-39884D01*
X57159Y-39884D02*
X57159Y-39795D01*
X57159Y-39795D02*
X57197Y-39750D01*
X57197Y-39750D02*
X57384Y-39750D01*
X57384Y-39750D02*
X57422Y-39795D01*
X57422Y-39795D02*
X57422Y-39884D01*
X57422Y-39884D02*
X57384Y-39928D01*
X57197Y-39928D02*
X57159Y-39973D01*
X57159Y-39973D02*
X57159Y-40106D01*
X57159Y-40106D02*
X57197Y-40150D01*
X57197Y-40150D02*
X57384Y-40150D01*
X56596Y-40150D02*
X56596Y-39750D01*
X56596Y-39750D02*
X56371Y-39750D01*
X56371Y-39750D02*
X56333Y-39795D01*
X56333Y-39795D02*
X56333Y-39928D01*
X56333Y-39928D02*
X56371Y-39973D01*
X56371Y-39973D02*
X56596Y-39973D01*
X56483Y-39973D02*
X56333Y-40150D01*
X55958Y-39795D02*
X55958Y-39750D01*
X55958Y-39750D02*
X56145Y-39750D01*
X56145Y-39750D02*
X56183Y-39795D01*
X56183Y-39795D02*
X56183Y-40106D01*
X56183Y-40106D02*
X56145Y-40150D01*
X56145Y-40150D02*
X55958Y-40150D01*
X55958Y-40150D02*
X55920Y-40106D01*
X55920Y-40106D02*
X55920Y-39973D01*
X55920Y-39973D02*
X56033Y-39973D01*
X55770Y-40150D02*
X55770Y-39750D01*
X55770Y-39750D02*
X55545Y-39750D01*
X55545Y-39750D02*
X55507Y-39795D01*
X55507Y-39795D02*
X55507Y-39884D01*
X55507Y-39884D02*
X55545Y-39928D01*
X55545Y-39928D02*
X55770Y-39928D01*
X55545Y-39928D02*
X55507Y-40017D01*
X55507Y-40017D02*
X55507Y-40106D01*
X55507Y-40106D02*
X55545Y-40150D01*
X55545Y-40150D02*
X55770Y-40150D01*
X54906Y-40150D02*
X54906Y-39750D01*
X54944Y-39750D02*
X54719Y-39750D01*
X54719Y-39750D02*
X54681Y-39795D01*
X54681Y-39795D02*
X54681Y-40106D01*
X54681Y-40106D02*
X54719Y-40150D01*
X54719Y-40150D02*
X54944Y-40150D01*
X54531Y-40150D02*
X54531Y-39884D01*
X54531Y-39973D02*
X54456Y-39884D01*
X54456Y-39884D02*
X54343Y-39884D01*
X54343Y-39884D02*
X54268Y-39973D01*
X54005Y-39750D02*
X54005Y-39795D01*
X54005Y-39928D02*
X54005Y-40106D01*
X54005Y-40106D02*
X53968Y-40150D01*
X53968Y-40150D02*
X53930Y-40150D01*
X53705Y-39884D02*
X53705Y-40017D01*
X53705Y-40017D02*
X53592Y-40150D01*
X53592Y-40150D02*
X53480Y-40017D01*
X53480Y-40017D02*
X53480Y-39884D01*
X53292Y-40017D02*
X53029Y-40017D01*
X53029Y-40017D02*
X53029Y-39928D01*
X53029Y-39928D02*
X53067Y-39884D01*
X53067Y-39884D02*
X53254Y-39884D01*
X53254Y-39884D02*
X53292Y-39928D01*
X53292Y-39928D02*
X53292Y-40106D01*
X53292Y-40106D02*
X53254Y-40150D01*
X53254Y-40150D02*
X53067Y-40150D01*
X53067Y-40150D02*
X53029Y-40106D01*
X52879Y-40150D02*
X52879Y-39884D01*
X52879Y-39973D02*
X52804Y-39884D01*
X52804Y-39884D02*
X52691Y-39884D01*
X52691Y-39884D02*
X52616Y-39973D01*
X52053Y-39750D02*
X51903Y-40150D01*
X51903Y-40150D02*
X51753Y-39750D01*
X51640Y-39750D02*
X51377Y-39750D01*
X51377Y-39750D02*
X51377Y-39795D01*
X51377Y-39795D02*
X51527Y-39928D01*
X51527Y-39928D02*
X51415Y-39928D01*
X51415Y-39928D02*
X51377Y-39973D01*
X51377Y-39973D02*
X51377Y-40106D01*
X51377Y-40106D02*
X51415Y-40150D01*
X51415Y-40150D02*
X51602Y-40150D01*
X51602Y-40150D02*
X51640Y-40106D01*
X51114Y-40150D02*
X51114Y-40106D01*
X50814Y-40150D02*
X50551Y-39750D01*
X50814Y-40106D02*
X50814Y-39795D01*
X50814Y-39795D02*
X50776Y-39750D01*
X50776Y-39750D02*
X50589Y-39750D01*
X50589Y-39750D02*
X50551Y-39795D01*
X50551Y-39795D02*
X50551Y-40106D01*
X50551Y-40106D02*
X50589Y-40150D01*
X50589Y-40150D02*
X50776Y-40150D01*
X50776Y-40150D02*
X50814Y-40106D01*
X50213Y-40150D02*
X50213Y-39750D01*
X50213Y-39750D02*
X50401Y-40062D01*
X50401Y-40062D02*
X50138Y-40062D01*
G54D27*
X59200Y-45300D02*
X59200Y-44300D01*
X59200Y-44300D02*
X49200Y-44300D01*
X49200Y-44300D02*
X49200Y-45300D01*
X49200Y-45300D02*
X59200Y-45300D01*
X58200Y-45300D02*
X58200Y-44300D01*
X59200Y-24300D02*
X59200Y-23300D01*
X59200Y-23300D02*
X49200Y-23300D01*
X49200Y-23300D02*
X49200Y-24300D01*
X49200Y-24300D02*
X59200Y-24300D01*
X58200Y-24300D02*
X58200Y-23300D01*
X56200Y-28950D02*
X57500Y-28950D01*
X57500Y-28950D02*
X57550Y-28950D01*
X57550Y-28950D02*
X57550Y-30650D01*
X57550Y-30650D02*
X56200Y-30650D01*
X57200Y-30300D02*
X57200Y-29300D01*
X57200Y-29300D02*
X51200Y-29300D01*
X51200Y-29300D02*
X51200Y-30300D01*
X51200Y-30300D02*
X57200Y-30300D01*
X56200Y-30300D02*
X56200Y-29300D01*
X48900Y-25700D02*
X48900Y-27700D01*
X47900Y-27700D02*
X47900Y-25700D01*
X49900Y-25700D02*
X46900Y-25700D01*
X46900Y-27700D02*
X49900Y-27700D01*
X49900Y-27700D02*
X49900Y-25700D01*
X46900Y-25700D02*
X46900Y-27700D01*
X57950Y-26700D02*
X57950Y-25350D01*
X57950Y-25350D02*
X59300Y-25350D01*
X61300Y-25700D02*
X58300Y-25700D01*
X58300Y-27700D02*
X61300Y-27700D01*
X61300Y-27700D02*
X61300Y-25700D01*
X58300Y-25700D02*
X58300Y-27700D01*
X51090Y-26225D02*
X51090Y-27075D01*
X53125Y-27825D02*
X51425Y-27825D01*
X53450Y-26225D02*
X53450Y-27075D01*
X53125Y-25475D02*
X51425Y-25475D01*
X52900Y-26675D02*
X52812Y-27000D01*
X52812Y-27000D02*
X52575Y-27237D01*
X52575Y-27237D02*
X52250Y-27325D01*
X52250Y-27325D02*
X51925Y-27237D01*
X51925Y-27237D02*
X51688Y-27000D01*
X51688Y-27000D02*
X51600Y-26675D01*
X51600Y-26675D02*
X51688Y-26350D01*
X51688Y-26350D02*
X51925Y-26113D01*
X51925Y-26113D02*
X52250Y-26025D01*
X52250Y-26025D02*
X52575Y-26113D01*
X52575Y-26113D02*
X52812Y-26350D01*
X52812Y-26350D02*
X52900Y-26675D01*
X54940Y-26225D02*
X54940Y-27075D01*
X56975Y-27825D02*
X55275Y-27825D01*
X57300Y-26225D02*
X57300Y-27075D01*
X56975Y-25475D02*
X55275Y-25475D01*
X56750Y-26675D02*
X56662Y-27000D01*
X56662Y-27000D02*
X56425Y-27237D01*
X56425Y-27237D02*
X56100Y-27325D01*
X56100Y-27325D02*
X55775Y-27237D01*
X55775Y-27237D02*
X55538Y-27000D01*
X55538Y-27000D02*
X55450Y-26675D01*
X55450Y-26675D02*
X55538Y-26350D01*
X55538Y-26350D02*
X55775Y-26113D01*
X55775Y-26113D02*
X56100Y-26025D01*
X56100Y-26025D02*
X56425Y-26113D01*
X56425Y-26113D02*
X56662Y-26350D01*
X56662Y-26350D02*
X56750Y-26675D01*
G54D26*
X63250Y-45050D02*
X63250Y-44550D01*
X63250Y-44550D02*
X62875Y-44550D01*
X62875Y-44550D02*
X62812Y-44606D01*
X62812Y-44606D02*
X62812Y-44773D01*
X62812Y-44773D02*
X62875Y-44828D01*
X62875Y-44828D02*
X63250Y-44828D01*
X62512Y-45050D02*
X62575Y-44995D01*
X62575Y-44995D02*
X62575Y-44606D01*
X62575Y-44606D02*
X62512Y-44550D01*
X62512Y-44550D02*
X62200Y-44550D01*
X62200Y-44550D02*
X62137Y-44606D01*
X62137Y-44606D02*
X62137Y-44995D01*
X62137Y-44995D02*
X62200Y-45050D01*
X62200Y-45050D02*
X62512Y-45050D01*
X61900Y-45050D02*
X61900Y-44550D01*
X61900Y-44550D02*
X61525Y-44550D01*
X61525Y-44550D02*
X61462Y-44606D01*
X61462Y-44606D02*
X61462Y-44773D01*
X61462Y-44773D02*
X61525Y-44828D01*
X61525Y-44828D02*
X61900Y-44828D01*
X61712Y-44828D02*
X61462Y-45050D01*
X61225Y-44550D02*
X60725Y-44550D01*
X60975Y-44550D02*
X60975Y-45050D01*
X60487Y-45050D02*
X60487Y-44550D01*
X60550Y-44550D02*
X60175Y-44550D01*
X60175Y-44550D02*
X60112Y-44606D01*
X60112Y-44606D02*
X60112Y-44995D01*
X60112Y-44995D02*
X60175Y-45050D01*
X60175Y-45050D02*
X60550Y-45050D01*
X63250Y-24050D02*
X63250Y-23550D01*
X63250Y-23550D02*
X62875Y-23550D01*
X62875Y-23550D02*
X62812Y-23606D01*
X62812Y-23606D02*
X62812Y-23773D01*
X62812Y-23773D02*
X62875Y-23828D01*
X62875Y-23828D02*
X63250Y-23828D01*
X62512Y-24050D02*
X62575Y-23995D01*
X62575Y-23995D02*
X62575Y-23606D01*
X62575Y-23606D02*
X62512Y-23550D01*
X62512Y-23550D02*
X62200Y-23550D01*
X62200Y-23550D02*
X62137Y-23606D01*
X62137Y-23606D02*
X62137Y-23995D01*
X62137Y-23995D02*
X62200Y-24050D01*
X62200Y-24050D02*
X62512Y-24050D01*
X61900Y-24050D02*
X61900Y-23550D01*
X61900Y-23550D02*
X61525Y-23550D01*
X61525Y-23550D02*
X61462Y-23606D01*
X61462Y-23606D02*
X61462Y-23773D01*
X61462Y-23773D02*
X61525Y-23828D01*
X61525Y-23828D02*
X61900Y-23828D01*
X61712Y-23828D02*
X61462Y-24050D01*
X61225Y-23550D02*
X60725Y-23550D01*
X60975Y-23550D02*
X60975Y-24050D01*
X60112Y-23995D02*
X60175Y-24050D01*
X60175Y-24050D02*
X60487Y-24050D01*
X60487Y-24050D02*
X60550Y-23995D01*
X60550Y-23995D02*
X60550Y-23606D01*
X60550Y-23606D02*
X60487Y-23550D01*
X60487Y-23550D02*
X60175Y-23550D01*
X60175Y-23550D02*
X60112Y-23606D01*
X60663Y-30050D02*
X60663Y-29550D01*
X60663Y-29550D02*
X60225Y-29550D01*
X60663Y-29773D02*
X60413Y-29773D01*
X59988Y-29550D02*
X59488Y-29550D01*
X59738Y-29550D02*
X59738Y-30050D01*
X59250Y-30050D02*
X59250Y-29550D01*
X59313Y-29550D02*
X58938Y-29550D01*
X58938Y-29550D02*
X58875Y-29606D01*
X58875Y-29606D02*
X58875Y-29995D01*
X58875Y-29995D02*
X58938Y-30050D01*
X58938Y-30050D02*
X59313Y-30050D01*
X58575Y-30050D02*
X58325Y-30050D01*
X58450Y-30050D02*
X58450Y-29550D01*
X58575Y-29550D02*
X58325Y-29550D01*
X46445Y-25825D02*
X46500Y-25888D01*
X46500Y-25888D02*
X46500Y-26200D01*
X46500Y-26200D02*
X46445Y-26263D01*
X46445Y-26263D02*
X46278Y-26263D01*
X46278Y-26263D02*
X46223Y-26200D01*
X46223Y-26200D02*
X46223Y-25888D01*
X46223Y-25888D02*
X46167Y-25825D01*
X46167Y-25825D02*
X46056Y-25825D01*
X46056Y-25825D02*
X46000Y-25888D01*
X46000Y-25888D02*
X46000Y-26200D01*
X46000Y-26200D02*
X46056Y-26263D01*
X46500Y-26500D02*
X46000Y-26500D01*
X46000Y-26500D02*
X46000Y-26875D01*
X46000Y-26875D02*
X46056Y-26938D01*
X46056Y-26938D02*
X46223Y-26938D01*
X46223Y-26938D02*
X46278Y-26875D01*
X46278Y-26875D02*
X46278Y-26500D01*
X46500Y-27238D02*
X46500Y-27488D01*
X46500Y-27363D02*
X46000Y-27363D01*
X46000Y-27238D02*
X46000Y-27488D01*
X62200Y-25550D02*
X62200Y-25800D01*
X62200Y-25675D02*
X61700Y-25675D01*
X61700Y-25550D02*
X61700Y-25800D01*
X62145Y-26600D02*
X62200Y-26537D01*
X62200Y-26537D02*
X62200Y-26225D01*
X62200Y-26225D02*
X62145Y-26162D01*
X62145Y-26162D02*
X61756Y-26162D01*
X61756Y-26162D02*
X61700Y-26225D01*
X61700Y-26225D02*
X61700Y-26537D01*
X61700Y-26537D02*
X61756Y-26600D01*
X62145Y-26837D02*
X62200Y-26900D01*
X62200Y-26900D02*
X62200Y-27212D01*
X62200Y-27212D02*
X62145Y-27275D01*
X62145Y-27275D02*
X61978Y-27275D01*
X61978Y-27275D02*
X61923Y-27212D01*
X61923Y-27212D02*
X61923Y-26900D01*
X61923Y-26900D02*
X61867Y-26837D01*
X61867Y-26837D02*
X61756Y-26837D01*
X61756Y-26837D02*
X61700Y-26900D01*
X61700Y-26900D02*
X61700Y-27212D01*
X61700Y-27212D02*
X61756Y-27275D01*
X62200Y-27512D02*
X61700Y-27512D01*
X61700Y-27512D02*
X61700Y-27887D01*
X61700Y-27887D02*
X61756Y-27950D01*
X61756Y-27950D02*
X61923Y-27950D01*
X61923Y-27950D02*
X61978Y-27887D01*
X61978Y-27887D02*
X61978Y-27512D01*
G54D10*
X52787Y-25000D02*
X52787Y-24700D01*
X52787Y-24700D02*
X52562Y-24700D01*
X52562Y-24700D02*
X52524Y-24734D01*
X52524Y-24734D02*
X52524Y-24834D01*
X52524Y-24834D02*
X52562Y-24867D01*
X52562Y-24867D02*
X52787Y-24867D01*
X52674Y-24867D02*
X52524Y-25000D01*
X52374Y-24967D02*
X52336Y-25000D01*
X52336Y-25000D02*
X52149Y-25000D01*
X52149Y-25000D02*
X52111Y-24967D01*
X52111Y-24967D02*
X52111Y-24867D01*
X52111Y-24867D02*
X52149Y-24834D01*
X52149Y-24834D02*
X52336Y-24834D01*
X52336Y-24834D02*
X52374Y-24800D01*
X52374Y-24800D02*
X52374Y-24734D01*
X52374Y-24734D02*
X52336Y-24700D01*
X52336Y-24700D02*
X52149Y-24700D01*
X52149Y-24700D02*
X52111Y-24734D01*
X51961Y-24700D02*
X51661Y-24700D01*
X51811Y-24700D02*
X51811Y-25000D01*
X57050Y-24967D02*
X57012Y-25000D01*
X57012Y-25000D02*
X56825Y-25000D01*
X56825Y-25000D02*
X56787Y-24967D01*
X56787Y-24967D02*
X56787Y-24867D01*
X56787Y-24867D02*
X56825Y-24834D01*
X56825Y-24834D02*
X57012Y-24834D01*
X57012Y-24834D02*
X57050Y-24800D01*
X57050Y-24800D02*
X57050Y-24734D01*
X57050Y-24734D02*
X57012Y-24700D01*
X57012Y-24700D02*
X56825Y-24700D01*
X56825Y-24700D02*
X56787Y-24734D01*
X56637Y-24700D02*
X56562Y-25000D01*
X56562Y-25000D02*
X56487Y-24900D01*
X56487Y-24900D02*
X56412Y-25000D01*
X56412Y-25000D02*
X56337Y-24700D01*
X56186Y-24867D02*
X55999Y-24867D01*
X55773Y-25000D02*
X55773Y-24700D01*
X55811Y-24700D02*
X55586Y-24700D01*
X55586Y-24700D02*
X55548Y-24734D01*
X55548Y-24734D02*
X55548Y-24967D01*
X55548Y-24967D02*
X55586Y-25000D01*
X55586Y-25000D02*
X55811Y-25000D01*
X55360Y-25000D02*
X55398Y-24967D01*
X55398Y-24967D02*
X55398Y-24867D01*
X55398Y-24867D02*
X55360Y-24834D01*
X55360Y-24834D02*
X55173Y-24834D01*
X55173Y-24834D02*
X55135Y-24800D01*
X55135Y-24800D02*
X55135Y-24734D01*
X55135Y-24734D02*
X55173Y-24700D01*
X55173Y-24700D02*
X55360Y-24700D01*
X55360Y-24700D02*
X55398Y-24734D01*
X55398Y-24734D02*
X55398Y-24800D01*
X55398Y-24800D02*
X55360Y-24834D01*
X55173Y-24834D02*
X55135Y-24867D01*
X55135Y-24867D02*
X55135Y-24967D01*
X55135Y-24967D02*
X55173Y-25000D01*
X55173Y-25000D02*
X55360Y-25000D01*
M02*
