G04 (created by PCBNEW (2013-01-24 BZR 3921)-testing) date Fri 25 Jan 2013 03:38:43 AM CET*
%MOIN*%
G04 Gerber Fmt 3.4, Leading zero omitted, Abs format*
%FSLAX34Y34*%
G01*
G70*
G90*
G04 APERTURE LIST*
%ADD10C,0.00787402*%
%ADD11C,0.0075*%
%ADD12C,0.015*%
%ADD13C,0.012*%
%ADD14C,0.00984252*%
%ADD15C,0.055*%
%ADD16R,0.06X0.06*%
%ADD17C,0.06*%
%ADD18R,0.065X0.065*%
%ADD19C,0.065*%
%ADD20R,0.055X0.055*%
%ADD21C,0.16*%
%ADD22R,0.0866X0.0236*%
%ADD23R,0.0787X0.0177*%
%ADD24R,0.0177X0.0787*%
G04 APERTURE END LIST*
G54D10*
G54D11*
X53215Y-34901D02*
X53044Y-34901D01*
X53130Y-34901D02*
X53130Y-34601D01*
X53101Y-34644D01*
X53072Y-34672D01*
X53044Y-34687D01*
X53472Y-34601D02*
X53415Y-34601D01*
X53387Y-34615D01*
X53372Y-34630D01*
X53344Y-34672D01*
X53330Y-34730D01*
X53330Y-34844D01*
X53344Y-34872D01*
X53358Y-34887D01*
X53387Y-34901D01*
X53444Y-34901D01*
X53472Y-34887D01*
X53487Y-34872D01*
X53501Y-34844D01*
X53501Y-34772D01*
X53487Y-34744D01*
X53472Y-34730D01*
X53444Y-34715D01*
X53387Y-34715D01*
X53358Y-34730D01*
X53344Y-34744D01*
X53330Y-34772D01*
X53672Y-34730D02*
X53644Y-34715D01*
X53630Y-34701D01*
X53615Y-34672D01*
X53615Y-34658D01*
X53630Y-34630D01*
X53644Y-34615D01*
X53672Y-34601D01*
X53730Y-34601D01*
X53758Y-34615D01*
X53772Y-34630D01*
X53787Y-34658D01*
X53787Y-34672D01*
X53772Y-34701D01*
X53758Y-34715D01*
X53730Y-34730D01*
X53672Y-34730D01*
X53644Y-34744D01*
X53630Y-34758D01*
X53615Y-34787D01*
X53615Y-34844D01*
X53630Y-34872D01*
X53644Y-34887D01*
X53672Y-34901D01*
X53730Y-34901D01*
X53758Y-34887D01*
X53772Y-34872D01*
X53787Y-34844D01*
X53787Y-34787D01*
X53772Y-34758D01*
X53758Y-34744D01*
X53730Y-34730D01*
X54358Y-34587D02*
X54101Y-34972D01*
X54658Y-34601D02*
X54844Y-34601D01*
X54744Y-34715D01*
X54787Y-34715D01*
X54815Y-34730D01*
X54830Y-34744D01*
X54844Y-34772D01*
X54844Y-34844D01*
X54830Y-34872D01*
X54815Y-34887D01*
X54787Y-34901D01*
X54701Y-34901D01*
X54672Y-34887D01*
X54658Y-34872D01*
X54958Y-34630D02*
X54972Y-34615D01*
X55001Y-34601D01*
X55072Y-34601D01*
X55101Y-34615D01*
X55115Y-34630D01*
X55129Y-34658D01*
X55129Y-34687D01*
X55115Y-34730D01*
X54944Y-34901D01*
X55129Y-34901D01*
X55301Y-34730D02*
X55272Y-34715D01*
X55258Y-34701D01*
X55244Y-34672D01*
X55244Y-34658D01*
X55258Y-34630D01*
X55272Y-34615D01*
X55301Y-34601D01*
X55358Y-34601D01*
X55387Y-34615D01*
X55401Y-34630D01*
X55415Y-34658D01*
X55415Y-34672D01*
X55401Y-34701D01*
X55387Y-34715D01*
X55358Y-34730D01*
X55301Y-34730D01*
X55272Y-34744D01*
X55258Y-34758D01*
X55244Y-34787D01*
X55244Y-34844D01*
X55258Y-34872D01*
X55272Y-34887D01*
X55301Y-34901D01*
X55358Y-34901D01*
X55387Y-34887D01*
X55401Y-34872D01*
X55415Y-34844D01*
X55415Y-34787D01*
X55401Y-34758D01*
X55387Y-34744D01*
X55358Y-34730D01*
X53452Y-34305D02*
X53595Y-34305D01*
X53424Y-34391D02*
X53524Y-34091D01*
X53624Y-34391D01*
X53681Y-34091D02*
X53852Y-34091D01*
X53767Y-34391D02*
X53767Y-34091D01*
X53952Y-34391D02*
X53952Y-34091D01*
X54052Y-34305D01*
X54152Y-34091D01*
X54152Y-34391D01*
X54409Y-34377D02*
X54381Y-34391D01*
X54324Y-34391D01*
X54295Y-34377D01*
X54281Y-34348D01*
X54281Y-34234D01*
X54295Y-34205D01*
X54324Y-34191D01*
X54381Y-34191D01*
X54409Y-34205D01*
X54424Y-34234D01*
X54424Y-34262D01*
X54281Y-34291D01*
X54681Y-34191D02*
X54681Y-34434D01*
X54667Y-34462D01*
X54652Y-34477D01*
X54624Y-34491D01*
X54581Y-34491D01*
X54552Y-34477D01*
X54681Y-34377D02*
X54652Y-34391D01*
X54595Y-34391D01*
X54567Y-34377D01*
X54552Y-34362D01*
X54538Y-34334D01*
X54538Y-34248D01*
X54552Y-34220D01*
X54567Y-34205D01*
X54595Y-34191D01*
X54652Y-34191D01*
X54681Y-34205D01*
X54952Y-34391D02*
X54952Y-34234D01*
X54938Y-34205D01*
X54910Y-34191D01*
X54852Y-34191D01*
X54824Y-34205D01*
X54952Y-34377D02*
X54924Y-34391D01*
X54852Y-34391D01*
X54824Y-34377D01*
X54810Y-34348D01*
X54810Y-34320D01*
X54824Y-34291D01*
X54852Y-34277D01*
X54924Y-34277D01*
X54952Y-34262D01*
G54D12*
X41700Y-21900D02*
X66450Y-21900D01*
X41700Y-46650D02*
X41700Y-21900D01*
X66450Y-46650D02*
X41700Y-46650D01*
X66450Y-21900D02*
X66450Y-46650D01*
G54D13*
X43716Y-39302D02*
X43550Y-39064D01*
X43430Y-39302D02*
X43430Y-38802D01*
X43621Y-38802D01*
X43669Y-38826D01*
X43692Y-38850D01*
X43716Y-38897D01*
X43716Y-38969D01*
X43692Y-39016D01*
X43669Y-39040D01*
X43621Y-39064D01*
X43430Y-39064D01*
X44192Y-39302D02*
X43907Y-39302D01*
X44050Y-39302D02*
X44050Y-38802D01*
X44002Y-38873D01*
X43954Y-38921D01*
X43907Y-38945D01*
X64416Y-43302D02*
X64250Y-43064D01*
X64130Y-43302D02*
X64130Y-42802D01*
X64321Y-42802D01*
X64369Y-42826D01*
X64392Y-42850D01*
X64416Y-42897D01*
X64416Y-42969D01*
X64392Y-43016D01*
X64369Y-43040D01*
X64321Y-43064D01*
X64130Y-43064D01*
X64892Y-43302D02*
X64607Y-43302D01*
X64750Y-43302D02*
X64750Y-42802D01*
X64702Y-42873D01*
X64654Y-42921D01*
X64607Y-42945D01*
G54D12*
X54400Y-39150D02*
X54400Y-38050D01*
X54500Y-39150D02*
X54300Y-39150D01*
X54300Y-39150D02*
X54300Y-38050D01*
X54300Y-38050D02*
X54500Y-38050D01*
X54500Y-38050D02*
X54500Y-39150D01*
X54700Y-38600D02*
X54900Y-38600D01*
X54100Y-38600D02*
X53900Y-38600D01*
X54100Y-39150D02*
X54100Y-38050D01*
X54700Y-39150D02*
X54700Y-38050D01*
X55581Y-39781D02*
G75*
G03X56762Y-38600I0J1181D01*
G74*
G01*
X56762Y-38600D02*
G75*
G03X55581Y-37419I-1181J0D01*
G74*
G01*
X53219Y-37419D02*
X55581Y-37419D01*
X53219Y-39781D02*
X55581Y-39781D01*
X52038Y-38600D02*
G75*
G03X53219Y-39781I1181J0D01*
G74*
G01*
X53219Y-37419D02*
G75*
G03X52038Y-38600I0J-1181D01*
G74*
G01*
X53930Y-29050D02*
X51950Y-29050D01*
X51950Y-29050D02*
X51950Y-28050D01*
X51950Y-28050D02*
X53950Y-28050D01*
X53950Y-28050D02*
X53950Y-29050D01*
X53950Y-28800D02*
X53700Y-29050D01*
X56020Y-36050D02*
X58000Y-36050D01*
X58000Y-36050D02*
X58000Y-37050D01*
X58000Y-37050D02*
X56000Y-37050D01*
X56000Y-37050D02*
X56000Y-36050D01*
X56000Y-36300D02*
X56250Y-36050D01*
X50492Y-36042D02*
X52472Y-36042D01*
X52472Y-36042D02*
X52472Y-37042D01*
X52472Y-37042D02*
X50472Y-37042D01*
X50472Y-37042D02*
X50472Y-36042D01*
X50472Y-36292D02*
X50722Y-36042D01*
X56986Y-43959D02*
X56986Y-40759D01*
X51986Y-40759D02*
X51986Y-43959D01*
X51986Y-43959D02*
X56986Y-43959D01*
X51986Y-40759D02*
X56986Y-40759D01*
X50986Y-43109D02*
X51986Y-43109D01*
X50986Y-41609D02*
X51986Y-41609D01*
X47320Y-41500D02*
X49300Y-41500D01*
X49300Y-41500D02*
X49300Y-42500D01*
X49300Y-42500D02*
X47300Y-42500D01*
X47300Y-42500D02*
X47300Y-41500D01*
X47300Y-41750D02*
X47550Y-41500D01*
X44100Y-26800D02*
G75*
G03X44100Y-26800I-1000J0D01*
G74*
G01*
X44100Y-26550D02*
X43850Y-26550D01*
X43850Y-26550D02*
X43850Y-27050D01*
X43850Y-27050D02*
X44100Y-27050D01*
X64400Y-34800D02*
X65400Y-34800D01*
X64959Y-34800D02*
G75*
G03X64959Y-34800I-559J0D01*
G74*
G01*
X64400Y-35800D02*
X65400Y-35800D01*
X64959Y-35800D02*
G75*
G03X64959Y-35800I-559J0D01*
G74*
G01*
X64400Y-36800D02*
X65400Y-36800D01*
X64959Y-36800D02*
G75*
G03X64959Y-36800I-559J0D01*
G74*
G01*
X64450Y-37800D02*
X65450Y-37800D01*
X65009Y-37800D02*
G75*
G03X65009Y-37800I-559J0D01*
G74*
G01*
X64400Y-38800D02*
X65400Y-38800D01*
X64959Y-38800D02*
G75*
G03X64959Y-38800I-559J0D01*
G74*
G01*
X64400Y-39800D02*
X65400Y-39800D01*
X64959Y-39800D02*
G75*
G03X64959Y-39800I-559J0D01*
G74*
G01*
X64400Y-40800D02*
X65400Y-40800D01*
X64959Y-40800D02*
G75*
G03X64959Y-40800I-559J0D01*
G74*
G01*
X64400Y-41800D02*
X65400Y-41800D01*
X64959Y-41800D02*
G75*
G03X64959Y-41800I-559J0D01*
G74*
G01*
X43700Y-30800D02*
X42700Y-30800D01*
X44259Y-30800D02*
G75*
G03X44259Y-30800I-559J0D01*
G74*
G01*
X43700Y-31800D02*
X42700Y-31800D01*
X44259Y-31800D02*
G75*
G03X44259Y-31800I-559J0D01*
G74*
G01*
X43700Y-32800D02*
X42700Y-32800D01*
X44259Y-32800D02*
G75*
G03X44259Y-32800I-559J0D01*
G74*
G01*
X43700Y-33800D02*
X42700Y-33800D01*
X44259Y-33800D02*
G75*
G03X44259Y-33800I-559J0D01*
G74*
G01*
X43700Y-34800D02*
X42700Y-34800D01*
X44259Y-34800D02*
G75*
G03X44259Y-34800I-559J0D01*
G74*
G01*
X43700Y-35800D02*
X42700Y-35800D01*
X44259Y-35800D02*
G75*
G03X44259Y-35800I-559J0D01*
G74*
G01*
X43700Y-36800D02*
X42700Y-36800D01*
X44259Y-36800D02*
G75*
G03X44259Y-36800I-559J0D01*
G74*
G01*
X43700Y-37800D02*
X42700Y-37800D01*
X44259Y-37800D02*
G75*
G03X44259Y-37800I-559J0D01*
G74*
G01*
X64400Y-26800D02*
X65400Y-26800D01*
X64959Y-26800D02*
G75*
G03X64959Y-26800I-559J0D01*
G74*
G01*
X64400Y-27800D02*
X65400Y-27800D01*
X64959Y-27800D02*
G75*
G03X64959Y-27800I-559J0D01*
G74*
G01*
X64400Y-28800D02*
X65400Y-28800D01*
X64959Y-28800D02*
G75*
G03X64959Y-28800I-559J0D01*
G74*
G01*
X64400Y-29800D02*
X65400Y-29800D01*
X64959Y-29800D02*
G75*
G03X64959Y-29800I-559J0D01*
G74*
G01*
X64400Y-30800D02*
X65400Y-30800D01*
X64959Y-30800D02*
G75*
G03X64959Y-30800I-559J0D01*
G74*
G01*
X64400Y-31800D02*
X65400Y-31800D01*
X64959Y-31800D02*
G75*
G03X64959Y-31800I-559J0D01*
G74*
G01*
X64400Y-32800D02*
X65400Y-32800D01*
X64959Y-32800D02*
G75*
G03X64959Y-32800I-559J0D01*
G74*
G01*
X64400Y-33800D02*
X65400Y-33800D01*
X64959Y-33800D02*
G75*
G03X64959Y-33800I-559J0D01*
G74*
G01*
X42600Y-28900D02*
X43600Y-28900D01*
X43159Y-28900D02*
G75*
G03X43159Y-28900I-559J0D01*
G74*
G01*
X58650Y-41700D02*
X59650Y-41700D01*
X59209Y-41700D02*
G75*
G03X59209Y-41700I-559J0D01*
G74*
G01*
X44824Y-24186D02*
G75*
G03X44824Y-24186I-900J0D01*
G74*
G01*
X44824Y-44658D02*
G75*
G03X44824Y-44658I-900J0D01*
G74*
G01*
X65297Y-24186D02*
G75*
G03X65297Y-24186I-900J0D01*
G74*
G01*
X65297Y-44658D02*
G75*
G03X65297Y-44658I-900J0D01*
G74*
G01*
X58650Y-43100D02*
X59650Y-43100D01*
X59209Y-43100D02*
G75*
G03X59209Y-43100I-559J0D01*
G74*
G01*
X63100Y-42900D02*
X63000Y-43300D01*
X63100Y-42950D02*
X63150Y-43250D01*
X63100Y-42850D02*
X63300Y-43350D01*
X63300Y-43350D02*
X62900Y-43350D01*
X63100Y-42850D02*
X63100Y-43350D01*
X63100Y-43350D02*
X62900Y-43350D01*
X63100Y-42850D02*
X62900Y-43350D01*
X62600Y-36300D02*
X62350Y-36050D01*
X62350Y-36050D02*
X62350Y-35550D01*
X62350Y-35550D02*
X62600Y-35300D01*
X62600Y-35300D02*
X62350Y-35050D01*
X62350Y-35050D02*
X62350Y-34550D01*
X62350Y-34550D02*
X62600Y-34300D01*
X62600Y-34300D02*
X62350Y-34050D01*
X62350Y-34050D02*
X62350Y-33550D01*
X62350Y-33550D02*
X62600Y-33300D01*
X62600Y-33300D02*
X62350Y-33050D01*
X62350Y-33050D02*
X62350Y-32550D01*
X62350Y-32550D02*
X62600Y-32300D01*
X62600Y-32300D02*
X62350Y-32050D01*
X62350Y-32050D02*
X62350Y-31550D01*
X62350Y-31550D02*
X62600Y-31300D01*
X62600Y-31300D02*
X62350Y-31050D01*
X62350Y-31050D02*
X62350Y-30550D01*
X62350Y-30550D02*
X62600Y-30300D01*
X62600Y-30300D02*
X62350Y-30050D01*
X62350Y-30050D02*
X62350Y-29550D01*
X62350Y-29550D02*
X62600Y-29300D01*
X62600Y-29300D02*
X62350Y-29050D01*
X62350Y-29050D02*
X62350Y-28550D01*
X62350Y-28550D02*
X62600Y-28300D01*
X62600Y-28300D02*
X62350Y-28050D01*
X62350Y-28050D02*
X62350Y-27550D01*
X62350Y-27550D02*
X62600Y-27300D01*
X62600Y-27300D02*
X62350Y-27050D01*
X62350Y-27050D02*
X62350Y-26550D01*
X62350Y-26550D02*
X62850Y-26050D01*
X62350Y-37550D02*
X62600Y-37300D01*
X62600Y-37300D02*
X62350Y-37050D01*
X62350Y-37050D02*
X62350Y-36550D01*
X62350Y-36550D02*
X62600Y-36300D01*
X62600Y-41300D02*
X63600Y-41300D01*
X63850Y-41550D02*
X63850Y-42550D01*
X63850Y-42550D02*
X62350Y-42550D01*
X62350Y-42550D02*
X62350Y-41550D01*
X62350Y-41550D02*
X62600Y-41300D01*
X62600Y-41300D02*
X62350Y-41050D01*
X62350Y-41050D02*
X62350Y-40550D01*
X62350Y-40550D02*
X62600Y-40300D01*
X62600Y-40300D02*
X62350Y-40050D01*
X62350Y-40050D02*
X62350Y-39550D01*
X62350Y-39550D02*
X62600Y-39300D01*
X62600Y-39300D02*
X62350Y-39050D01*
X62350Y-39050D02*
X62350Y-38550D01*
X62350Y-38550D02*
X62600Y-38300D01*
X62600Y-38300D02*
X62350Y-38050D01*
X62350Y-38050D02*
X62350Y-37550D01*
X62850Y-26050D02*
X63350Y-26050D01*
X63350Y-26050D02*
X63850Y-26550D01*
X63850Y-26550D02*
X63850Y-27050D01*
X63850Y-27050D02*
X63600Y-27300D01*
X63600Y-27300D02*
X63850Y-27550D01*
X63850Y-27550D02*
X63850Y-28050D01*
X63850Y-28050D02*
X63600Y-28300D01*
X63600Y-28300D02*
X63850Y-28550D01*
X63850Y-28550D02*
X63850Y-29050D01*
X63850Y-29050D02*
X63600Y-29300D01*
X63600Y-29300D02*
X63850Y-29550D01*
X63850Y-29550D02*
X63850Y-30050D01*
X63850Y-30050D02*
X63600Y-30300D01*
X63600Y-30300D02*
X63850Y-30550D01*
X63850Y-30550D02*
X63850Y-31050D01*
X63850Y-31050D02*
X63600Y-31300D01*
X63600Y-31300D02*
X63850Y-31550D01*
X63850Y-31550D02*
X63850Y-32050D01*
X63850Y-32050D02*
X63600Y-32300D01*
X63600Y-32300D02*
X63850Y-32550D01*
X63850Y-32550D02*
X63850Y-33050D01*
X63850Y-33050D02*
X63600Y-33300D01*
X63600Y-33300D02*
X63850Y-33550D01*
X63850Y-33550D02*
X63850Y-34050D01*
X63850Y-34050D02*
X63600Y-34300D01*
X63600Y-34300D02*
X63850Y-34550D01*
X63850Y-34550D02*
X63850Y-35050D01*
X63850Y-35050D02*
X63600Y-35300D01*
X63600Y-35300D02*
X63850Y-35550D01*
X63850Y-35550D02*
X63850Y-36050D01*
X63850Y-36050D02*
X63600Y-36300D01*
X63600Y-36300D02*
X63850Y-36550D01*
X63850Y-36550D02*
X63850Y-37050D01*
X63850Y-37050D02*
X63600Y-37300D01*
X63600Y-37300D02*
X63850Y-37550D01*
X63850Y-37550D02*
X63850Y-38050D01*
X63850Y-38050D02*
X63600Y-38300D01*
X63600Y-38300D02*
X63850Y-38550D01*
X63850Y-38550D02*
X63850Y-39050D01*
X63850Y-39050D02*
X63600Y-39300D01*
X63600Y-39300D02*
X63850Y-39550D01*
X63850Y-39550D02*
X63850Y-40050D01*
X63850Y-40050D02*
X63600Y-40300D01*
X63600Y-40300D02*
X63850Y-40550D01*
X63850Y-40550D02*
X63850Y-41050D01*
X63850Y-41050D02*
X63600Y-41300D01*
X63600Y-41300D02*
X63850Y-41550D01*
X44850Y-26050D02*
X45350Y-26050D01*
X45350Y-26050D02*
X45850Y-26550D01*
X45850Y-26550D02*
X45850Y-27050D01*
X45850Y-27050D02*
X45600Y-27300D01*
X45600Y-27300D02*
X45850Y-27550D01*
X45850Y-27550D02*
X45850Y-28050D01*
X45850Y-28050D02*
X45600Y-28300D01*
X45600Y-28300D02*
X45850Y-28550D01*
X45850Y-28550D02*
X45850Y-29050D01*
X45850Y-29050D02*
X45600Y-29300D01*
X45600Y-29300D02*
X45850Y-29550D01*
X45850Y-29550D02*
X45850Y-30050D01*
X45850Y-30050D02*
X45600Y-30300D01*
X45600Y-30300D02*
X45850Y-30550D01*
X45850Y-30550D02*
X45850Y-31050D01*
X45850Y-31050D02*
X45600Y-31300D01*
X45600Y-31300D02*
X45850Y-31550D01*
X45850Y-31550D02*
X45850Y-32050D01*
X45850Y-32050D02*
X45600Y-32300D01*
X45600Y-32300D02*
X45850Y-32550D01*
X45850Y-32550D02*
X45850Y-33050D01*
X45850Y-33050D02*
X45600Y-33300D01*
X45600Y-33300D02*
X45850Y-33550D01*
X45850Y-33550D02*
X45850Y-34050D01*
X45850Y-34050D02*
X45600Y-34300D01*
X45600Y-34300D02*
X45850Y-34550D01*
X45850Y-34550D02*
X45850Y-35050D01*
X45850Y-35050D02*
X45600Y-35300D01*
X45600Y-35300D02*
X45850Y-35550D01*
X45850Y-35550D02*
X45850Y-36050D01*
X45850Y-36050D02*
X45600Y-36300D01*
X45600Y-36300D02*
X45850Y-36550D01*
X45850Y-36550D02*
X45850Y-37050D01*
X45850Y-37050D02*
X45600Y-37300D01*
X45600Y-37300D02*
X45850Y-37550D01*
X45850Y-37550D02*
X45850Y-38050D01*
X45850Y-38050D02*
X45600Y-38300D01*
X45600Y-38300D02*
X45850Y-38550D01*
X45850Y-38550D02*
X45850Y-39050D01*
X45850Y-39050D02*
X45600Y-39300D01*
X45600Y-39300D02*
X45850Y-39550D01*
X45850Y-39550D02*
X45850Y-40050D01*
X45850Y-40050D02*
X45600Y-40300D01*
X45600Y-40300D02*
X45850Y-40550D01*
X45850Y-40550D02*
X45850Y-41050D01*
X45850Y-41050D02*
X45600Y-41300D01*
X45600Y-41300D02*
X45850Y-41550D01*
X45850Y-41550D02*
X45850Y-42050D01*
X45850Y-42050D02*
X45600Y-42300D01*
X45600Y-42300D02*
X45350Y-42550D01*
X45350Y-42550D02*
X44850Y-42550D01*
X44850Y-42550D02*
X44350Y-42050D01*
X44350Y-42050D02*
X44350Y-41550D01*
X44350Y-41550D02*
X44600Y-41300D01*
X44600Y-41300D02*
X44350Y-41050D01*
X44350Y-41050D02*
X44350Y-40550D01*
X44350Y-40550D02*
X44600Y-40300D01*
X44600Y-40300D02*
X44350Y-40050D01*
X44350Y-40050D02*
X44350Y-39550D01*
X44350Y-39550D02*
X44600Y-39300D01*
X44600Y-39300D02*
X44350Y-39050D01*
X44350Y-39050D02*
X44350Y-38550D01*
X44350Y-38550D02*
X44600Y-38300D01*
X44600Y-38300D02*
X44350Y-38050D01*
X44350Y-38050D02*
X44350Y-37550D01*
X44350Y-37550D02*
X44600Y-37300D01*
X44600Y-37300D02*
X44350Y-37050D01*
X44350Y-37050D02*
X44350Y-36550D01*
X44350Y-36550D02*
X44600Y-36300D01*
X44600Y-36300D02*
X44350Y-36050D01*
X44350Y-36050D02*
X44350Y-35550D01*
X44350Y-35550D02*
X44600Y-35300D01*
X44600Y-35300D02*
X44350Y-35050D01*
X44350Y-35050D02*
X44350Y-34550D01*
X44350Y-34550D02*
X44600Y-34300D01*
X44600Y-34300D02*
X44350Y-34050D01*
X44350Y-34050D02*
X44350Y-33550D01*
X44350Y-33550D02*
X44600Y-33300D01*
X44600Y-33300D02*
X44350Y-33050D01*
X44350Y-33050D02*
X44350Y-32550D01*
X44350Y-32550D02*
X44600Y-32300D01*
X44600Y-32300D02*
X44350Y-32050D01*
X44350Y-32050D02*
X44350Y-31550D01*
X44350Y-31550D02*
X44600Y-31300D01*
X44600Y-31300D02*
X44350Y-31050D01*
X44350Y-31050D02*
X44350Y-30550D01*
X44350Y-30550D02*
X44600Y-30300D01*
X44600Y-30300D02*
X44350Y-30050D01*
X44350Y-30050D02*
X44350Y-29550D01*
X44350Y-29550D02*
X44600Y-29300D01*
X44600Y-29300D02*
X44350Y-29050D01*
X44350Y-29050D02*
X44350Y-28550D01*
X44350Y-28550D02*
X44600Y-28300D01*
X44600Y-28300D02*
X44350Y-28050D01*
X44350Y-28050D02*
X44350Y-27550D01*
X44350Y-27550D02*
X44600Y-27300D01*
X44600Y-27300D02*
X44350Y-27050D01*
X44350Y-27050D02*
X44350Y-26550D01*
X44350Y-26550D02*
X44850Y-26050D01*
X65793Y-26367D02*
X65990Y-26367D01*
X65990Y-26367D02*
X65990Y-22430D01*
X62033Y-22430D02*
X62033Y-22233D01*
X62033Y-22233D02*
X58096Y-22233D01*
X58096Y-22233D02*
X58096Y-22430D01*
X58096Y-22430D02*
X50104Y-22430D01*
X50104Y-22430D02*
X50104Y-22233D01*
X50104Y-22233D02*
X46167Y-22233D01*
X46167Y-22233D02*
X46167Y-22430D01*
X46167Y-22430D02*
X42230Y-22430D01*
X42230Y-22430D02*
X42230Y-26367D01*
X42230Y-26367D02*
X42053Y-26367D01*
X42053Y-26367D02*
X42053Y-30304D01*
X42053Y-30304D02*
X42250Y-30304D01*
X42250Y-30304D02*
X42250Y-38296D01*
X42250Y-38296D02*
X42053Y-38296D01*
X42053Y-38296D02*
X42053Y-42233D01*
X42053Y-42233D02*
X42250Y-42233D01*
X42250Y-42233D02*
X42250Y-46170D01*
X42250Y-46170D02*
X46187Y-46170D01*
X46187Y-46170D02*
X46187Y-45973D01*
X46187Y-45973D02*
X50124Y-45973D01*
X50124Y-45973D02*
X50124Y-46170D01*
X50124Y-46170D02*
X58116Y-46170D01*
X58116Y-46170D02*
X58116Y-45973D01*
X58116Y-45973D02*
X62053Y-45973D01*
X62053Y-45973D02*
X62053Y-46170D01*
X62053Y-46170D02*
X65990Y-46170D01*
X65990Y-46170D02*
X65990Y-42233D01*
X65990Y-42233D02*
X65793Y-42233D01*
X65793Y-42233D02*
X65793Y-38296D01*
X65793Y-38296D02*
X65990Y-38296D01*
X65990Y-38296D02*
X65990Y-30304D01*
X65990Y-30304D02*
X65793Y-30304D01*
X65793Y-30304D02*
X65793Y-26367D01*
X65970Y-22430D02*
X62033Y-22430D01*
X60150Y-32000D02*
X59800Y-32000D01*
X60150Y-32000D02*
X59800Y-32150D01*
X59800Y-32150D02*
X59800Y-31850D01*
X59800Y-31850D02*
X60150Y-32000D01*
X61020Y-32246D02*
X61020Y-32053D01*
X61020Y-32053D02*
X60587Y-32053D01*
X60587Y-32246D02*
X60587Y-32053D01*
X61020Y-32246D02*
X60587Y-32246D01*
X61020Y-31746D02*
X61020Y-31553D01*
X61020Y-31553D02*
X60587Y-31553D01*
X60587Y-31746D02*
X60587Y-31553D01*
X61020Y-31746D02*
X60587Y-31746D01*
X61020Y-31246D02*
X61020Y-31053D01*
X61020Y-31053D02*
X60587Y-31053D01*
X60587Y-31246D02*
X60587Y-31053D01*
X61020Y-31246D02*
X60587Y-31246D01*
X61020Y-30746D02*
X61020Y-30553D01*
X61020Y-30553D02*
X60587Y-30553D01*
X60587Y-30746D02*
X60587Y-30553D01*
X61020Y-30746D02*
X60587Y-30746D01*
X59013Y-29747D02*
X59013Y-29554D01*
X59013Y-29554D02*
X58580Y-29554D01*
X58580Y-29747D02*
X58580Y-29554D01*
X59013Y-29747D02*
X58580Y-29747D01*
X59013Y-30247D02*
X59013Y-30054D01*
X59013Y-30054D02*
X58580Y-30054D01*
X58580Y-30247D02*
X58580Y-30054D01*
X59013Y-30247D02*
X58580Y-30247D01*
X59013Y-30746D02*
X59013Y-30553D01*
X59013Y-30553D02*
X58580Y-30553D01*
X58580Y-30746D02*
X58580Y-30553D01*
X59013Y-30746D02*
X58580Y-30746D01*
X59013Y-31246D02*
X59013Y-31053D01*
X59013Y-31053D02*
X58580Y-31053D01*
X58580Y-31246D02*
X58580Y-31053D01*
X59013Y-31246D02*
X58580Y-31246D01*
X61020Y-30247D02*
X61020Y-30054D01*
X61020Y-30054D02*
X60587Y-30054D01*
X60587Y-30247D02*
X60587Y-30054D01*
X61020Y-30247D02*
X60587Y-30247D01*
X61020Y-29747D02*
X61020Y-29554D01*
X61020Y-29554D02*
X60587Y-29554D01*
X60587Y-29747D02*
X60587Y-29554D01*
X61020Y-29747D02*
X60587Y-29747D01*
X61020Y-29247D02*
X61020Y-29054D01*
X61020Y-29054D02*
X60587Y-29054D01*
X60587Y-29247D02*
X60587Y-29054D01*
X61020Y-29247D02*
X60587Y-29247D01*
X61020Y-28747D02*
X61020Y-28554D01*
X61020Y-28554D02*
X60587Y-28554D01*
X60587Y-28747D02*
X60587Y-28554D01*
X61020Y-28747D02*
X60587Y-28747D01*
X59013Y-28747D02*
X59013Y-28554D01*
X59013Y-28554D02*
X58580Y-28554D01*
X58580Y-28747D02*
X58580Y-28554D01*
X59013Y-28747D02*
X58580Y-28747D01*
X59013Y-29247D02*
X59013Y-29054D01*
X59013Y-29054D02*
X58580Y-29054D01*
X58580Y-29247D02*
X58580Y-29054D01*
X59013Y-29247D02*
X58580Y-29247D01*
X59013Y-31746D02*
X59013Y-31553D01*
X59013Y-31553D02*
X58580Y-31553D01*
X58580Y-31746D02*
X58580Y-31553D01*
X59013Y-31746D02*
X58580Y-31746D01*
X59013Y-32246D02*
X59013Y-32053D01*
X59013Y-32053D02*
X58580Y-32053D01*
X58580Y-32246D02*
X58580Y-32053D01*
X59013Y-32246D02*
X58580Y-32246D01*
X58265Y-32524D02*
X58265Y-28276D01*
X61335Y-28276D02*
X61335Y-32524D01*
X61335Y-32524D02*
X58265Y-32524D01*
X60548Y-28456D02*
X60548Y-32344D01*
X60548Y-32344D02*
X60351Y-32344D01*
X60351Y-32344D02*
X59052Y-32344D01*
X59052Y-32344D02*
X59052Y-28456D01*
X60351Y-28456D02*
X60351Y-32344D01*
X59052Y-28456D02*
X60351Y-28456D01*
X60351Y-28456D02*
X60548Y-28456D01*
X58265Y-28276D02*
X61335Y-28276D01*
X60150Y-40200D02*
X59800Y-40200D01*
X60150Y-40200D02*
X59800Y-40350D01*
X59800Y-40350D02*
X59800Y-40050D01*
X59800Y-40050D02*
X60150Y-40200D01*
X61020Y-40446D02*
X61020Y-40253D01*
X61020Y-40253D02*
X60587Y-40253D01*
X60587Y-40446D02*
X60587Y-40253D01*
X61020Y-40446D02*
X60587Y-40446D01*
X61020Y-39946D02*
X61020Y-39753D01*
X61020Y-39753D02*
X60587Y-39753D01*
X60587Y-39946D02*
X60587Y-39753D01*
X61020Y-39946D02*
X60587Y-39946D01*
X61020Y-39446D02*
X61020Y-39253D01*
X61020Y-39253D02*
X60587Y-39253D01*
X60587Y-39446D02*
X60587Y-39253D01*
X61020Y-39446D02*
X60587Y-39446D01*
X61020Y-38946D02*
X61020Y-38753D01*
X61020Y-38753D02*
X60587Y-38753D01*
X60587Y-38946D02*
X60587Y-38753D01*
X61020Y-38946D02*
X60587Y-38946D01*
X59013Y-37947D02*
X59013Y-37754D01*
X59013Y-37754D02*
X58580Y-37754D01*
X58580Y-37947D02*
X58580Y-37754D01*
X59013Y-37947D02*
X58580Y-37947D01*
X59013Y-38447D02*
X59013Y-38254D01*
X59013Y-38254D02*
X58580Y-38254D01*
X58580Y-38447D02*
X58580Y-38254D01*
X59013Y-38447D02*
X58580Y-38447D01*
X59013Y-38946D02*
X59013Y-38753D01*
X59013Y-38753D02*
X58580Y-38753D01*
X58580Y-38946D02*
X58580Y-38753D01*
X59013Y-38946D02*
X58580Y-38946D01*
X59013Y-39446D02*
X59013Y-39253D01*
X59013Y-39253D02*
X58580Y-39253D01*
X58580Y-39446D02*
X58580Y-39253D01*
X59013Y-39446D02*
X58580Y-39446D01*
X61020Y-38447D02*
X61020Y-38254D01*
X61020Y-38254D02*
X60587Y-38254D01*
X60587Y-38447D02*
X60587Y-38254D01*
X61020Y-38447D02*
X60587Y-38447D01*
X61020Y-37947D02*
X61020Y-37754D01*
X61020Y-37754D02*
X60587Y-37754D01*
X60587Y-37947D02*
X60587Y-37754D01*
X61020Y-37947D02*
X60587Y-37947D01*
X61020Y-37447D02*
X61020Y-37254D01*
X61020Y-37254D02*
X60587Y-37254D01*
X60587Y-37447D02*
X60587Y-37254D01*
X61020Y-37447D02*
X60587Y-37447D01*
X61020Y-36947D02*
X61020Y-36754D01*
X61020Y-36754D02*
X60587Y-36754D01*
X60587Y-36947D02*
X60587Y-36754D01*
X61020Y-36947D02*
X60587Y-36947D01*
X59013Y-36947D02*
X59013Y-36754D01*
X59013Y-36754D02*
X58580Y-36754D01*
X58580Y-36947D02*
X58580Y-36754D01*
X59013Y-36947D02*
X58580Y-36947D01*
X59013Y-37447D02*
X59013Y-37254D01*
X59013Y-37254D02*
X58580Y-37254D01*
X58580Y-37447D02*
X58580Y-37254D01*
X59013Y-37447D02*
X58580Y-37447D01*
X59013Y-39946D02*
X59013Y-39753D01*
X59013Y-39753D02*
X58580Y-39753D01*
X58580Y-39946D02*
X58580Y-39753D01*
X59013Y-39946D02*
X58580Y-39946D01*
X59013Y-40446D02*
X59013Y-40253D01*
X59013Y-40253D02*
X58580Y-40253D01*
X58580Y-40446D02*
X58580Y-40253D01*
X59013Y-40446D02*
X58580Y-40446D01*
X58265Y-40724D02*
X58265Y-36476D01*
X61335Y-36476D02*
X61335Y-40724D01*
X61335Y-40724D02*
X58265Y-40724D01*
X60548Y-36656D02*
X60548Y-40544D01*
X60548Y-40544D02*
X60351Y-40544D01*
X60351Y-40544D02*
X59052Y-40544D01*
X59052Y-40544D02*
X59052Y-36656D01*
X60351Y-36656D02*
X60351Y-40544D01*
X59052Y-36656D02*
X60351Y-36656D01*
X60351Y-36656D02*
X60548Y-36656D01*
X58265Y-36476D02*
X61335Y-36476D01*
X48000Y-28750D02*
X48350Y-28750D01*
X48000Y-28750D02*
X48350Y-28600D01*
X48350Y-28600D02*
X48350Y-28900D01*
X48350Y-28900D02*
X48000Y-28750D01*
X47130Y-28504D02*
X47130Y-28697D01*
X47130Y-28697D02*
X47563Y-28697D01*
X47563Y-28504D02*
X47563Y-28697D01*
X47130Y-28504D02*
X47563Y-28504D01*
X47130Y-29004D02*
X47130Y-29197D01*
X47130Y-29197D02*
X47563Y-29197D01*
X47563Y-29004D02*
X47563Y-29197D01*
X47130Y-29004D02*
X47563Y-29004D01*
X47130Y-29504D02*
X47130Y-29697D01*
X47130Y-29697D02*
X47563Y-29697D01*
X47563Y-29504D02*
X47563Y-29697D01*
X47130Y-29504D02*
X47563Y-29504D01*
X47130Y-30004D02*
X47130Y-30197D01*
X47130Y-30197D02*
X47563Y-30197D01*
X47563Y-30004D02*
X47563Y-30197D01*
X47130Y-30004D02*
X47563Y-30004D01*
X49137Y-31003D02*
X49137Y-31196D01*
X49137Y-31196D02*
X49570Y-31196D01*
X49570Y-31003D02*
X49570Y-31196D01*
X49137Y-31003D02*
X49570Y-31003D01*
X49137Y-30503D02*
X49137Y-30696D01*
X49137Y-30696D02*
X49570Y-30696D01*
X49570Y-30503D02*
X49570Y-30696D01*
X49137Y-30503D02*
X49570Y-30503D01*
X49137Y-30004D02*
X49137Y-30197D01*
X49137Y-30197D02*
X49570Y-30197D01*
X49570Y-30004D02*
X49570Y-30197D01*
X49137Y-30004D02*
X49570Y-30004D01*
X49137Y-29504D02*
X49137Y-29697D01*
X49137Y-29697D02*
X49570Y-29697D01*
X49570Y-29504D02*
X49570Y-29697D01*
X49137Y-29504D02*
X49570Y-29504D01*
X47130Y-30503D02*
X47130Y-30696D01*
X47130Y-30696D02*
X47563Y-30696D01*
X47563Y-30503D02*
X47563Y-30696D01*
X47130Y-30503D02*
X47563Y-30503D01*
X47130Y-31003D02*
X47130Y-31196D01*
X47130Y-31196D02*
X47563Y-31196D01*
X47563Y-31003D02*
X47563Y-31196D01*
X47130Y-31003D02*
X47563Y-31003D01*
X47130Y-31503D02*
X47130Y-31696D01*
X47130Y-31696D02*
X47563Y-31696D01*
X47563Y-31503D02*
X47563Y-31696D01*
X47130Y-31503D02*
X47563Y-31503D01*
X47130Y-32003D02*
X47130Y-32196D01*
X47130Y-32196D02*
X47563Y-32196D01*
X47563Y-32003D02*
X47563Y-32196D01*
X47130Y-32003D02*
X47563Y-32003D01*
X49137Y-32003D02*
X49137Y-32196D01*
X49137Y-32196D02*
X49570Y-32196D01*
X49570Y-32003D02*
X49570Y-32196D01*
X49137Y-32003D02*
X49570Y-32003D01*
X49137Y-31503D02*
X49137Y-31696D01*
X49137Y-31696D02*
X49570Y-31696D01*
X49570Y-31503D02*
X49570Y-31696D01*
X49137Y-31503D02*
X49570Y-31503D01*
X49137Y-29004D02*
X49137Y-29197D01*
X49137Y-29197D02*
X49570Y-29197D01*
X49570Y-29004D02*
X49570Y-29197D01*
X49137Y-29004D02*
X49570Y-29004D01*
X49137Y-28504D02*
X49137Y-28697D01*
X49137Y-28697D02*
X49570Y-28697D01*
X49570Y-28504D02*
X49570Y-28697D01*
X49137Y-28504D02*
X49570Y-28504D01*
X49885Y-28226D02*
X49885Y-32474D01*
X46815Y-32474D02*
X46815Y-28226D01*
X46815Y-28226D02*
X49885Y-28226D01*
X47602Y-32294D02*
X47602Y-28406D01*
X47602Y-28406D02*
X47799Y-28406D01*
X47799Y-28406D02*
X49098Y-28406D01*
X49098Y-28406D02*
X49098Y-32294D01*
X47799Y-32294D02*
X47799Y-28406D01*
X49098Y-32294D02*
X47799Y-32294D01*
X47799Y-32294D02*
X47602Y-32294D01*
X49885Y-32474D02*
X46815Y-32474D01*
X48700Y-40200D02*
X48350Y-40200D01*
X48700Y-40200D02*
X48350Y-40350D01*
X48350Y-40350D02*
X48350Y-40050D01*
X48350Y-40050D02*
X48700Y-40200D01*
X49570Y-40446D02*
X49570Y-40253D01*
X49570Y-40253D02*
X49137Y-40253D01*
X49137Y-40446D02*
X49137Y-40253D01*
X49570Y-40446D02*
X49137Y-40446D01*
X49570Y-39946D02*
X49570Y-39753D01*
X49570Y-39753D02*
X49137Y-39753D01*
X49137Y-39946D02*
X49137Y-39753D01*
X49570Y-39946D02*
X49137Y-39946D01*
X49570Y-39446D02*
X49570Y-39253D01*
X49570Y-39253D02*
X49137Y-39253D01*
X49137Y-39446D02*
X49137Y-39253D01*
X49570Y-39446D02*
X49137Y-39446D01*
X49570Y-38946D02*
X49570Y-38753D01*
X49570Y-38753D02*
X49137Y-38753D01*
X49137Y-38946D02*
X49137Y-38753D01*
X49570Y-38946D02*
X49137Y-38946D01*
X47563Y-37947D02*
X47563Y-37754D01*
X47563Y-37754D02*
X47130Y-37754D01*
X47130Y-37947D02*
X47130Y-37754D01*
X47563Y-37947D02*
X47130Y-37947D01*
X47563Y-38447D02*
X47563Y-38254D01*
X47563Y-38254D02*
X47130Y-38254D01*
X47130Y-38447D02*
X47130Y-38254D01*
X47563Y-38447D02*
X47130Y-38447D01*
X47563Y-38946D02*
X47563Y-38753D01*
X47563Y-38753D02*
X47130Y-38753D01*
X47130Y-38946D02*
X47130Y-38753D01*
X47563Y-38946D02*
X47130Y-38946D01*
X47563Y-39446D02*
X47563Y-39253D01*
X47563Y-39253D02*
X47130Y-39253D01*
X47130Y-39446D02*
X47130Y-39253D01*
X47563Y-39446D02*
X47130Y-39446D01*
X49570Y-38447D02*
X49570Y-38254D01*
X49570Y-38254D02*
X49137Y-38254D01*
X49137Y-38447D02*
X49137Y-38254D01*
X49570Y-38447D02*
X49137Y-38447D01*
X49570Y-37947D02*
X49570Y-37754D01*
X49570Y-37754D02*
X49137Y-37754D01*
X49137Y-37947D02*
X49137Y-37754D01*
X49570Y-37947D02*
X49137Y-37947D01*
X49570Y-37447D02*
X49570Y-37254D01*
X49570Y-37254D02*
X49137Y-37254D01*
X49137Y-37447D02*
X49137Y-37254D01*
X49570Y-37447D02*
X49137Y-37447D01*
X49570Y-36947D02*
X49570Y-36754D01*
X49570Y-36754D02*
X49137Y-36754D01*
X49137Y-36947D02*
X49137Y-36754D01*
X49570Y-36947D02*
X49137Y-36947D01*
X47563Y-36947D02*
X47563Y-36754D01*
X47563Y-36754D02*
X47130Y-36754D01*
X47130Y-36947D02*
X47130Y-36754D01*
X47563Y-36947D02*
X47130Y-36947D01*
X47563Y-37447D02*
X47563Y-37254D01*
X47563Y-37254D02*
X47130Y-37254D01*
X47130Y-37447D02*
X47130Y-37254D01*
X47563Y-37447D02*
X47130Y-37447D01*
X47563Y-39946D02*
X47563Y-39753D01*
X47563Y-39753D02*
X47130Y-39753D01*
X47130Y-39946D02*
X47130Y-39753D01*
X47563Y-39946D02*
X47130Y-39946D01*
X47563Y-40446D02*
X47563Y-40253D01*
X47563Y-40253D02*
X47130Y-40253D01*
X47130Y-40446D02*
X47130Y-40253D01*
X47563Y-40446D02*
X47130Y-40446D01*
X46815Y-40724D02*
X46815Y-36476D01*
X49885Y-36476D02*
X49885Y-40724D01*
X49885Y-40724D02*
X46815Y-40724D01*
X49098Y-36656D02*
X49098Y-40544D01*
X49098Y-40544D02*
X48901Y-40544D01*
X48901Y-40544D02*
X47602Y-40544D01*
X47602Y-40544D02*
X47602Y-36656D01*
X48901Y-36656D02*
X48901Y-40544D01*
X47602Y-36656D02*
X48901Y-36656D01*
X48901Y-36656D02*
X49098Y-36656D01*
X46815Y-36476D02*
X49885Y-36476D01*
X52600Y-32600D02*
X52400Y-32300D01*
X52400Y-32300D02*
X52300Y-32400D01*
X52300Y-32400D02*
X52600Y-32600D01*
X56180Y-35290D02*
X55730Y-35290D01*
X56180Y-33110D02*
X55740Y-33110D01*
X56180Y-35290D02*
X56180Y-33110D01*
X55300Y-35760D02*
X55300Y-36190D01*
X53090Y-35770D02*
X53090Y-36190D01*
X53080Y-36190D02*
X55300Y-36200D01*
X53100Y-32220D02*
X55270Y-32210D01*
X52670Y-32910D02*
X52670Y-35740D01*
X55280Y-32220D02*
X55280Y-32630D01*
X52920Y-32670D02*
X55700Y-32670D01*
X55720Y-35750D02*
X55720Y-32710D01*
X52670Y-35750D02*
X55670Y-35750D01*
X52220Y-33080D02*
X52220Y-35300D01*
X52220Y-35300D02*
X52670Y-35300D01*
X52674Y-32900D02*
X52904Y-32670D01*
X52222Y-33080D02*
X52674Y-33080D01*
X53100Y-32670D02*
X53100Y-32218D01*
X53270Y-33074D02*
G75*
G03X53270Y-33074I-188J0D01*
G74*
G01*
G54D13*
X54450Y-29050D02*
X54450Y-28050D01*
X54450Y-28050D02*
X56450Y-28050D01*
X56450Y-28050D02*
X56450Y-29050D01*
X56450Y-29050D02*
X54450Y-29050D01*
X53995Y-39952D02*
X54328Y-40452D01*
X54328Y-39952D02*
X53995Y-40452D01*
X54780Y-40452D02*
X54495Y-40452D01*
X54638Y-40452D02*
X54638Y-39952D01*
X54590Y-40023D01*
X54542Y-40071D01*
X54495Y-40095D01*
X51116Y-28954D02*
X51092Y-28978D01*
X51021Y-29002D01*
X50973Y-29002D01*
X50902Y-28978D01*
X50854Y-28930D01*
X50830Y-28883D01*
X50807Y-28788D01*
X50807Y-28716D01*
X50830Y-28621D01*
X50854Y-28573D01*
X50902Y-28526D01*
X50973Y-28502D01*
X51021Y-28502D01*
X51092Y-28526D01*
X51116Y-28550D01*
X51569Y-28502D02*
X51330Y-28502D01*
X51307Y-28740D01*
X51330Y-28716D01*
X51378Y-28692D01*
X51497Y-28692D01*
X51545Y-28716D01*
X51569Y-28740D01*
X51592Y-28788D01*
X51592Y-28907D01*
X51569Y-28954D01*
X51545Y-28978D01*
X51497Y-29002D01*
X51378Y-29002D01*
X51330Y-28978D01*
X51307Y-28954D01*
X57266Y-37704D02*
X57242Y-37728D01*
X57171Y-37752D01*
X57123Y-37752D01*
X57052Y-37728D01*
X57004Y-37680D01*
X56980Y-37633D01*
X56957Y-37538D01*
X56957Y-37466D01*
X56980Y-37371D01*
X57004Y-37323D01*
X57052Y-37276D01*
X57123Y-37252D01*
X57171Y-37252D01*
X57242Y-37276D01*
X57266Y-37300D01*
X57457Y-37300D02*
X57480Y-37276D01*
X57528Y-37252D01*
X57647Y-37252D01*
X57695Y-37276D01*
X57719Y-37300D01*
X57742Y-37347D01*
X57742Y-37395D01*
X57719Y-37466D01*
X57433Y-37752D01*
X57742Y-37752D01*
X51066Y-37654D02*
X51042Y-37678D01*
X50971Y-37702D01*
X50923Y-37702D01*
X50852Y-37678D01*
X50804Y-37630D01*
X50780Y-37583D01*
X50757Y-37488D01*
X50757Y-37416D01*
X50780Y-37321D01*
X50804Y-37273D01*
X50852Y-37226D01*
X50923Y-37202D01*
X50971Y-37202D01*
X51042Y-37226D01*
X51066Y-37250D01*
X51542Y-37702D02*
X51257Y-37702D01*
X51400Y-37702D02*
X51400Y-37202D01*
X51352Y-37273D01*
X51304Y-37321D01*
X51257Y-37345D01*
X54650Y-42562D02*
X54674Y-42586D01*
X54698Y-42657D01*
X54698Y-42705D01*
X54674Y-42776D01*
X54626Y-42824D01*
X54579Y-42848D01*
X54484Y-42871D01*
X54412Y-42871D01*
X54317Y-42848D01*
X54269Y-42824D01*
X54222Y-42776D01*
X54198Y-42705D01*
X54198Y-42657D01*
X54222Y-42586D01*
X54246Y-42562D01*
X54365Y-42133D02*
X54698Y-42133D01*
X54174Y-42252D02*
X54531Y-42371D01*
X54531Y-42062D01*
X52450Y-41837D02*
X52450Y-41380D01*
X52678Y-41608D02*
X52221Y-41608D01*
X48216Y-43204D02*
X48192Y-43228D01*
X48121Y-43252D01*
X48073Y-43252D01*
X48002Y-43228D01*
X47954Y-43180D01*
X47930Y-43133D01*
X47907Y-43038D01*
X47907Y-42966D01*
X47930Y-42871D01*
X47954Y-42823D01*
X48002Y-42776D01*
X48073Y-42752D01*
X48121Y-42752D01*
X48192Y-42776D01*
X48216Y-42800D01*
X48383Y-42752D02*
X48692Y-42752D01*
X48526Y-42942D01*
X48597Y-42942D01*
X48645Y-42966D01*
X48669Y-42990D01*
X48692Y-43038D01*
X48692Y-43157D01*
X48669Y-43204D01*
X48645Y-43228D01*
X48597Y-43252D01*
X48454Y-43252D01*
X48407Y-43228D01*
X48383Y-43204D01*
X43382Y-28402D02*
X43382Y-27902D01*
X43502Y-27902D01*
X43573Y-27926D01*
X43621Y-27973D01*
X43644Y-28021D01*
X43668Y-28116D01*
X43668Y-28188D01*
X43644Y-28283D01*
X43621Y-28330D01*
X43573Y-28378D01*
X43502Y-28402D01*
X43382Y-28402D01*
X44144Y-28402D02*
X43859Y-28402D01*
X44002Y-28402D02*
X44002Y-27902D01*
X43954Y-27973D01*
X43906Y-28021D01*
X43859Y-28045D01*
X42778Y-30052D02*
X42611Y-29814D01*
X42492Y-30052D02*
X42492Y-29552D01*
X42683Y-29552D01*
X42730Y-29576D01*
X42754Y-29600D01*
X42778Y-29647D01*
X42778Y-29719D01*
X42754Y-29766D01*
X42730Y-29790D01*
X42683Y-29814D01*
X42492Y-29814D01*
X42969Y-29600D02*
X42992Y-29576D01*
X43040Y-29552D01*
X43159Y-29552D01*
X43207Y-29576D01*
X43230Y-29600D01*
X43254Y-29647D01*
X43254Y-29695D01*
X43230Y-29766D01*
X42945Y-30052D01*
X43254Y-30052D01*
X43683Y-29552D02*
X43588Y-29552D01*
X43540Y-29576D01*
X43516Y-29600D01*
X43469Y-29671D01*
X43445Y-29766D01*
X43445Y-29957D01*
X43469Y-30004D01*
X43492Y-30028D01*
X43540Y-30052D01*
X43635Y-30052D01*
X43683Y-30028D01*
X43707Y-30004D01*
X43730Y-29957D01*
X43730Y-29838D01*
X43707Y-29790D01*
X43683Y-29766D01*
X43635Y-29742D01*
X43540Y-29742D01*
X43492Y-29766D01*
X43469Y-29790D01*
X43445Y-29838D01*
X60678Y-41952D02*
X60511Y-41714D01*
X60392Y-41952D02*
X60392Y-41452D01*
X60583Y-41452D01*
X60630Y-41476D01*
X60654Y-41500D01*
X60678Y-41547D01*
X60678Y-41619D01*
X60654Y-41666D01*
X60630Y-41690D01*
X60583Y-41714D01*
X60392Y-41714D01*
X60869Y-41500D02*
X60892Y-41476D01*
X60940Y-41452D01*
X61059Y-41452D01*
X61107Y-41476D01*
X61130Y-41500D01*
X61154Y-41547D01*
X61154Y-41595D01*
X61130Y-41666D01*
X60845Y-41952D01*
X61154Y-41952D01*
X61607Y-41452D02*
X61369Y-41452D01*
X61345Y-41690D01*
X61369Y-41666D01*
X61416Y-41642D01*
X61535Y-41642D01*
X61583Y-41666D01*
X61607Y-41690D01*
X61630Y-41738D01*
X61630Y-41857D01*
X61607Y-41904D01*
X61583Y-41928D01*
X61535Y-41952D01*
X61416Y-41952D01*
X61369Y-41928D01*
X61345Y-41904D01*
X60628Y-43302D02*
X60461Y-43064D01*
X60342Y-43302D02*
X60342Y-42802D01*
X60533Y-42802D01*
X60580Y-42826D01*
X60604Y-42850D01*
X60628Y-42897D01*
X60628Y-42969D01*
X60604Y-43016D01*
X60580Y-43040D01*
X60533Y-43064D01*
X60342Y-43064D01*
X60819Y-42850D02*
X60842Y-42826D01*
X60890Y-42802D01*
X61009Y-42802D01*
X61057Y-42826D01*
X61080Y-42850D01*
X61104Y-42897D01*
X61104Y-42945D01*
X61080Y-43016D01*
X60795Y-43302D01*
X61104Y-43302D01*
X61271Y-42802D02*
X61604Y-42802D01*
X61390Y-43302D01*
X46808Y-23052D02*
X46808Y-22552D01*
X46975Y-22909D01*
X47141Y-22552D01*
X47141Y-23052D01*
X47355Y-22909D02*
X47594Y-22909D01*
X47308Y-23052D02*
X47475Y-22552D01*
X47641Y-23052D01*
X47736Y-22552D02*
X48022Y-22552D01*
X47879Y-23052D02*
X47879Y-22552D01*
X48475Y-23052D02*
X48308Y-22814D01*
X48189Y-23052D02*
X48189Y-22552D01*
X48379Y-22552D01*
X48427Y-22576D01*
X48451Y-22600D01*
X48475Y-22647D01*
X48475Y-22719D01*
X48451Y-22766D01*
X48427Y-22790D01*
X48379Y-22814D01*
X48189Y-22814D01*
X48689Y-23052D02*
X48689Y-22552D01*
X48879Y-22552D02*
X49213Y-23052D01*
X49213Y-22552D02*
X48879Y-23052D01*
X49665Y-23052D02*
X49379Y-23052D01*
X49522Y-23052D02*
X49522Y-22552D01*
X49475Y-22623D01*
X49427Y-22671D01*
X49379Y-22695D01*
X58671Y-22766D02*
X58623Y-22742D01*
X58600Y-22719D01*
X58576Y-22671D01*
X58576Y-22647D01*
X58600Y-22600D01*
X58623Y-22576D01*
X58671Y-22552D01*
X58766Y-22552D01*
X58814Y-22576D01*
X58838Y-22600D01*
X58861Y-22647D01*
X58861Y-22671D01*
X58838Y-22719D01*
X58814Y-22742D01*
X58766Y-22766D01*
X58671Y-22766D01*
X58623Y-22790D01*
X58600Y-22814D01*
X58576Y-22861D01*
X58576Y-22957D01*
X58600Y-23004D01*
X58623Y-23028D01*
X58671Y-23052D01*
X58766Y-23052D01*
X58814Y-23028D01*
X58838Y-23004D01*
X58861Y-22957D01*
X58861Y-22861D01*
X58838Y-22814D01*
X58814Y-22790D01*
X58766Y-22766D01*
X59028Y-23052D02*
X59290Y-22719D01*
X59028Y-22719D02*
X59290Y-23052D01*
X59552Y-22766D02*
X59504Y-22742D01*
X59480Y-22719D01*
X59457Y-22671D01*
X59457Y-22647D01*
X59480Y-22600D01*
X59504Y-22576D01*
X59552Y-22552D01*
X59647Y-22552D01*
X59695Y-22576D01*
X59719Y-22600D01*
X59742Y-22647D01*
X59742Y-22671D01*
X59719Y-22719D01*
X59695Y-22742D01*
X59647Y-22766D01*
X59552Y-22766D01*
X59504Y-22790D01*
X59480Y-22814D01*
X59457Y-22861D01*
X59457Y-22957D01*
X59480Y-23004D01*
X59504Y-23028D01*
X59552Y-23052D01*
X59647Y-23052D01*
X59695Y-23028D01*
X59719Y-23004D01*
X59742Y-22957D01*
X59742Y-22861D01*
X59719Y-22814D01*
X59695Y-22790D01*
X59647Y-22766D01*
X59838Y-23100D02*
X60219Y-23100D01*
X60623Y-23052D02*
X60457Y-22814D01*
X60338Y-23052D02*
X60338Y-22552D01*
X60528Y-22552D01*
X60576Y-22576D01*
X60600Y-22600D01*
X60623Y-22647D01*
X60623Y-22719D01*
X60600Y-22766D01*
X60576Y-22790D01*
X60528Y-22814D01*
X60338Y-22814D01*
X61100Y-22576D02*
X61052Y-22552D01*
X60980Y-22552D01*
X60909Y-22576D01*
X60861Y-22623D01*
X60838Y-22671D01*
X60814Y-22766D01*
X60814Y-22838D01*
X60838Y-22933D01*
X60861Y-22980D01*
X60909Y-23028D01*
X60980Y-23052D01*
X61028Y-23052D01*
X61100Y-23028D01*
X61123Y-23004D01*
X61123Y-22838D01*
X61028Y-22838D01*
X61504Y-22790D02*
X61576Y-22814D01*
X61600Y-22838D01*
X61623Y-22885D01*
X61623Y-22957D01*
X61600Y-23004D01*
X61576Y-23028D01*
X61528Y-23052D01*
X61338Y-23052D01*
X61338Y-22552D01*
X61504Y-22552D01*
X61552Y-22576D01*
X61576Y-22600D01*
X61600Y-22647D01*
X61600Y-22695D01*
X61576Y-22742D01*
X61552Y-22766D01*
X61504Y-22790D01*
X61338Y-22790D01*
X57902Y-32088D02*
X57402Y-32088D01*
X57854Y-31564D02*
X57878Y-31588D01*
X57902Y-31659D01*
X57902Y-31707D01*
X57878Y-31778D01*
X57830Y-31826D01*
X57783Y-31850D01*
X57688Y-31873D01*
X57616Y-31873D01*
X57521Y-31850D01*
X57473Y-31826D01*
X57426Y-31778D01*
X57402Y-31707D01*
X57402Y-31659D01*
X57426Y-31588D01*
X57450Y-31564D01*
X57450Y-31373D02*
X57426Y-31350D01*
X57402Y-31302D01*
X57402Y-31183D01*
X57426Y-31135D01*
X57450Y-31111D01*
X57497Y-31088D01*
X57545Y-31088D01*
X57616Y-31111D01*
X57902Y-31397D01*
X57902Y-31088D01*
X57902Y-40088D02*
X57402Y-40088D01*
X57854Y-39564D02*
X57878Y-39588D01*
X57902Y-39659D01*
X57902Y-39707D01*
X57878Y-39778D01*
X57830Y-39826D01*
X57783Y-39850D01*
X57688Y-39873D01*
X57616Y-39873D01*
X57521Y-39850D01*
X57473Y-39826D01*
X57426Y-39778D01*
X57402Y-39707D01*
X57402Y-39659D01*
X57426Y-39588D01*
X57450Y-39564D01*
X57569Y-39135D02*
X57902Y-39135D01*
X57378Y-39254D02*
X57735Y-39373D01*
X57735Y-39064D01*
X50702Y-32088D02*
X50202Y-32088D01*
X50654Y-31564D02*
X50678Y-31588D01*
X50702Y-31659D01*
X50702Y-31707D01*
X50678Y-31778D01*
X50630Y-31826D01*
X50583Y-31850D01*
X50488Y-31873D01*
X50416Y-31873D01*
X50321Y-31850D01*
X50273Y-31826D01*
X50226Y-31778D01*
X50202Y-31707D01*
X50202Y-31659D01*
X50226Y-31588D01*
X50250Y-31564D01*
X50202Y-31111D02*
X50202Y-31350D01*
X50440Y-31373D01*
X50416Y-31350D01*
X50392Y-31302D01*
X50392Y-31183D01*
X50416Y-31135D01*
X50440Y-31111D01*
X50488Y-31088D01*
X50607Y-31088D01*
X50654Y-31111D01*
X50678Y-31135D01*
X50702Y-31183D01*
X50702Y-31302D01*
X50678Y-31350D01*
X50654Y-31373D01*
X50702Y-40188D02*
X50202Y-40188D01*
X50654Y-39664D02*
X50678Y-39688D01*
X50702Y-39759D01*
X50702Y-39807D01*
X50678Y-39878D01*
X50630Y-39926D01*
X50583Y-39950D01*
X50488Y-39973D01*
X50416Y-39973D01*
X50321Y-39950D01*
X50273Y-39926D01*
X50226Y-39878D01*
X50202Y-39807D01*
X50202Y-39759D01*
X50226Y-39688D01*
X50250Y-39664D01*
X50202Y-39497D02*
X50202Y-39188D01*
X50392Y-39354D01*
X50392Y-39283D01*
X50416Y-39235D01*
X50440Y-39211D01*
X50488Y-39188D01*
X50607Y-39188D01*
X50654Y-39211D01*
X50678Y-39235D01*
X50702Y-39283D01*
X50702Y-39426D01*
X50678Y-39473D01*
X50654Y-39497D01*
X53731Y-33482D02*
X53731Y-32982D01*
X54255Y-33434D02*
X54231Y-33458D01*
X54160Y-33482D01*
X54112Y-33482D01*
X54041Y-33458D01*
X53993Y-33410D01*
X53970Y-33363D01*
X53946Y-33268D01*
X53946Y-33196D01*
X53970Y-33101D01*
X53993Y-33053D01*
X54041Y-33006D01*
X54112Y-32982D01*
X54160Y-32982D01*
X54231Y-33006D01*
X54255Y-33030D01*
X54731Y-33482D02*
X54446Y-33482D01*
X54589Y-33482D02*
X54589Y-32982D01*
X54541Y-33053D01*
X54493Y-33101D01*
X54446Y-33125D01*
G54D14*
X55159Y-27709D02*
X55159Y-27315D01*
X55309Y-27315D01*
X55346Y-27334D01*
X55365Y-27353D01*
X55384Y-27390D01*
X55384Y-27446D01*
X55365Y-27484D01*
X55346Y-27503D01*
X55309Y-27521D01*
X55159Y-27521D01*
X55721Y-27315D02*
X55646Y-27315D01*
X55609Y-27334D01*
X55590Y-27353D01*
X55553Y-27409D01*
X55534Y-27484D01*
X55534Y-27634D01*
X55553Y-27671D01*
X55571Y-27690D01*
X55609Y-27709D01*
X55684Y-27709D01*
X55721Y-27690D01*
X55740Y-27671D01*
X55759Y-27634D01*
X55759Y-27540D01*
X55740Y-27503D01*
X55721Y-27484D01*
X55684Y-27465D01*
X55609Y-27465D01*
X55571Y-27484D01*
X55553Y-27503D01*
X55534Y-27540D01*
%LPC*%
G54D15*
X55365Y-38600D03*
X53435Y-38600D03*
G54D16*
X47400Y-26200D03*
G54D17*
X47400Y-27200D03*
X48400Y-26200D03*
X48400Y-27200D03*
X49400Y-26200D03*
X49400Y-27200D03*
G54D16*
X58800Y-26200D03*
G54D17*
X58800Y-27200D03*
X59800Y-26200D03*
X59800Y-27200D03*
X60800Y-26200D03*
X60800Y-27200D03*
G54D15*
X53450Y-28550D03*
X52450Y-28550D03*
X56500Y-36550D03*
X57500Y-36550D03*
X50972Y-36542D03*
X51972Y-36542D03*
G54D18*
X50986Y-41609D03*
G54D19*
X50986Y-43109D03*
G54D15*
X47800Y-42000D03*
X48800Y-42000D03*
G54D20*
X42600Y-26800D03*
G54D15*
X43600Y-26800D03*
X64400Y-34800D03*
X65400Y-34800D03*
X64400Y-35800D03*
X65400Y-35800D03*
X64400Y-36800D03*
X65400Y-36800D03*
X64450Y-37800D03*
X65450Y-37800D03*
X64400Y-38800D03*
X65400Y-38800D03*
X64400Y-39800D03*
X65400Y-39800D03*
X64400Y-40800D03*
X65400Y-40800D03*
X64400Y-41800D03*
X65400Y-41800D03*
X43700Y-30800D03*
X42700Y-30800D03*
X43700Y-31800D03*
X42700Y-31800D03*
X43700Y-32800D03*
X42700Y-32800D03*
X43700Y-33800D03*
X42700Y-33800D03*
X43700Y-34800D03*
X42700Y-34800D03*
X43700Y-35800D03*
X42700Y-35800D03*
X43700Y-36800D03*
X42700Y-36800D03*
X43700Y-37800D03*
X42700Y-37800D03*
X64400Y-26800D03*
X65400Y-26800D03*
X64400Y-27800D03*
X65400Y-27800D03*
X64400Y-28800D03*
X65400Y-28800D03*
X64400Y-29800D03*
X65400Y-29800D03*
X64400Y-30800D03*
X65400Y-30800D03*
X64400Y-31800D03*
X65400Y-31800D03*
X64400Y-32800D03*
X65400Y-32800D03*
X64400Y-33800D03*
X65400Y-33800D03*
X42600Y-28900D03*
X43600Y-28900D03*
X58650Y-41700D03*
X59650Y-41700D03*
G54D21*
X43924Y-24186D03*
X43924Y-44658D03*
X64397Y-24186D03*
X64397Y-44658D03*
G54D15*
X58650Y-43100D03*
X59650Y-43100D03*
G54D17*
X45080Y-26784D03*
X45080Y-27784D03*
X45080Y-28784D03*
X45080Y-29784D03*
X45080Y-30784D03*
X45080Y-31784D03*
X45080Y-32784D03*
X45080Y-34784D03*
X45080Y-35784D03*
X45080Y-36784D03*
X45080Y-37784D03*
X45080Y-38784D03*
X45080Y-39784D03*
X45080Y-40784D03*
X45080Y-41784D03*
X63100Y-26780D03*
X63100Y-27780D03*
X63100Y-28780D03*
X63100Y-29780D03*
X63100Y-30780D03*
X63100Y-31780D03*
X63100Y-32780D03*
X63100Y-33780D03*
X63100Y-34780D03*
X63100Y-35780D03*
X63100Y-36780D03*
X63100Y-37780D03*
X63100Y-38780D03*
X63100Y-39780D03*
X63100Y-40780D03*
G54D16*
X63100Y-41780D03*
G54D15*
X45080Y-33784D03*
G54D22*
X60823Y-32150D03*
X60823Y-31650D03*
X60823Y-31150D03*
X60823Y-30650D03*
X60823Y-30150D03*
X60823Y-29650D03*
X60823Y-29150D03*
X60823Y-28650D03*
X58777Y-28650D03*
X58777Y-29150D03*
X58777Y-29650D03*
X58777Y-30150D03*
X58777Y-30650D03*
X58777Y-31150D03*
X58777Y-31650D03*
X58777Y-32150D03*
X60823Y-40350D03*
X60823Y-39850D03*
X60823Y-39350D03*
X60823Y-38850D03*
X60823Y-38350D03*
X60823Y-37850D03*
X60823Y-37350D03*
X60823Y-36850D03*
X58777Y-36850D03*
X58777Y-37350D03*
X58777Y-37850D03*
X58777Y-38350D03*
X58777Y-38850D03*
X58777Y-39350D03*
X58777Y-39850D03*
X58777Y-40350D03*
X47327Y-28600D03*
X47327Y-29100D03*
X47327Y-29600D03*
X47327Y-30100D03*
X47327Y-30600D03*
X47327Y-31100D03*
X47327Y-31600D03*
X47327Y-32100D03*
X49373Y-32100D03*
X49373Y-31600D03*
X49373Y-31100D03*
X49373Y-30600D03*
X49373Y-30100D03*
X49373Y-29600D03*
X49373Y-29100D03*
X49373Y-28600D03*
X49373Y-40350D03*
X49373Y-39850D03*
X49373Y-39350D03*
X49373Y-38850D03*
X49373Y-38350D03*
X49373Y-37850D03*
X49373Y-37350D03*
X49373Y-36850D03*
X47327Y-36850D03*
X47327Y-37350D03*
X47327Y-37850D03*
X47327Y-38350D03*
X47327Y-38850D03*
X47327Y-39350D03*
X47327Y-39850D03*
X47327Y-40350D03*
G54D23*
X52304Y-35293D03*
X52304Y-34978D03*
X52304Y-34663D03*
X52304Y-34348D03*
X52304Y-34033D03*
X52304Y-33718D03*
X52304Y-33403D03*
X52304Y-33088D03*
X56070Y-33090D03*
X56070Y-35300D03*
X56070Y-34980D03*
X56070Y-34660D03*
X56070Y-34350D03*
X56070Y-34030D03*
X56070Y-33720D03*
X56070Y-33400D03*
G54D24*
X53088Y-32300D03*
X53402Y-32300D03*
X53718Y-32300D03*
X54032Y-32300D03*
X54348Y-32300D03*
X54662Y-32300D03*
X54978Y-32300D03*
X55292Y-32300D03*
X53090Y-36080D03*
X53400Y-36080D03*
X53720Y-36080D03*
X54030Y-36080D03*
X54340Y-36080D03*
X54660Y-36080D03*
X54980Y-36080D03*
X55300Y-36080D03*
G54D17*
X53550Y-25775D03*
X51000Y-25775D03*
X53550Y-27525D03*
X51000Y-27525D03*
X57400Y-25775D03*
X54850Y-25775D03*
X57400Y-27525D03*
X54850Y-27525D03*
G54D16*
X58700Y-23800D03*
G54D17*
X57700Y-23800D03*
X56700Y-23800D03*
X55700Y-23800D03*
X54700Y-23800D03*
X53700Y-23800D03*
X52700Y-23800D03*
X51700Y-23800D03*
X50700Y-23800D03*
X49700Y-23800D03*
G54D16*
X58700Y-44800D03*
G54D17*
X57700Y-44800D03*
X56700Y-44800D03*
X55700Y-44800D03*
X54700Y-44800D03*
X53700Y-44800D03*
X52700Y-44800D03*
X51700Y-44800D03*
X50700Y-44800D03*
X49700Y-44800D03*
G54D16*
X56700Y-29800D03*
G54D17*
X55700Y-29800D03*
X54700Y-29800D03*
X53700Y-29800D03*
X52700Y-29800D03*
X51700Y-29800D03*
G54D16*
X54950Y-28550D03*
G54D17*
X55950Y-28550D03*
M02*
