M48
INCH,TZ
T1C0.025
T2C0.032
T3C0.040
T4C0.120
%
G05
T1
X43195Y-40582
X46164Y-34789
X46195Y-34251
X46402Y-37350
X48274Y-38941
X48307Y-39586
X48335Y-29723
X48397Y-32095
X48555Y-30263
X48578Y-37145
X48588Y-38350
X48594Y-31122
X48599Y-37751
X49796Y-25073
X50065Y-35941
X50176Y-38100
X50242Y-28063
X50748Y-29513
X50938Y-34639
X51284Y-39277
X51579Y-32887
X51878Y-31214
X52301Y-35702
X52754Y-37252
X52953Y-38182
X53061Y-33490
X53063Y-36800
X53327Y-26657
X53427Y-33886
X53828Y-37067
X53990Y-33898
X54366Y-31253
X54459Y-30642
X54856Y-35143
X55382Y-31510
X55706Y-35716
X55943Y-30791
X56061Y-36989
X56621Y-35672
X57000Y-34071
X57609Y-38350
X57635Y-26488
X57690Y-41410
X57812Y-35285
X57894Y-30268
X57903Y-29655
X58415Y-33142
X59423Y-36070
X59525Y-30782
X60671Y-27986
X61983Y-34826
X61995Y-34288
X62004Y-33750
X62006Y-35364
T2
X42600Y-26800
X42600Y-28900
X42700Y-30800
X42700Y-31800
X42700Y-32800
X42700Y-33800
X42700Y-34800
X42700Y-35800
X42700Y-36800
X42700Y-37800
X43600Y-26800
X43600Y-28900
X43700Y-30800
X43700Y-31800
X43700Y-32800
X43700Y-33800
X43700Y-34800
X43700Y-35800
X43700Y-36800
X43700Y-37800
X45080Y-26784
X45080Y-27784
X45080Y-28784
X45080Y-29784
X45080Y-30784
X45080Y-31784
X45080Y-32784
X45080Y-33784
X45080Y-34784
X45080Y-35784
X45080Y-36784
X45080Y-37784
X45080Y-38784
X45080Y-39784
X45080Y-40784
X45080Y-41784
X47800Y-42000
X48800Y-42000
X49700Y-23800
X49700Y-44800
X50700Y-23800
X50700Y-44800
X50972Y-36542
X50986Y-41609
X50986Y-43109
X51700Y-23800
X51700Y-29800
X51700Y-44800
X51972Y-36542
X52450Y-28550
X52700Y-23800
X52700Y-29800
X52700Y-44800
X53435Y-38600
X53450Y-28550
X53700Y-23800
X53700Y-29800
X53700Y-44800
X54700Y-23800
X54700Y-29800
X54700Y-44800
X54950Y-28550
X55365Y-38600
X55700Y-23800
X55700Y-29800
X55700Y-44800
X55950Y-28550
X56500Y-36550
X56700Y-23800
X56700Y-29800
X56700Y-44800
X57500Y-36550
X57700Y-23800
X57700Y-44800
X58650Y-41700
X58650Y-43100
X58700Y-23800
X58700Y-44800
X59650Y-41700
X59650Y-43100
X63100Y-26780
X63100Y-27780
X63100Y-28780
X63100Y-29780
X63100Y-30780
X63100Y-31780
X63100Y-32780
X63100Y-33780
X63100Y-34780
X63100Y-35780
X63100Y-36780
X63100Y-37780
X63100Y-40780
X63100Y-41780
X64400Y-26800
X64400Y-27800
X64400Y-28800
X64400Y-29800
X64400Y-30800
X64400Y-31800
X64400Y-32800
X64400Y-33800
X64400Y-34800
X64400Y-35800
X64400Y-36800
X64400Y-38800
X64400Y-39800
X64400Y-40800
X64400Y-41800
X64450Y-37800
X65400Y-26800
X65400Y-27800
X65400Y-28800
X65400Y-29800
X65400Y-30800
X65400Y-31800
X65400Y-32800
X65400Y-33800
X65400Y-34800
X65400Y-35800
X65400Y-36800
X65400Y-38800
X65400Y-39800
X65400Y-40800
X65400Y-41800
X65450Y-37800
T3
X47400Y-26200
X47400Y-27200
X48400Y-26200
X48400Y-27200
X49400Y-26200
X49400Y-27200
X51000Y-25775
X51000Y-27525
X53550Y-25775
X53550Y-27525
X54850Y-25775
X54850Y-27525
X57400Y-25775
X57400Y-27525
X58800Y-26200
X58800Y-27200
X59800Y-26200
X59800Y-27200
X60800Y-26200
X60800Y-27200
T4
X43924Y-24186
X43924Y-44658
X64397Y-24186
X64397Y-44658
T2
X63100Y-38780G85X63100Y-38780
G05
X63100Y-39780G85X63100Y-39780
G05
T0
M30
